<svg xmlns="http://www.w3.org/2000/svg" xmlns:xlink="http://www.w3.org/1999/xlink" width="500" zoomAndPan="magnify" viewBox="0 0 375 374.999991" height="500" preserveAspectRatio="xMidYMid meet" version="1.0"><defs><clipPath id="fc5c684275"><path d="M 113 18.175781 L 263 18.175781 L 263 146 L 113 146 Z M 113 18.175781 " clip-rule="nonzero"/></clipPath><clipPath id="9030c7dea5"><path d="M 113 229 L 263 229 L 263 357.175781 L 113 357.175781 Z M 113 229 " clip-rule="nonzero"/></clipPath><clipPath id="3094784190"><path d="M 229 113 L 357.175781 113 L 357.175781 263 L 229 263 Z M 229 113 " clip-rule="nonzero"/></clipPath><clipPath id="50bf7a6574"><path d="M 18.175781 113 L 146 113 L 146 263 L 18.175781 263 Z M 18.175781 113 " clip-rule="nonzero"/></clipPath></defs><g clip-path="url(#fc5c684275)"><path fill="#b6ccd7" d="M 207.566406 100.121094 L 187.691406 122.875 L 132.390625 59.574219 L 152.011719 33.046875 L 223.375 33.046875 L 242.996094 59.574219 L 233.917969 69.960938 C 238.738281 71.863281 243.414062 74.054688 247.921875 76.507812 L 262.042969 60.34375 L 230.867188 18.1875 L 144.515625 18.1875 L 113.339844 60.34375 L 187.691406 145.453125 L 222.933594 105.109375 C 218.023438 103.003906 212.882812 101.332031 207.566406 100.121094 " fill-opacity="1" fill-rule="nonzero"/></g><g clip-path="url(#9030c7dea5)"><path fill="#b6ccd7" d="M 187.691406 229.929688 L 152.445312 270.273438 C 157.359375 272.378906 162.503906 274.046875 167.820312 275.253906 L 187.691406 252.507812 L 242.996094 315.808594 L 223.375 342.339844 L 152.011719 342.339844 L 132.390625 315.808594 L 141.460938 305.429688 C 136.636719 303.53125 131.960938 301.34375 127.449219 298.886719 L 113.339844 315.039062 L 144.515625 357.195312 L 230.867188 357.195312 L 262.042969 315.039062 L 187.691406 229.929688 " fill-opacity="1" fill-rule="nonzero"/></g><path fill="#6abf2f" d="M 215.347656 300.265625 L 203.609375 286.832031 C 198.425781 287.660156 193.113281 288.09375 187.691406 288.09375 C 151.335938 288.09375 119.492188 268.769531 101.871094 239.832031 L 90.050781 250.160156 C 110.652344 282.300781 146.683594 303.59375 187.691406 303.59375 C 197.222656 303.59375 206.484375 302.433594 215.347656 300.265625 " fill-opacity="1" fill-rule="nonzero"/><path fill="#6abf2f" d="M 273.511719 135.550781 L 285.335938 125.222656 C 264.734375 93.085938 228.699219 71.785156 187.691406 71.785156 C 178.160156 71.785156 168.902344 72.949219 160.039062 75.117188 L 171.773438 88.550781 C 176.957031 87.722656 182.273438 87.289062 187.691406 87.289062 C 224.050781 87.289062 255.890625 106.613281 273.511719 135.550781 " fill-opacity="1" fill-rule="nonzero"/><g clip-path="url(#3094784190)"><path fill="#b6ccd7" d="M 275.261719 207.566406 L 252.507812 187.691406 L 315.808594 132.390625 L 342.339844 152.011719 L 342.339844 223.375 L 315.808594 242.996094 L 305.421875 233.917969 C 303.519531 238.738281 301.328125 243.414062 298.875 247.921875 L 315.039062 262.042969 L 357.195312 230.867188 L 357.195312 144.515625 L 315.039062 113.339844 L 229.929688 187.691406 L 270.273438 222.933594 C 272.378906 218.023438 274.050781 212.882812 275.261719 207.566406 " fill-opacity="1" fill-rule="nonzero"/></g><g clip-path="url(#50bf7a6574)"><path fill="#b6ccd7" d="M 145.453125 187.691406 L 105.109375 152.445312 C 103 157.359375 101.335938 162.503906 100.128906 167.820312 L 122.875 187.691406 L 59.574219 242.996094 L 33.046875 223.375 L 33.046875 152.011719 L 59.574219 132.390625 L 69.953125 141.457031 C 71.851562 136.636719 74.042969 131.960938 76.496094 127.449219 L 60.347656 113.339844 L 18.191406 144.515625 L 18.191406 230.867188 L 60.347656 262.042969 L 145.453125 187.691406 " fill-opacity="1" fill-rule="nonzero"/></g><path fill="#6abf2f" d="M 75.117188 215.347656 L 88.550781 203.609375 C 87.722656 198.425781 87.289062 193.113281 87.289062 187.691406 C 87.289062 151.335938 106.613281 119.496094 135.550781 101.871094 L 125.21875 90.050781 C 93.085938 110.648438 71.789062 146.6875 71.789062 187.691406 C 71.789062 197.222656 72.949219 206.484375 75.117188 215.347656 " fill-opacity="1" fill-rule="nonzero"/><path fill="#6abf2f" d="M 239.832031 273.511719 L 250.160156 285.332031 C 282.300781 264.734375 303.59375 228.699219 303.59375 187.691406 C 303.59375 178.160156 302.433594 168.902344 300.265625 160.039062 L 286.832031 171.773438 C 287.660156 176.957031 288.09375 182.273438 288.09375 187.691406 C 288.09375 224.046875 268.769531 255.890625 239.832031 273.511719 " fill-opacity="1" fill-rule="nonzero"/></svg>