<svg xmlns="http://www.w3.org/2000/svg" xmlns:xlink="http://www.w3.org/1999/xlink" width="500" zoomAndPan="magnify" viewBox="0 0 375 374.999991" height="500" preserveAspectRatio="xMidYMid meet" version="1.0"><defs><g/><clipPath id="67c5b2e6bc"><path d="M 139 37.5 L 236 37.5 L 236 120 L 139 120 Z M 139 37.5 " clip-rule="nonzero"/></clipPath><clipPath id="35579e487b"><path d="M 139 173 L 236 173 L 236 255.558594 L 139 255.558594 Z M 139 173 " clip-rule="nonzero"/></clipPath><clipPath id="ff9f6de82a"><path d="M 214 98 L 296.53125 98 L 296.53125 195 L 214 195 Z M 214 98 " clip-rule="nonzero"/></clipPath><clipPath id="4bd59d3c60"><path d="M 78.46875 98 L 161 98 L 161 195 L 78.46875 195 Z M 78.46875 98 " clip-rule="nonzero"/></clipPath></defs><g clip-path="url(#67c5b2e6bc)"><path fill="#b6ccd7" d="M 200.296875 90.210938 L 187.511719 104.847656 L 151.9375 64.128906 L 164.558594 47.066406 L 210.464844 47.066406 L 223.082031 64.128906 L 217.246094 70.8125 C 220.34375 72.03125 223.351562 73.441406 226.253906 75.023438 L 235.335938 64.625 L 215.28125 37.507812 L 159.738281 37.507812 L 139.683594 64.625 L 187.511719 119.371094 L 210.179688 93.417969 C 207.019531 92.0625 203.714844 90.988281 200.296875 90.210938 " fill-opacity="1" fill-rule="nonzero"/></g><g clip-path="url(#35579e487b)"><path fill="#b6ccd7" d="M 187.511719 173.707031 L 164.835938 199.660156 C 168 201.015625 171.308594 202.085938 174.726562 202.863281 L 187.511719 188.230469 L 223.082031 228.949219 L 210.464844 246.015625 L 164.558594 246.015625 L 151.9375 228.949219 L 157.773438 222.273438 C 154.667969 221.050781 151.664062 219.644531 148.757812 218.066406 L 139.683594 228.453125 L 159.738281 255.570312 L 215.28125 255.570312 L 235.335938 228.453125 L 187.511719 173.707031 " fill-opacity="1" fill-rule="nonzero"/></g><path fill="#6abf2f" d="M 205.296875 218.953125 L 197.75 210.3125 C 194.414062 210.84375 190.996094 211.121094 187.511719 211.121094 C 164.125 211.121094 143.640625 198.691406 132.308594 180.078125 L 124.703125 186.722656 C 137.953125 207.394531 161.132812 221.089844 187.511719 221.089844 C 193.640625 221.089844 199.597656 220.347656 205.296875 218.953125 " fill-opacity="1" fill-rule="nonzero"/><path fill="#6abf2f" d="M 242.710938 113 L 250.316406 106.355469 C 237.066406 85.683594 213.886719 71.984375 187.511719 71.984375 C 181.378906 71.984375 175.421875 72.730469 169.722656 74.128906 L 177.269531 82.765625 C 180.605469 82.234375 184.023438 81.957031 187.511719 81.957031 C 210.898438 81.957031 231.378906 94.386719 242.710938 113 " fill-opacity="1" fill-rule="nonzero"/><g clip-path="url(#ff9f6de82a)"><path fill="#b6ccd7" d="M 243.839844 159.324219 L 229.203125 146.539062 L 269.921875 110.96875 L 286.984375 123.585938 L 286.984375 169.492188 L 269.921875 182.113281 L 263.238281 176.273438 C 262.015625 179.375 260.605469 182.382812 259.027344 185.28125 L 269.425781 194.367188 L 296.542969 174.3125 L 296.542969 118.765625 L 269.425781 98.710938 L 214.679688 146.539062 L 240.628906 169.210938 C 241.984375 166.050781 243.058594 162.746094 243.839844 159.324219 " fill-opacity="1" fill-rule="nonzero"/></g><g clip-path="url(#4bd59d3c60)"><path fill="#b6ccd7" d="M 160.339844 146.539062 L 134.390625 123.867188 C 133.035156 127.027344 131.960938 130.339844 131.183594 133.757812 L 145.816406 146.539062 L 105.097656 182.113281 L 88.035156 169.492188 L 88.035156 123.585938 L 105.097656 110.96875 L 111.773438 116.800781 C 112.996094 113.699219 114.40625 110.691406 115.984375 107.789062 L 105.597656 98.710938 L 78.480469 118.765625 L 78.480469 174.3125 L 105.597656 194.367188 L 160.339844 146.539062 " fill-opacity="1" fill-rule="nonzero"/></g><path fill="#6abf2f" d="M 115.097656 164.328125 L 123.738281 156.777344 C 123.207031 153.445312 122.925781 150.027344 122.925781 146.539062 C 122.925781 123.152344 135.355469 102.671875 153.96875 91.335938 L 147.324219 83.730469 C 126.65625 96.984375 112.957031 120.164062 112.957031 146.539062 C 112.957031 152.671875 113.703125 158.628906 115.097656 164.328125 " fill-opacity="1" fill-rule="nonzero"/><path fill="#6abf2f" d="M 221.046875 201.742188 L 227.695312 209.347656 C 248.367188 196.09375 262.0625 172.917969 262.0625 146.539062 C 262.0625 140.40625 261.316406 134.453125 259.921875 128.753906 L 251.28125 136.300781 C 251.8125 139.636719 252.09375 143.054688 252.09375 146.539062 C 252.09375 169.925781 239.664062 190.410156 221.046875 201.742188 " fill-opacity="1" fill-rule="nonzero"/><g fill="#f9f9fa" fill-opacity="1"><g transform="translate(59.041944, 331.105795)"><g><path d="M 6.015625 -20.796875 C 6.015625 -21.597656 5.945312 -22.425781 5.8125 -23.28125 C 5.726562 -23.6875 5.519531 -24.023438 5.1875 -24.296875 C 4.851562 -24.566406 4.476562 -24.78125 4.0625 -24.9375 C 3.644531 -25.09375 3.109375 -25.257812 2.453125 -25.4375 C 1.953125 -25.570312 1.601562 -25.675781 1.40625 -25.75 L 1.4375 -26.796875 L 13.625 -26.796875 C 17.050781 -26.796875 20.066406 -26.347656 22.671875 -25.453125 C 25.285156 -24.566406 27.347656 -23.140625 28.859375 -21.171875 C 30.367188 -19.203125 31.125 -16.660156 31.125 -13.546875 C 31.125 -11.160156 30.550781 -8.929688 29.40625 -6.859375 C 28.257812 -4.796875 26.5625 -3.132812 24.3125 -1.875 C 22.070312 -0.625 19.378906 0 16.234375 0 L 1.4375 0 L 1.40625 -1.078125 L 2.484375 -1.359375 C 3.253906 -1.535156 3.875 -1.710938 4.34375 -1.890625 C 4.8125 -2.066406 5.207031 -2.363281 5.53125 -2.78125 C 5.851562 -3.207031 6.015625 -3.785156 6.015625 -4.515625 Z M 10.4375 -5.578125 C 10.4375 -4.378906 10.664062 -3.4375 11.125 -2.75 C 11.582031 -2.070312 12.367188 -1.703125 13.484375 -1.640625 C 14.253906 -1.597656 15.039062 -1.578125 15.84375 -1.578125 C 18.09375 -1.578125 20 -2.101562 21.5625 -3.15625 C 23.132812 -4.207031 24.300781 -5.566406 25.0625 -7.234375 C 25.832031 -8.910156 26.21875 -10.675781 26.21875 -12.53125 C 26.21875 -14.988281 25.78125 -17.164062 24.90625 -19.0625 C 24.03125 -20.96875 22.664062 -22.46875 20.8125 -23.5625 C 18.96875 -24.664062 16.660156 -25.21875 13.890625 -25.21875 L 10.4375 -25.21875 Z M 10.4375 -5.578125 "/></g></g></g><g fill="#f9f9fa" fill-opacity="1"><g transform="translate(94.032775, 331.105795)"><g><path d="M 10.484375 -5.359375 C 10.484375 -4.304688 10.570312 -3.535156 10.75 -3.046875 C 10.9375 -2.554688 11.191406 -2.226562 11.515625 -2.0625 C 11.835938 -1.894531 12.347656 -1.75 13.046875 -1.625 C 13.859375 -1.488281 14.582031 -1.3125 15.21875 -1.09375 L 15.171875 0 L 1.484375 0 L 1.484375 -1.078125 C 1.878906 -1.253906 2.238281 -1.378906 2.5625 -1.453125 C 2.882812 -1.523438 3.289062 -1.601562 3.78125 -1.6875 C 4.40625 -1.769531 4.859375 -1.890625 5.140625 -2.046875 C 5.429688 -2.203125 5.65625 -2.554688 5.8125 -3.109375 C 5.96875 -3.660156 6.046875 -4.53125 6.046875 -5.71875 L 6.046875 -21.203125 C 6.046875 -22.328125 5.945312 -23.15625 5.75 -23.6875 C 5.5625 -24.226562 5.3125 -24.570312 5 -24.71875 C 4.695312 -24.875 4.242188 -24.992188 3.640625 -25.078125 C 3.148438 -25.148438 2.742188 -25.226562 2.421875 -25.3125 C 2.097656 -25.394531 1.757812 -25.539062 1.40625 -25.75 L 1.4375 -26.796875 L 15.09375 -26.796875 L 15.125 -25.734375 C 14.84375 -25.617188 14.429688 -25.5 13.890625 -25.375 C 13.140625 -25.1875 12.535156 -24.992188 12.078125 -24.796875 C 11.628906 -24.609375 11.25 -24.3125 10.9375 -23.90625 C 10.632812 -23.5 10.484375 -22.945312 10.484375 -22.25 Z M 10.484375 -5.359375 "/></g></g></g><g fill="#f9f9fa" fill-opacity="1"><g transform="translate(112.621789, 331.105795)"><g><path d="M 8.15625 -10.953125 L 7.765625 -9.96875 C 7.140625 -8.351562 6.648438 -7.03125 6.296875 -6 C 5.941406 -4.96875 5.765625 -4.171875 5.765625 -3.609375 C 5.765625 -3.109375 5.945312 -2.703125 6.3125 -2.390625 C 6.675781 -2.078125 7.09375 -1.84375 7.5625 -1.6875 C 8.039062 -1.539062 8.617188 -1.394531 9.296875 -1.25 L 9.6875 -1.171875 L 9.6875 0 L -0.015625 0 L -0.015625 -1.078125 C 0.171875 -1.222656 0.363281 -1.347656 0.5625 -1.453125 C 0.757812 -1.554688 1.007812 -1.671875 1.3125 -1.796875 C 1.789062 -1.984375 2.175781 -2.179688 2.46875 -2.390625 C 2.769531 -2.597656 3.035156 -2.921875 3.265625 -3.359375 C 3.410156 -3.628906 3.550781 -3.9375 3.6875 -4.28125 C 3.832031 -4.632812 3.925781 -4.867188 3.96875 -4.984375 L 4.21875 -5.625 L 11.921875 -25.34375 C 11.972656 -25.488281 12.015625 -25.75 12.046875 -26.125 C 12.054688 -26.394531 12.078125 -26.613281 12.109375 -26.78125 C 12.148438 -26.957031 12.21875 -27.113281 12.3125 -27.25 C 12.976562 -27.25 13.554688 -27.179688 14.046875 -27.046875 C 14.535156 -26.910156 15.023438 -26.65625 15.515625 -26.28125 L 24.96875 -3.625 C 25.144531 -3.195312 25.347656 -2.851562 25.578125 -2.59375 C 25.816406 -2.34375 26.0625 -2.148438 26.3125 -2.015625 C 26.570312 -1.890625 26.921875 -1.738281 27.359375 -1.5625 C 27.722656 -1.4375 28.113281 -1.273438 28.53125 -1.078125 L 28.484375 0 L 16.515625 0 L 16.46875 -1.078125 C 17.113281 -1.265625 17.664062 -1.453125 18.125 -1.640625 C 18.582031 -1.835938 18.992188 -2.109375 19.359375 -2.453125 C 19.734375 -2.796875 19.921875 -3.210938 19.921875 -3.703125 C 19.921875 -4.253906 19.234375 -6.289062 17.859375 -9.8125 C 17.785156 -10.019531 17.707031 -10.21875 17.625 -10.40625 C 17.550781 -10.601562 17.488281 -10.785156 17.4375 -10.953125 Z M 12.625 -22.890625 L 8.84375 -12.765625 L 16.671875 -12.765625 Z M 12.625 -22.890625 "/></g></g></g><g fill="#f9f9fa" fill-opacity="1"><g transform="translate(142.920511, 331.105795)"><g><path d="M 34.546875 -5.578125 C 34.660156 -4.179688 35.039062 -3.125 35.6875 -2.40625 C 35.800781 -2.09375 36.015625 -1.875 36.328125 -1.75 C 36.640625 -1.632812 37.070312 -1.546875 37.625 -1.484375 C 38.039062 -1.429688 38.347656 -1.378906 38.546875 -1.328125 C 38.753906 -1.273438 38.9375 -1.191406 39.09375 -1.078125 L 39.046875 0 L 26.21875 0 L 26.1875 -1.078125 L 26.828125 -1.28125 C 27.546875 -1.507812 28.125 -1.722656 28.5625 -1.921875 C 29.007812 -2.117188 29.390625 -2.410156 29.703125 -2.796875 C 30.015625 -3.191406 30.171875 -3.707031 30.171875 -4.34375 L 28.90625 -21.984375 L 21.03125 -4.21875 C 20.550781 -3.132812 20.050781 -1.726562 19.53125 0 L 17.90625 0 C 17.34375 -1.257812 16.40625 -3.226562 15.09375 -5.90625 C 13.363281 -9.5 11.984375 -12.410156 10.953125 -14.640625 C 9.921875 -16.867188 8.976562 -19.050781 8.125 -21.1875 C 8.03125 -20.019531 7.859375 -18.347656 7.609375 -16.171875 C 7.335938 -13.648438 7.132812 -11.535156 7 -9.828125 C 6.863281 -8.128906 6.796875 -6.445312 6.796875 -4.78125 C 6.796875 -4.03125 6.929688 -3.4375 7.203125 -3 C 7.472656 -2.570312 7.816406 -2.25 8.234375 -2.03125 C 8.660156 -1.8125 9.25 -1.570312 10 -1.3125 L 10.71875 -1.078125 L 10.6875 0 L 0.71875 0 L 0.671875 -1.078125 C 0.785156 -1.109375 1.148438 -1.238281 1.765625 -1.46875 C 2.429688 -1.6875 2.953125 -1.894531 3.328125 -2.09375 C 3.710938 -2.289062 4.046875 -2.582031 4.328125 -2.96875 C 4.609375 -3.351562 4.785156 -3.875 4.859375 -4.53125 L 6.421875 -19.921875 C 6.515625 -20.910156 6.5625 -21.789062 6.5625 -22.5625 C 6.5625 -23.132812 6.453125 -23.59375 6.234375 -23.9375 C 6.023438 -24.28125 5.753906 -24.535156 5.421875 -24.703125 C 5.097656 -24.867188 4.660156 -25.039062 4.109375 -25.21875 C 3.535156 -25.394531 3.085938 -25.570312 2.765625 -25.75 L 2.796875 -26.796875 L 10.8125 -26.796875 C 11.070312 -25.691406 11.34375 -24.695312 11.625 -23.8125 C 11.90625 -22.925781 12.226562 -22.082031 12.59375 -21.28125 L 20 -5.5 L 27.359375 -22.25 C 27.710938 -23.0625 27.960938 -23.859375 28.109375 -24.640625 C 28.265625 -25.429688 28.34375 -26.148438 28.34375 -26.796875 L 36.859375 -26.796875 L 36.859375 -25.734375 L 36.5 -25.609375 C 35.726562 -25.347656 35.117188 -25.109375 34.671875 -24.890625 C 34.222656 -24.671875 33.84375 -24.347656 33.53125 -23.921875 C 33.21875 -23.492188 33.0625 -22.941406 33.0625 -22.265625 Z M 34.546875 -5.578125 "/></g></g></g><g fill="#f9f9fa" fill-opacity="1"><g transform="translate(184.51734, 331.105795)"><g><path d="M 16.546875 -27.3125 C 19.128906 -27.3125 21.5 -26.734375 23.65625 -25.578125 C 25.8125 -24.429688 27.519531 -22.796875 28.78125 -20.671875 C 30.050781 -18.554688 30.6875 -16.113281 30.6875 -13.34375 C 30.6875 -10.625 30.03125 -8.207031 28.71875 -6.09375 C 27.414062 -3.988281 25.648438 -2.359375 23.421875 -1.203125 C 21.203125 -0.046875 18.773438 0.53125 16.140625 0.53125 C 13.710938 0.53125 11.441406 -0.0195312 9.328125 -1.125 C 7.210938 -2.238281 5.515625 -3.832031 4.234375 -5.90625 C 2.953125 -7.976562 2.3125 -10.378906 2.3125 -13.109375 C 2.3125 -16.117188 2.984375 -18.691406 4.328125 -20.828125 C 5.679688 -22.972656 7.445312 -24.585938 9.625 -25.671875 C 11.800781 -26.765625 14.109375 -27.3125 16.546875 -27.3125 Z M 17.234375 -1.046875 C 18.878906 -1.046875 20.359375 -1.484375 21.671875 -2.359375 C 22.992188 -3.242188 24.023438 -4.515625 24.765625 -6.171875 C 25.515625 -7.835938 25.890625 -9.796875 25.890625 -12.046875 C 25.890625 -14.597656 25.460938 -16.910156 24.609375 -18.984375 C 23.765625 -21.066406 22.578125 -22.710938 21.046875 -23.921875 C 19.515625 -25.128906 17.773438 -25.734375 15.828125 -25.734375 C 14.222656 -25.734375 12.757812 -25.316406 11.4375 -24.484375 C 10.113281 -23.648438 9.054688 -22.410156 8.265625 -20.765625 C 7.484375 -19.117188 7.09375 -17.140625 7.09375 -14.828125 C 7.09375 -12.242188 7.523438 -9.898438 8.390625 -7.796875 C 9.253906 -5.703125 10.457031 -4.050781 12 -2.84375 C 13.550781 -1.644531 15.296875 -1.046875 17.234375 -1.046875 Z M 17.234375 -1.046875 "/></g></g></g><g fill="#f9f9fa" fill-opacity="1"><g transform="translate(219.487587, 331.105795)"><g><path d="M 6.65625 -22.453125 C 6.289062 -23.035156 5.914062 -23.492188 5.53125 -23.828125 C 5.144531 -24.171875 4.757812 -24.429688 4.375 -24.609375 C 4 -24.796875 3.488281 -25 2.84375 -25.21875 C 2.226562 -25.425781 1.75 -25.597656 1.40625 -25.734375 L 1.40625 -26.796875 L 8.578125 -26.796875 L 27.953125 -6.765625 L 27.953125 -19.71875 C 27.953125 -21.019531 27.765625 -22.207031 27.390625 -23.28125 C 27.242188 -23.71875 27.039062 -24.0625 26.78125 -24.3125 C 26.519531 -24.5625 26.238281 -24.738281 25.9375 -24.84375 C 25.632812 -24.957031 25.226562 -25.070312 24.71875 -25.1875 C 24.632812 -25.21875 24.425781 -25.273438 24.09375 -25.359375 C 23.757812 -25.453125 23.453125 -25.566406 23.171875 -25.703125 C 23.171875 -26.066406 23.191406 -26.429688 23.234375 -26.796875 L 34.09375 -26.796875 L 34.09375 -25.6875 C 33.707031 -25.507812 33.304688 -25.335938 32.890625 -25.171875 C 31.890625 -24.734375 31.195312 -24.367188 30.8125 -24.078125 C 30.425781 -23.796875 30.15625 -23.347656 30 -22.734375 C 29.84375 -22.117188 29.757812 -21.117188 29.75 -19.734375 C 29.75 -19.035156 29.734375 -18 29.703125 -16.625 C 29.691406 -15.582031 29.675781 -14.28125 29.65625 -12.71875 C 29.644531 -11.164062 29.640625 -9.347656 29.640625 -7.265625 C 29.640625 -6.359375 29.722656 -5.015625 29.890625 -3.234375 C 30.023438 -1.722656 30.097656 -0.582031 30.109375 0.1875 C 29.847656 0.28125 29.515625 0.328125 29.109375 0.328125 C 28.671875 0.328125 28.28125 0.28125 27.9375 0.1875 C 26.945312 -1.019531 25.820312 -2.300781 24.5625 -3.65625 L 8.296875 -20.765625 L 8.296875 -6.3125 C 8.296875 -5.394531 8.410156 -4.472656 8.640625 -3.546875 C 8.753906 -3.078125 8.953125 -2.710938 9.234375 -2.453125 C 9.523438 -2.203125 9.835938 -2.019531 10.171875 -1.90625 C 10.515625 -1.800781 10.972656 -1.691406 11.546875 -1.578125 C 12.335938 -1.460938 12.925781 -1.300781 13.3125 -1.09375 C 13.3125 -0.738281 13.289062 -0.375 13.25 0 L 1.640625 0 C 1.617188 -0.25 1.609375 -0.617188 1.609375 -1.109375 L 2.546875 -1.359375 C 3.429688 -1.578125 4.128906 -1.789062 4.640625 -2 C 5.148438 -2.207031 5.59375 -2.539062 5.96875 -3 C 6.351562 -3.46875 6.582031 -4.109375 6.65625 -4.921875 Z M 6.65625 -22.453125 "/></g></g></g><g fill="#f9f9fa" fill-opacity="1"><g transform="translate(256.947946, 331.105795)"><g><path d="M 6.015625 -20.796875 C 6.015625 -21.597656 5.945312 -22.425781 5.8125 -23.28125 C 5.726562 -23.6875 5.519531 -24.023438 5.1875 -24.296875 C 4.851562 -24.566406 4.476562 -24.78125 4.0625 -24.9375 C 3.644531 -25.09375 3.109375 -25.257812 2.453125 -25.4375 C 1.953125 -25.570312 1.601562 -25.675781 1.40625 -25.75 L 1.4375 -26.796875 L 13.625 -26.796875 C 17.050781 -26.796875 20.066406 -26.347656 22.671875 -25.453125 C 25.285156 -24.566406 27.347656 -23.140625 28.859375 -21.171875 C 30.367188 -19.203125 31.125 -16.660156 31.125 -13.546875 C 31.125 -11.160156 30.550781 -8.929688 29.40625 -6.859375 C 28.257812 -4.796875 26.5625 -3.132812 24.3125 -1.875 C 22.070312 -0.625 19.378906 0 16.234375 0 L 1.4375 0 L 1.40625 -1.078125 L 2.484375 -1.359375 C 3.253906 -1.535156 3.875 -1.710938 4.34375 -1.890625 C 4.8125 -2.066406 5.207031 -2.363281 5.53125 -2.78125 C 5.851562 -3.207031 6.015625 -3.785156 6.015625 -4.515625 Z M 10.4375 -5.578125 C 10.4375 -4.378906 10.664062 -3.4375 11.125 -2.75 C 11.582031 -2.070312 12.367188 -1.703125 13.484375 -1.640625 C 14.253906 -1.597656 15.039062 -1.578125 15.84375 -1.578125 C 18.09375 -1.578125 20 -2.101562 21.5625 -3.15625 C 23.132812 -4.207031 24.300781 -5.566406 25.0625 -7.234375 C 25.832031 -8.910156 26.21875 -10.675781 26.21875 -12.53125 C 26.21875 -14.988281 25.78125 -17.164062 24.90625 -19.0625 C 24.03125 -20.96875 22.664062 -22.46875 20.8125 -23.5625 C 18.96875 -24.664062 16.660156 -25.21875 13.890625 -25.21875 L 10.4375 -25.21875 Z M 10.4375 -5.578125 "/></g></g></g><g fill="#f9f9fa" fill-opacity="1"><g transform="translate(291.938773, 331.105795)"><g><path d="M 4.03125 -8.28125 C 4.164062 -8.039062 4.28125 -7.796875 4.375 -7.546875 C 4.46875 -7.304688 4.566406 -6.988281 4.671875 -6.59375 C 4.722656 -6.445312 4.769531 -6.285156 4.8125 -6.109375 C 5.289062 -4.535156 6.203125 -3.320312 7.546875 -2.46875 C 8.898438 -1.613281 10.441406 -1.1875 12.171875 -1.1875 C 13.078125 -1.1875 13.957031 -1.347656 14.8125 -1.671875 C 15.664062 -1.992188 16.367188 -2.476562 16.921875 -3.125 C 17.484375 -3.78125 17.765625 -4.578125 17.765625 -5.515625 C 17.765625 -6.328125 17.476562 -7.082031 16.90625 -7.78125 C 16.34375 -8.476562 15.640625 -9.101562 14.796875 -9.65625 C 13.953125 -10.21875 12.785156 -10.910156 11.296875 -11.734375 C 9.554688 -12.691406 8.144531 -13.539062 7.0625 -14.28125 C 5.976562 -15.019531 5.054688 -15.898438 4.296875 -16.921875 C 3.546875 -17.953125 3.171875 -19.113281 3.171875 -20.40625 C 3.171875 -21.988281 3.617188 -23.296875 4.515625 -24.328125 C 5.410156 -25.367188 6.5625 -26.125 7.96875 -26.59375 C 9.382812 -27.070312 10.875 -27.3125 12.4375 -27.3125 C 13.78125 -27.3125 15.117188 -27.144531 16.453125 -26.8125 C 17.796875 -26.488281 19.070312 -26.019531 20.28125 -25.40625 L 20.546875 -19.53125 L 19.265625 -19.53125 C 19.097656 -19.84375 18.90625 -20.34375 18.6875 -21.03125 L 18.484375 -21.640625 C 18.015625 -22.984375 17.207031 -24 16.0625 -24.6875 C 14.914062 -25.382812 13.597656 -25.734375 12.109375 -25.734375 C 11.335938 -25.734375 10.5625 -25.601562 9.78125 -25.34375 C 9 -25.082031 8.34375 -24.679688 7.8125 -24.140625 C 7.28125 -23.597656 7.015625 -22.925781 7.015625 -22.125 C 7.015625 -21.382812 7.289062 -20.691406 7.84375 -20.046875 C 8.394531 -19.398438 9.070312 -18.8125 9.875 -18.28125 C 10.6875 -17.757812 11.804688 -17.097656 13.234375 -16.296875 C 15.054688 -15.285156 16.535156 -14.390625 17.671875 -13.609375 C 18.804688 -12.835938 19.773438 -11.898438 20.578125 -10.796875 C 21.378906 -9.703125 21.78125 -8.460938 21.78125 -7.078125 C 21.78125 -5.367188 21.304688 -3.941406 20.359375 -2.796875 C 19.410156 -1.648438 18.179688 -0.804688 16.671875 -0.265625 C 15.171875 0.265625 13.578125 0.53125 11.890625 0.53125 C 10.390625 0.53125 8.769531 0.34375 7.03125 -0.03125 C 5.289062 -0.40625 3.882812 -0.921875 2.8125 -1.578125 L 2.8125 -8.234375 Z M 4.03125 -8.28125 "/></g></g></g><g fill="#f9f9fa" fill-opacity="1"><g transform="translate(120.090005, 364.827064)"><g><path d="M 16.265625 -1.109375 C 15.441406 -0.679688 14.5 -0.335938 13.4375 -0.078125 C 12.375 0.179688 11.296875 0.3125 10.203125 0.3125 C 8.441406 0.3125 6.890625 -0.0078125 5.546875 -0.65625 C 4.203125 -1.300781 3.160156 -2.210938 2.421875 -3.390625 C 1.679688 -4.566406 1.3125 -5.929688 1.3125 -7.484375 C 1.3125 -9.078125 1.734375 -10.484375 2.578125 -11.703125 C 3.421875 -12.929688 4.554688 -13.882812 5.984375 -14.5625 C 7.410156 -15.238281 8.960938 -15.578125 10.640625 -15.578125 C 11.566406 -15.578125 12.414062 -15.503906 13.1875 -15.359375 C 13.957031 -15.222656 14.828125 -14.976562 15.796875 -14.625 L 16.140625 -11.09375 C 15.898438 -11.0625 15.675781 -11.046875 15.46875 -11.046875 C 15.351562 -11.140625 15.25 -11.257812 15.15625 -11.40625 C 15.070312 -11.5625 14.953125 -11.789062 14.796875 -12.09375 C 14.710938 -12.25 14.628906 -12.398438 14.546875 -12.546875 C 14.460938 -12.703125 14.382812 -12.820312 14.3125 -12.90625 C 13.332031 -14.082031 12.007812 -14.671875 10.34375 -14.671875 C 9.144531 -14.671875 8.070312 -14.375 7.125 -13.78125 C 6.1875 -13.195312 5.453125 -12.390625 4.921875 -11.359375 C 4.390625 -10.335938 4.125 -9.191406 4.125 -7.921875 C 4.125 -6.546875 4.382812 -5.3125 4.90625 -4.21875 C 5.4375 -3.125 6.175781 -2.269531 7.125 -1.65625 C 8.082031 -1.039062 9.175781 -0.734375 10.40625 -0.734375 C 11.050781 -0.734375 11.625 -0.785156 12.125 -0.890625 C 12.625 -1.003906 13.097656 -1.203125 13.546875 -1.484375 C 13.640625 -2.285156 13.6875 -3.28125 13.6875 -4.46875 C 13.6875 -5.207031 13.578125 -5.878906 13.359375 -6.484375 C 13.265625 -6.734375 13.097656 -6.90625 12.859375 -7 C 12.628906 -7.09375 12.304688 -7.171875 11.890625 -7.234375 C 11.535156 -7.296875 11.285156 -7.359375 11.140625 -7.421875 C 11.140625 -7.535156 11.144531 -7.648438 11.15625 -7.765625 C 11.164062 -7.890625 11.171875 -7.976562 11.171875 -8.03125 L 18.21875 -8.03125 C 18.21875 -7.976562 18.21875 -7.890625 18.21875 -7.765625 C 18.226562 -7.648438 18.234375 -7.535156 18.234375 -7.421875 C 18.128906 -7.378906 18.015625 -7.335938 17.890625 -7.296875 C 17.515625 -7.160156 17.222656 -7.035156 17.015625 -6.921875 C 16.804688 -6.804688 16.628906 -6.628906 16.484375 -6.390625 C 16.335938 -6.148438 16.265625 -5.832031 16.265625 -5.4375 Z M 16.265625 -1.109375 "/></g></g></g><g fill="#f9f9fa" fill-opacity="1"><g transform="translate(150.113254, 364.827064)"><g><path d="M 8.15625 -6.359375 C 7.96875 -6.640625 7.804688 -6.847656 7.671875 -6.984375 C 7.546875 -7.117188 7.394531 -7.21875 7.21875 -7.28125 C 7.039062 -7.351562 6.796875 -7.398438 6.484375 -7.421875 L 5.734375 -7.46875 L 5.734375 -2.9375 C 5.734375 -2.375 5.78125 -1.957031 5.875 -1.6875 C 5.976562 -1.425781 6.113281 -1.253906 6.28125 -1.171875 C 6.445312 -1.085938 6.703125 -1.019531 7.046875 -0.96875 C 7.285156 -0.925781 7.5 -0.878906 7.6875 -0.828125 C 7.875 -0.785156 8.066406 -0.710938 8.265625 -0.609375 L 8.25 0 L 0.828125 0 L 0.796875 -0.609375 C 1.003906 -0.722656 1.203125 -0.804688 1.390625 -0.859375 C 1.578125 -0.910156 1.789062 -0.957031 2.03125 -1 C 2.34375 -1.039062 2.570312 -1.109375 2.71875 -1.203125 C 2.875 -1.296875 2.992188 -1.492188 3.078125 -1.796875 C 3.171875 -2.097656 3.21875 -2.582031 3.21875 -3.25 L 3.21875 -12.140625 C 3.21875 -12.703125 3.171875 -13.117188 3.078125 -13.390625 C 2.984375 -13.671875 2.847656 -13.863281 2.671875 -13.96875 C 2.492188 -14.070312 2.21875 -14.179688 1.84375 -14.296875 C 1.445312 -14.410156 1.097656 -14.535156 0.796875 -14.671875 L 0.828125 -15.28125 L 6.234375 -15.28125 C 7.691406 -15.28125 8.96875 -15.210938 10.0625 -15.078125 C 11.15625 -14.941406 12.132812 -14.585938 13 -14.015625 C 13.863281 -13.453125 14.296875 -12.570312 14.296875 -11.375 C 14.296875 -10.644531 14.09375 -10.007812 13.6875 -9.46875 C 13.28125 -8.9375 12.753906 -8.515625 12.109375 -8.203125 C 11.460938 -7.898438 10.769531 -7.695312 10.03125 -7.59375 C 10.125 -7.46875 10.585938 -6.816406 11.421875 -5.640625 C 12.046875 -4.765625 12.570312 -4.03125 13 -3.4375 C 13.4375 -2.851562 13.867188 -2.304688 14.296875 -1.796875 C 14.554688 -1.523438 14.785156 -1.3125 14.984375 -1.15625 C 15.191406 -1 15.445312 -0.875 15.75 -0.78125 C 16.0625 -0.6875 16.445312 -0.640625 16.90625 -0.640625 L 16.90625 0.03125 C 16.132812 0.21875 15.445312 0.3125 14.84375 0.3125 C 14.007812 0.3125 13.242188 0.0546875 12.546875 -0.453125 C 11.859375 -0.960938 11.265625 -1.566406 10.765625 -2.265625 C 10.265625 -2.960938 9.6875 -3.847656 9.03125 -4.921875 C 8.644531 -5.578125 8.351562 -6.054688 8.15625 -6.359375 Z M 6.328125 -8.25 C 7.328125 -8.25 8.191406 -8.304688 8.921875 -8.421875 C 9.648438 -8.535156 10.269531 -8.8125 10.78125 -9.25 C 11.300781 -9.695312 11.5625 -10.359375 11.5625 -11.234375 C 11.5625 -12.210938 11.28125 -12.929688 10.71875 -13.390625 C 10.164062 -13.847656 9.515625 -14.128906 8.765625 -14.234375 C 8.015625 -14.335938 7.09375 -14.390625 6 -14.390625 L 5.734375 -14.390625 L 5.734375 -8.25 Z M 6.328125 -8.25 "/></g></g></g><g fill="#f9f9fa" fill-opacity="1"><g transform="translate(178.506202, 364.827064)"><g><path d="M 9.4375 -15.578125 C 10.90625 -15.578125 12.253906 -15.242188 13.484375 -14.578125 C 14.710938 -13.921875 15.6875 -12.988281 16.40625 -11.78125 C 17.132812 -10.570312 17.5 -9.179688 17.5 -7.609375 C 17.5 -6.054688 17.125 -4.675781 16.375 -3.46875 C 15.625 -2.269531 14.613281 -1.335938 13.34375 -0.671875 C 12.082031 -0.015625 10.703125 0.3125 9.203125 0.3125 C 7.816406 0.3125 6.519531 -0.00390625 5.3125 -0.640625 C 4.113281 -1.273438 3.144531 -2.179688 2.40625 -3.359375 C 1.675781 -4.546875 1.3125 -5.914062 1.3125 -7.46875 C 1.3125 -9.1875 1.695312 -10.65625 2.46875 -11.875 C 3.238281 -13.09375 4.242188 -14.015625 5.484375 -14.640625 C 6.722656 -15.265625 8.039062 -15.578125 9.4375 -15.578125 Z M 9.828125 -0.59375 C 10.765625 -0.59375 11.609375 -0.84375 12.359375 -1.34375 C 13.109375 -1.84375 13.695312 -2.566406 14.125 -3.515625 C 14.550781 -4.460938 14.765625 -5.578125 14.765625 -6.859375 C 14.765625 -8.316406 14.519531 -9.640625 14.03125 -10.828125 C 13.550781 -12.015625 12.875 -12.953125 12 -13.640625 C 11.125 -14.328125 10.132812 -14.671875 9.03125 -14.671875 C 8.113281 -14.671875 7.273438 -14.429688 6.515625 -13.953125 C 5.765625 -13.484375 5.164062 -12.78125 4.71875 -11.84375 C 4.269531 -10.90625 4.046875 -9.773438 4.046875 -8.453125 C 4.046875 -6.984375 4.289062 -5.648438 4.78125 -4.453125 C 5.28125 -3.253906 5.96875 -2.3125 6.84375 -1.625 C 7.726562 -0.9375 8.722656 -0.59375 9.828125 -0.59375 Z M 9.828125 -0.59375 "/></g></g></g><g fill="#f9f9fa" fill-opacity="1"><g transform="translate(208.846133, 364.827064)"><g><path d="M 8.109375 -14.671875 C 7.785156 -14.546875 7.367188 -14.4375 6.859375 -14.34375 C 6.441406 -14.25 6.140625 -14.148438 5.953125 -14.046875 C 5.765625 -13.941406 5.625 -13.738281 5.53125 -13.4375 C 5.4375 -13.132812 5.390625 -12.65625 5.390625 -12 L 5.390625 -7 C 5.390625 -5.113281 5.769531 -3.632812 6.53125 -2.5625 C 7.289062 -1.5 8.585938 -0.96875 10.421875 -0.96875 C 13.773438 -0.96875 15.453125 -3.039062 15.453125 -7.1875 L 15.453125 -11.796875 C 15.453125 -12.492188 15.398438 -13.003906 15.296875 -13.328125 C 15.203125 -13.648438 15.050781 -13.867188 14.84375 -13.984375 C 14.644531 -14.109375 14.304688 -14.226562 13.828125 -14.34375 C 13.378906 -14.46875 13.007812 -14.578125 12.71875 -14.671875 L 12.71875 -15.28125 L 19.046875 -15.28125 L 19.0625 -14.671875 C 18.945312 -14.609375 18.820312 -14.554688 18.6875 -14.515625 C 18.550781 -14.484375 18.367188 -14.445312 18.140625 -14.40625 C 17.835938 -14.351562 17.597656 -14.300781 17.421875 -14.25 C 17.242188 -14.195312 17.078125 -14.109375 16.921875 -13.984375 C 16.773438 -13.867188 16.671875 -13.707031 16.609375 -13.5 C 16.484375 -13.0625 16.421875 -12.554688 16.421875 -11.984375 C 16.421875 -11.609375 16.425781 -11.015625 16.4375 -10.203125 C 16.457031 -9.390625 16.46875 -8.78125 16.46875 -8.375 C 16.46875 -6.59375 16.3125 -5.085938 16 -3.859375 C 15.6875 -2.628906 15.03125 -1.625 14.03125 -0.84375 C 13.039062 -0.0703125 11.578125 0.3125 9.640625 0.3125 C 8.503906 0.3125 7.453125 0.132812 6.484375 -0.21875 C 5.515625 -0.582031 4.710938 -1.140625 4.078125 -1.890625 C 3.441406 -2.640625 3.0625 -3.578125 2.9375 -4.703125 C 2.84375 -5.515625 2.796875 -6.546875 2.796875 -7.796875 C 2.796875 -8.515625 2.8125 -9.222656 2.84375 -9.921875 C 2.851562 -10.859375 2.859375 -11.554688 2.859375 -12.015625 C 2.859375 -12.597656 2.820312 -13.046875 2.75 -13.359375 C 2.664062 -13.671875 2.46875 -13.90625 2.15625 -14.0625 C 1.851562 -14.21875 1.441406 -14.363281 0.921875 -14.5 C 0.660156 -14.570312 0.457031 -14.628906 0.3125 -14.671875 L 0.34375 -15.28125 L 8.078125 -15.28125 Z M 8.109375 -14.671875 "/></g></g></g><g fill="#f9f9fa" fill-opacity="1"><g transform="translate(239.608292, 364.827064)"><g><path d="M 3.28125 -12.09375 C 3.28125 -12.6875 3.226562 -13.125 3.125 -13.40625 C 3.03125 -13.6875 2.894531 -13.878906 2.71875 -13.984375 C 2.550781 -14.097656 2.269531 -14.207031 1.875 -14.3125 C 1.488281 -14.425781 1.132812 -14.546875 0.8125 -14.671875 L 0.828125 -15.28125 L 6.65625 -15.28125 C 8.125 -15.28125 9.410156 -15.195312 10.515625 -15.03125 C 11.617188 -14.875 12.578125 -14.484375 13.390625 -13.859375 C 14.210938 -13.242188 14.625 -12.296875 14.625 -11.015625 C 14.625 -10.003906 14.378906 -9.148438 13.890625 -8.453125 C 13.410156 -7.765625 12.757812 -7.253906 11.9375 -6.921875 C 11.125 -6.597656 10.21875 -6.4375 9.21875 -6.4375 C 9.039062 -6.4375 8.75 -6.46875 8.34375 -6.53125 C 7.945312 -6.59375 7.585938 -6.679688 7.265625 -6.796875 C 6.941406 -6.910156 6.78125 -7.046875 6.78125 -7.203125 C 6.78125 -7.347656 6.953125 -7.421875 7.296875 -7.421875 L 7.46875 -7.421875 C 8.414062 -7.421875 9.203125 -7.503906 9.828125 -7.671875 C 10.460938 -7.835938 10.960938 -8.171875 11.328125 -8.671875 C 11.703125 -9.179688 11.890625 -9.910156 11.890625 -10.859375 C 11.890625 -11.722656 11.648438 -12.421875 11.171875 -12.953125 C 10.703125 -13.492188 10.09375 -13.878906 9.34375 -14.109375 C 8.601562 -14.335938 7.804688 -14.453125 6.953125 -14.453125 C 6.609375 -14.453125 6.226562 -14.429688 5.8125 -14.390625 L 5.8125 -3.234375 C 5.8125 -2.566406 5.851562 -2.082031 5.9375 -1.78125 C 6.03125 -1.488281 6.160156 -1.296875 6.328125 -1.203125 C 6.492188 -1.109375 6.765625 -1.03125 7.140625 -0.96875 C 7.640625 -0.875 8.085938 -0.753906 8.484375 -0.609375 L 8.453125 0 L 0.828125 0 L 0.796875 -0.609375 L 1.171875 -0.71875 C 1.628906 -0.84375 2 -0.960938 2.28125 -1.078125 C 2.5625 -1.203125 2.796875 -1.382812 2.984375 -1.625 C 3.179688 -1.875 3.28125 -2.203125 3.28125 -2.609375 Z M 3.28125 -12.09375 "/></g></g></g></svg>