<svg xmlns="http://www.w3.org/2000/svg" xmlns:xlink="http://www.w3.org/1999/xlink" width="500" zoomAndPan="magnify" viewBox="0 0 375 374.999991" height="500" preserveAspectRatio="xMidYMid meet" version="1.0"><defs><g/><clipPath id="8f9b63834f"><path d="M 154 80.660156 L 221 80.660156 L 221 137 L 154 137 Z M 154 80.660156 " clip-rule="nonzero"/></clipPath><clipPath id="1fff7295e8"><path d="M 154 174 L 221 174 L 221 230.660156 L 154 230.660156 Z M 154 174 " clip-rule="nonzero"/></clipPath><clipPath id="34afcc3614"><path d="M 206 122 L 262.5 122 L 262.5 189 L 206 189 Z M 206 122 " clip-rule="nonzero"/></clipPath><clipPath id="dda428390e"><path d="M 112.5 122 L 169 122 L 169 189 L 112.5 189 Z M 112.5 122 " clip-rule="nonzero"/></clipPath></defs><g clip-path="url(#8f9b63834f)"><path fill="#b6ccd7" d="M 196.300781 116.921875 L 187.507812 126.988281 L 163.039062 98.980469 L 171.71875 87.242188 L 203.296875 87.242188 L 211.976562 98.980469 L 207.960938 103.574219 C 210.09375 104.417969 212.164062 105.386719 214.15625 106.472656 L 220.40625 99.320312 L 206.609375 80.667969 L 168.402344 80.667969 L 154.609375 99.320312 L 187.507812 136.980469 L 203.101562 119.128906 C 200.925781 118.195312 198.652344 117.457031 196.300781 116.921875 " fill-opacity="1" fill-rule="nonzero"/></g><g clip-path="url(#1fff7295e8)"><path fill="#b6ccd7" d="M 187.507812 174.359375 L 171.910156 192.210938 C 174.085938 193.140625 176.363281 193.878906 178.714844 194.414062 L 187.507812 184.347656 L 211.976562 212.359375 L 203.296875 224.097656 L 171.71875 224.097656 L 163.039062 212.359375 L 167.050781 207.765625 C 164.917969 206.925781 162.847656 205.957031 160.851562 204.871094 L 154.609375 212.015625 L 168.402344 230.667969 L 206.609375 230.667969 L 220.40625 212.015625 L 187.507812 174.359375 " fill-opacity="1" fill-rule="nonzero"/></g><path fill="#6abf2f" d="M 199.742188 205.480469 L 194.550781 199.535156 C 192.257812 199.902344 189.90625 200.09375 187.507812 200.09375 C 171.421875 200.09375 157.332031 191.542969 149.535156 178.738281 L 144.300781 183.308594 C 153.417969 197.53125 169.363281 206.953125 187.507812 206.953125 C 191.726562 206.953125 195.820312 206.441406 199.742188 205.480469 " fill-opacity="1" fill-rule="nonzero"/><path fill="#6abf2f" d="M 225.480469 132.597656 L 230.710938 128.027344 C 221.597656 113.808594 205.652344 104.382812 187.507812 104.382812 C 183.289062 104.382812 179.191406 104.898438 175.269531 105.855469 L 180.464844 111.800781 C 182.757812 111.433594 185.109375 111.242188 187.507812 111.242188 C 203.59375 111.242188 217.683594 119.792969 225.480469 132.597656 " fill-opacity="1" fill-rule="nonzero"/><g clip-path="url(#34afcc3614)"><path fill="#b6ccd7" d="M 226.253906 164.464844 L 216.1875 155.667969 L 244.195312 131.199219 L 255.933594 139.878906 L 255.933594 171.457031 L 244.195312 180.140625 L 239.597656 176.125 C 238.757812 178.253906 237.789062 180.324219 236.703125 182.320312 L 243.855469 188.566406 L 262.507812 174.773438 L 262.507812 136.566406 L 243.855469 122.769531 L 206.195312 155.667969 L 224.046875 171.261719 C 224.980469 169.089844 225.71875 166.816406 226.253906 164.464844 " fill-opacity="1" fill-rule="nonzero"/></g><g clip-path="url(#dda428390e)"><path fill="#b6ccd7" d="M 168.816406 155.667969 L 150.964844 140.074219 C 150.035156 142.246094 149.296875 144.523438 148.761719 146.875 L 158.828125 155.667969 L 130.816406 180.140625 L 119.078125 171.457031 L 119.078125 139.878906 L 130.816406 131.199219 L 135.410156 135.210938 C 136.25 133.078125 137.21875 131.007812 138.304688 129.011719 L 131.160156 122.769531 L 112.507812 136.566406 L 112.507812 174.773438 L 131.160156 188.566406 L 168.816406 155.667969 " fill-opacity="1" fill-rule="nonzero"/></g><path fill="#6abf2f" d="M 137.695312 167.90625 L 143.636719 162.710938 C 143.273438 160.417969 143.082031 158.066406 143.082031 155.667969 C 143.082031 139.582031 151.632812 125.492188 164.433594 117.695312 L 159.863281 112.464844 C 145.644531 121.578125 136.222656 137.523438 136.222656 155.667969 C 136.222656 159.886719 136.734375 163.984375 137.695312 167.90625 " fill-opacity="1" fill-rule="nonzero"/><path fill="#6abf2f" d="M 210.578125 193.640625 L 215.148438 198.875 C 229.367188 189.757812 238.789062 173.8125 238.789062 155.667969 C 238.789062 151.449219 238.277344 147.355469 237.316406 143.433594 L 231.375 148.625 C 231.742188 150.917969 231.933594 153.273438 231.933594 155.667969 C 231.933594 171.753906 223.382812 185.847656 210.578125 193.640625 " fill-opacity="1" fill-rule="nonzero"/><g fill="#f9f9fa" fill-opacity="1"><g transform="translate(99.135305, 282.629542)"><g><path d="M 4.140625 -14.296875 C 4.140625 -14.859375 4.09375 -15.429688 4 -16.015625 C 3.9375 -16.296875 3.789062 -16.53125 3.5625 -16.71875 C 3.34375 -16.90625 3.085938 -17.050781 2.796875 -17.15625 C 2.503906 -17.257812 2.132812 -17.375 1.6875 -17.5 C 1.34375 -17.59375 1.101562 -17.664062 0.96875 -17.71875 L 0.984375 -18.4375 L 9.375 -18.4375 C 11.738281 -18.4375 13.816406 -18.128906 15.609375 -17.515625 C 17.398438 -16.898438 18.8125 -15.914062 19.84375 -14.5625 C 20.882812 -13.207031 21.40625 -11.457031 21.40625 -9.3125 C 21.40625 -7.675781 21.007812 -6.144531 20.21875 -4.71875 C 19.4375 -3.300781 18.273438 -2.160156 16.734375 -1.296875 C 15.191406 -0.429688 13.335938 0 11.171875 0 L 0.984375 0 L 0.96875 -0.734375 L 1.71875 -0.9375 C 2.238281 -1.0625 2.660156 -1.179688 2.984375 -1.296875 C 3.304688 -1.421875 3.578125 -1.625 3.796875 -1.90625 C 4.023438 -2.195312 4.140625 -2.59375 4.140625 -3.09375 Z M 7.171875 -3.84375 C 7.171875 -3.019531 7.328125 -2.367188 7.640625 -1.890625 C 7.960938 -1.421875 8.507812 -1.171875 9.28125 -1.140625 C 9.800781 -1.109375 10.34375 -1.09375 10.90625 -1.09375 C 12.445312 -1.09375 13.753906 -1.453125 14.828125 -2.171875 C 15.910156 -2.890625 16.71875 -3.828125 17.25 -4.984375 C 17.78125 -6.140625 18.046875 -7.351562 18.046875 -8.625 C 18.046875 -10.3125 17.742188 -11.804688 17.140625 -13.109375 C 16.535156 -14.421875 15.597656 -15.453125 14.328125 -16.203125 C 13.054688 -16.960938 11.46875 -17.34375 9.5625 -17.34375 L 7.171875 -17.34375 Z M 7.171875 -3.84375 "/></g></g></g><g fill="#f9f9fa" fill-opacity="1"><g transform="translate(123.205058, 282.629542)"><g><path d="M 7.203125 -3.6875 C 7.203125 -2.96875 7.265625 -2.4375 7.390625 -2.09375 C 7.523438 -1.757812 7.703125 -1.535156 7.921875 -1.421875 C 8.140625 -1.304688 8.492188 -1.207031 8.984375 -1.125 C 9.535156 -1.03125 10.03125 -0.90625 10.46875 -0.75 L 10.4375 0 L 1.015625 0 L 1.015625 -0.734375 C 1.296875 -0.859375 1.546875 -0.945312 1.765625 -1 C 1.984375 -1.050781 2.265625 -1.101562 2.609375 -1.15625 C 3.035156 -1.21875 3.347656 -1.300781 3.546875 -1.40625 C 3.742188 -1.519531 3.894531 -1.765625 4 -2.140625 C 4.101562 -2.515625 4.15625 -3.113281 4.15625 -3.9375 L 4.15625 -14.578125 C 4.15625 -15.359375 4.085938 -15.929688 3.953125 -16.296875 C 3.828125 -16.660156 3.65625 -16.894531 3.4375 -17 C 3.226562 -17.101562 2.914062 -17.1875 2.5 -17.25 C 2.164062 -17.300781 1.882812 -17.351562 1.65625 -17.40625 C 1.4375 -17.46875 1.207031 -17.570312 0.96875 -17.71875 L 0.984375 -18.4375 L 10.375 -18.4375 L 10.40625 -17.703125 C 10.207031 -17.628906 9.925781 -17.546875 9.5625 -17.453125 C 9.039062 -17.328125 8.625 -17.195312 8.3125 -17.0625 C 8 -16.925781 7.734375 -16.71875 7.515625 -16.4375 C 7.304688 -16.164062 7.203125 -15.789062 7.203125 -15.3125 Z M 7.203125 -3.6875 "/></g></g></g><g fill="#f9f9fa" fill-opacity="1"><g transform="translate(135.992207, 282.629542)"><g><path d="M 5.609375 -7.53125 L 5.34375 -6.859375 C 4.914062 -5.753906 4.578125 -4.84375 4.328125 -4.125 C 4.085938 -3.414062 3.96875 -2.867188 3.96875 -2.484375 C 3.96875 -2.140625 4.09375 -1.859375 4.34375 -1.640625 C 4.59375 -1.421875 4.878906 -1.257812 5.203125 -1.15625 C 5.523438 -1.050781 5.925781 -0.953125 6.40625 -0.859375 L 6.671875 -0.8125 L 6.671875 0 L -0.015625 0 L -0.015625 -0.734375 C 0.117188 -0.835938 0.253906 -0.925781 0.390625 -1 C 0.523438 -1.070312 0.695312 -1.148438 0.90625 -1.234375 C 1.238281 -1.367188 1.503906 -1.503906 1.703125 -1.640625 C 1.910156 -1.785156 2.09375 -2.007812 2.25 -2.3125 C 2.34375 -2.5 2.4375 -2.710938 2.53125 -2.953125 C 2.632812 -3.191406 2.703125 -3.347656 2.734375 -3.421875 L 2.90625 -3.859375 L 8.203125 -17.4375 C 8.234375 -17.539062 8.257812 -17.71875 8.28125 -17.96875 C 8.289062 -18.15625 8.304688 -18.304688 8.328125 -18.421875 C 8.359375 -18.546875 8.40625 -18.65625 8.46875 -18.75 C 8.925781 -18.75 9.320312 -18.703125 9.65625 -18.609375 C 10 -18.515625 10.335938 -18.335938 10.671875 -18.078125 L 17.171875 -2.5 C 17.296875 -2.195312 17.4375 -1.957031 17.59375 -1.78125 C 17.757812 -1.613281 17.925781 -1.484375 18.09375 -1.390625 C 18.269531 -1.304688 18.507812 -1.203125 18.8125 -1.078125 C 19.070312 -0.992188 19.34375 -0.878906 19.625 -0.734375 L 19.59375 0 L 11.359375 0 L 11.328125 -0.734375 C 11.773438 -0.867188 12.15625 -1 12.46875 -1.125 C 12.78125 -1.257812 13.0625 -1.445312 13.3125 -1.6875 C 13.570312 -1.925781 13.703125 -2.210938 13.703125 -2.546875 C 13.703125 -2.921875 13.234375 -4.320312 12.296875 -6.75 C 12.234375 -6.894531 12.175781 -7.03125 12.125 -7.15625 C 12.070312 -7.289062 12.03125 -7.414062 12 -7.53125 Z M 8.6875 -15.75 L 6.09375 -8.78125 L 11.46875 -8.78125 Z M 8.6875 -15.75 "/></g></g></g><g fill="#f9f9fa" fill-opacity="1"><g transform="translate(156.834317, 282.629542)"><g><path d="M 23.765625 -3.84375 C 23.847656 -2.875 24.109375 -2.144531 24.546875 -1.65625 C 24.628906 -1.4375 24.773438 -1.285156 24.984375 -1.203125 C 25.203125 -1.128906 25.503906 -1.066406 25.890625 -1.015625 C 26.171875 -0.984375 26.378906 -0.945312 26.515625 -0.90625 C 26.660156 -0.875 26.785156 -0.816406 26.890625 -0.734375 L 26.859375 0 L 18.046875 0 L 18.015625 -0.734375 L 18.453125 -0.875 C 18.953125 -1.039062 19.351562 -1.191406 19.65625 -1.328125 C 19.957031 -1.460938 20.21875 -1.664062 20.4375 -1.9375 C 20.65625 -2.207031 20.765625 -2.554688 20.765625 -2.984375 L 19.875 -15.125 L 14.46875 -2.90625 C 14.132812 -2.15625 13.789062 -1.1875 13.4375 0 L 12.3125 0 C 11.925781 -0.863281 11.28125 -2.21875 10.375 -4.0625 C 9.1875 -6.539062 8.238281 -8.546875 7.53125 -10.078125 C 6.820312 -11.609375 6.175781 -13.109375 5.59375 -14.578125 C 5.53125 -13.773438 5.410156 -12.625 5.234375 -11.125 C 5.046875 -9.394531 4.90625 -7.941406 4.8125 -6.765625 C 4.71875 -5.597656 4.671875 -4.4375 4.671875 -3.28125 C 4.671875 -2.769531 4.765625 -2.363281 4.953125 -2.0625 C 5.140625 -1.769531 5.378906 -1.546875 5.671875 -1.390625 C 5.960938 -1.242188 6.363281 -1.082031 6.875 -0.90625 L 7.375 -0.734375 L 7.34375 0 L 0.5 0 L 0.46875 -0.734375 C 0.539062 -0.765625 0.789062 -0.851562 1.21875 -1 C 1.664062 -1.15625 2.019531 -1.300781 2.28125 -1.4375 C 2.550781 -1.570312 2.78125 -1.769531 2.96875 -2.03125 C 3.164062 -2.300781 3.289062 -2.660156 3.34375 -3.109375 L 4.421875 -13.703125 C 4.484375 -14.390625 4.515625 -14.992188 4.515625 -15.515625 C 4.515625 -15.910156 4.441406 -16.226562 4.296875 -16.46875 C 4.148438 -16.707031 3.960938 -16.878906 3.734375 -16.984375 C 3.515625 -17.097656 3.210938 -17.21875 2.828125 -17.34375 C 2.429688 -17.46875 2.117188 -17.59375 1.890625 -17.71875 L 1.921875 -18.4375 L 7.4375 -18.4375 C 7.613281 -17.675781 7.796875 -16.988281 7.984375 -16.375 C 8.179688 -15.769531 8.410156 -15.191406 8.671875 -14.640625 L 13.765625 -3.78125 L 18.8125 -15.3125 C 19.0625 -15.863281 19.238281 -16.410156 19.34375 -16.953125 C 19.445312 -17.492188 19.5 -17.988281 19.5 -18.4375 L 25.359375 -18.4375 L 25.359375 -17.703125 L 25.109375 -17.609375 C 24.578125 -17.429688 24.15625 -17.265625 23.84375 -17.109375 C 23.539062 -16.960938 23.28125 -16.742188 23.0625 -16.453125 C 22.84375 -16.160156 22.734375 -15.785156 22.734375 -15.328125 Z M 23.765625 -3.84375 "/></g></g></g><g fill="#f9f9fa" fill-opacity="1"><g transform="translate(185.448253, 282.629542)"><g><path d="M 11.390625 -18.796875 C 13.160156 -18.796875 14.785156 -18.394531 16.265625 -17.59375 C 17.753906 -16.800781 18.929688 -15.675781 19.796875 -14.21875 C 20.671875 -12.757812 21.109375 -11.078125 21.109375 -9.171875 C 21.109375 -7.304688 20.65625 -5.648438 19.75 -4.203125 C 18.851562 -2.753906 17.640625 -1.628906 16.109375 -0.828125 C 14.585938 -0.0234375 12.921875 0.375 11.109375 0.375 C 9.429688 0.375 7.863281 -0.00390625 6.40625 -0.765625 C 4.957031 -1.535156 3.789062 -2.632812 2.90625 -4.0625 C 2.03125 -5.488281 1.59375 -7.140625 1.59375 -9.015625 C 1.59375 -11.085938 2.054688 -12.859375 2.984375 -14.328125 C 3.910156 -15.804688 5.117188 -16.921875 6.609375 -17.671875 C 8.109375 -18.421875 9.703125 -18.796875 11.390625 -18.796875 Z M 11.859375 -0.71875 C 12.984375 -0.71875 14 -1.019531 14.90625 -1.625 C 15.8125 -2.226562 16.519531 -3.101562 17.03125 -4.25 C 17.550781 -5.394531 17.8125 -6.738281 17.8125 -8.28125 C 17.8125 -10.039062 17.519531 -11.632812 16.9375 -13.0625 C 16.351562 -14.488281 15.535156 -15.617188 14.484375 -16.453125 C 13.429688 -17.285156 12.234375 -17.703125 10.890625 -17.703125 C 9.785156 -17.703125 8.773438 -17.414062 7.859375 -16.84375 C 6.953125 -16.269531 6.226562 -15.414062 5.6875 -14.28125 C 5.15625 -13.15625 4.890625 -11.796875 4.890625 -10.203125 C 4.890625 -8.421875 5.1875 -6.804688 5.78125 -5.359375 C 6.375 -3.921875 7.203125 -2.785156 8.265625 -1.953125 C 9.328125 -1.128906 10.523438 -0.71875 11.859375 -0.71875 Z M 11.859375 -0.71875 "/></g></g></g><g fill="#f9f9fa" fill-opacity="1"><g transform="translate(209.503847, 282.629542)"><g><path d="M 4.578125 -15.453125 C 4.328125 -15.847656 4.066406 -16.160156 3.796875 -16.390625 C 3.535156 -16.628906 3.273438 -16.8125 3.015625 -16.9375 C 2.753906 -17.0625 2.398438 -17.195312 1.953125 -17.34375 C 1.523438 -17.488281 1.195312 -17.609375 0.96875 -17.703125 L 0.96875 -18.4375 L 5.90625 -18.4375 L 19.234375 -4.65625 L 19.234375 -13.5625 C 19.234375 -14.457031 19.101562 -15.273438 18.84375 -16.015625 C 18.738281 -16.316406 18.597656 -16.550781 18.421875 -16.71875 C 18.242188 -16.894531 18.050781 -17.019531 17.84375 -17.09375 C 17.632812 -17.164062 17.351562 -17.242188 17 -17.328125 C 16.945312 -17.347656 16.804688 -17.390625 16.578125 -17.453125 C 16.347656 -17.515625 16.132812 -17.59375 15.9375 -17.6875 C 15.9375 -17.925781 15.953125 -18.175781 15.984375 -18.4375 L 23.453125 -18.4375 L 23.453125 -17.671875 C 23.179688 -17.546875 22.90625 -17.425781 22.625 -17.3125 C 21.9375 -17.007812 21.457031 -16.757812 21.1875 -16.5625 C 20.925781 -16.363281 20.738281 -16.054688 20.625 -15.640625 C 20.519531 -15.222656 20.46875 -14.535156 20.46875 -13.578125 C 20.46875 -13.097656 20.457031 -12.382812 20.4375 -11.4375 C 20.425781 -10.71875 20.414062 -9.820312 20.40625 -8.75 C 20.394531 -7.6875 20.390625 -6.4375 20.390625 -5 C 20.390625 -4.375 20.445312 -3.445312 20.5625 -2.21875 C 20.65625 -1.1875 20.707031 -0.40625 20.71875 0.125 C 20.539062 0.195312 20.304688 0.234375 20.015625 0.234375 C 19.710938 0.234375 19.445312 0.195312 19.21875 0.125 C 18.539062 -0.707031 17.765625 -1.585938 16.890625 -2.515625 L 5.703125 -14.28125 L 5.703125 -4.34375 C 5.703125 -3.71875 5.785156 -3.082031 5.953125 -2.4375 C 6.023438 -2.113281 6.160156 -1.863281 6.359375 -1.6875 C 6.554688 -1.519531 6.769531 -1.394531 7 -1.3125 C 7.226562 -1.238281 7.539062 -1.164062 7.9375 -1.09375 C 8.488281 -1.007812 8.894531 -0.894531 9.15625 -0.75 C 9.15625 -0.5 9.144531 -0.25 9.125 0 L 1.140625 0 C 1.117188 -0.164062 1.109375 -0.421875 1.109375 -0.765625 L 1.75 -0.9375 C 2.351562 -1.082031 2.832031 -1.226562 3.1875 -1.375 C 3.539062 -1.519531 3.847656 -1.75 4.109375 -2.0625 C 4.367188 -2.382812 4.523438 -2.828125 4.578125 -3.390625 Z M 4.578125 -15.453125 "/></g></g></g><g fill="#f9f9fa" fill-opacity="1"><g transform="translate(235.272358, 282.629542)"><g><path d="M 4.140625 -14.296875 C 4.140625 -14.859375 4.09375 -15.429688 4 -16.015625 C 3.9375 -16.296875 3.789062 -16.53125 3.5625 -16.71875 C 3.34375 -16.90625 3.085938 -17.050781 2.796875 -17.15625 C 2.503906 -17.257812 2.132812 -17.375 1.6875 -17.5 C 1.34375 -17.59375 1.101562 -17.664062 0.96875 -17.71875 L 0.984375 -18.4375 L 9.375 -18.4375 C 11.738281 -18.4375 13.816406 -18.128906 15.609375 -17.515625 C 17.398438 -16.898438 18.8125 -15.914062 19.84375 -14.5625 C 20.882812 -13.207031 21.40625 -11.457031 21.40625 -9.3125 C 21.40625 -7.675781 21.007812 -6.144531 20.21875 -4.71875 C 19.4375 -3.300781 18.273438 -2.160156 16.734375 -1.296875 C 15.191406 -0.429688 13.335938 0 11.171875 0 L 0.984375 0 L 0.96875 -0.734375 L 1.71875 -0.9375 C 2.238281 -1.0625 2.660156 -1.179688 2.984375 -1.296875 C 3.304688 -1.421875 3.578125 -1.625 3.796875 -1.90625 C 4.023438 -2.195312 4.140625 -2.59375 4.140625 -3.09375 Z M 7.171875 -3.84375 C 7.171875 -3.019531 7.328125 -2.367188 7.640625 -1.890625 C 7.960938 -1.421875 8.507812 -1.171875 9.28125 -1.140625 C 9.800781 -1.109375 10.34375 -1.09375 10.90625 -1.09375 C 12.445312 -1.09375 13.753906 -1.453125 14.828125 -2.171875 C 15.910156 -2.890625 16.71875 -3.828125 17.25 -4.984375 C 17.78125 -6.140625 18.046875 -7.351562 18.046875 -8.625 C 18.046875 -10.3125 17.742188 -11.804688 17.140625 -13.109375 C 16.535156 -14.421875 15.597656 -15.453125 14.328125 -16.203125 C 13.054688 -16.960938 11.46875 -17.34375 9.5625 -17.34375 L 7.171875 -17.34375 Z M 7.171875 -3.84375 "/></g></g></g><g fill="#f9f9fa" fill-opacity="1"><g transform="translate(259.342108, 282.629542)"><g><path d="M 2.78125 -5.6875 C 2.875 -5.53125 2.945312 -5.363281 3 -5.1875 C 3.0625 -5.019531 3.132812 -4.800781 3.21875 -4.53125 C 3.25 -4.4375 3.28125 -4.328125 3.3125 -4.203125 C 3.644531 -3.117188 4.269531 -2.285156 5.1875 -1.703125 C 6.113281 -1.117188 7.175781 -0.828125 8.375 -0.828125 C 8.988281 -0.828125 9.59375 -0.9375 10.1875 -1.15625 C 10.78125 -1.375 11.265625 -1.707031 11.640625 -2.15625 C 12.023438 -2.601562 12.21875 -3.148438 12.21875 -3.796875 C 12.21875 -4.347656 12.019531 -4.863281 11.625 -5.34375 C 11.238281 -5.832031 10.753906 -6.265625 10.171875 -6.640625 C 9.585938 -7.023438 8.789062 -7.503906 7.78125 -8.078125 C 6.570312 -8.734375 5.59375 -9.316406 4.84375 -9.828125 C 4.101562 -10.335938 3.472656 -10.941406 2.953125 -11.640625 C 2.441406 -12.347656 2.1875 -13.144531 2.1875 -14.03125 C 2.1875 -15.125 2.492188 -16.023438 3.109375 -16.734375 C 3.722656 -17.453125 4.515625 -17.972656 5.484375 -18.296875 C 6.453125 -18.628906 7.472656 -18.796875 8.546875 -18.796875 C 9.472656 -18.796875 10.394531 -18.679688 11.3125 -18.453125 C 12.238281 -18.222656 13.117188 -17.894531 13.953125 -17.46875 L 14.125 -13.4375 L 13.25 -13.4375 C 13.132812 -13.65625 13.003906 -14 12.859375 -14.46875 L 12.71875 -14.875 C 12.394531 -15.800781 11.835938 -16.503906 11.046875 -16.984375 C 10.265625 -17.460938 9.359375 -17.703125 8.328125 -17.703125 C 7.796875 -17.703125 7.257812 -17.609375 6.71875 -17.421875 C 6.1875 -17.242188 5.738281 -16.96875 5.375 -16.59375 C 5.007812 -16.226562 4.828125 -15.769531 4.828125 -15.21875 C 4.828125 -14.707031 5.015625 -14.226562 5.390625 -13.78125 C 5.773438 -13.34375 6.242188 -12.941406 6.796875 -12.578125 C 7.347656 -12.210938 8.117188 -11.757812 9.109375 -11.21875 C 10.359375 -10.519531 11.375 -9.898438 12.15625 -9.359375 C 12.9375 -8.828125 13.601562 -8.179688 14.15625 -7.421875 C 14.707031 -6.671875 14.984375 -5.820312 14.984375 -4.875 C 14.984375 -3.6875 14.65625 -2.695312 14 -1.90625 C 13.351562 -1.125 12.507812 -0.546875 11.46875 -0.171875 C 10.4375 0.191406 9.34375 0.375 8.1875 0.375 C 7.144531 0.375 6.023438 0.242188 4.828125 -0.015625 C 3.640625 -0.273438 2.675781 -0.632812 1.9375 -1.09375 L 1.9375 -5.671875 Z M 2.78125 -5.6875 "/></g></g></g><g fill="#f9f9fa" fill-opacity="1"><g transform="translate(141.129503, 305.825956)"><g><path d="M 11.1875 -0.765625 C 10.625 -0.472656 9.972656 -0.238281 9.234375 -0.0625 C 8.503906 0.113281 7.765625 0.203125 7.015625 0.203125 C 5.804688 0.203125 4.738281 -0.015625 3.8125 -0.453125 C 2.882812 -0.898438 2.164062 -1.523438 1.65625 -2.328125 C 1.15625 -3.140625 0.90625 -4.082031 0.90625 -5.15625 C 0.90625 -6.238281 1.191406 -7.203125 1.765625 -8.046875 C 2.347656 -8.898438 3.128906 -9.554688 4.109375 -10.015625 C 5.085938 -10.484375 6.160156 -10.71875 7.328125 -10.71875 C 7.960938 -10.71875 8.539062 -10.664062 9.0625 -10.5625 C 9.59375 -10.46875 10.191406 -10.300781 10.859375 -10.0625 L 11.109375 -7.625 C 10.941406 -7.613281 10.785156 -7.609375 10.640625 -7.609375 C 10.566406 -7.671875 10.5 -7.75 10.4375 -7.84375 C 10.375 -7.945312 10.285156 -8.101562 10.171875 -8.3125 C 10.117188 -8.414062 10.0625 -8.519531 10 -8.625 C 9.945312 -8.738281 9.894531 -8.820312 9.84375 -8.875 C 9.164062 -9.6875 8.253906 -10.09375 7.109375 -10.09375 C 6.296875 -10.09375 5.5625 -9.890625 4.90625 -9.484375 C 4.257812 -9.078125 3.75 -8.519531 3.375 -7.8125 C 3.007812 -7.101562 2.828125 -6.316406 2.828125 -5.453125 C 2.828125 -4.503906 3.007812 -3.65625 3.375 -2.90625 C 3.738281 -2.15625 4.25 -1.566406 4.90625 -1.140625 C 5.5625 -0.710938 6.3125 -0.5 7.15625 -0.5 C 7.601562 -0.5 8 -0.535156 8.34375 -0.609375 C 8.6875 -0.691406 9.007812 -0.832031 9.3125 -1.03125 C 9.375 -1.570312 9.40625 -2.253906 9.40625 -3.078125 C 9.40625 -3.585938 9.332031 -4.050781 9.1875 -4.46875 C 9.125 -4.632812 9.007812 -4.75 8.84375 -4.8125 C 8.6875 -4.882812 8.46875 -4.941406 8.1875 -4.984375 C 7.9375 -5.023438 7.765625 -5.0625 7.671875 -5.09375 C 7.671875 -5.175781 7.671875 -5.257812 7.671875 -5.34375 C 7.679688 -5.425781 7.6875 -5.484375 7.6875 -5.515625 L 12.53125 -5.515625 C 12.53125 -5.484375 12.53125 -5.425781 12.53125 -5.34375 C 12.539062 -5.257812 12.546875 -5.175781 12.546875 -5.09375 C 12.472656 -5.070312 12.394531 -5.046875 12.3125 -5.015625 C 12.050781 -4.929688 11.847656 -4.847656 11.703125 -4.765625 C 11.554688 -4.679688 11.429688 -4.554688 11.328125 -4.390625 C 11.234375 -4.234375 11.1875 -4.015625 11.1875 -3.734375 Z M 11.1875 -0.765625 "/></g></g></g><g fill="#f9f9fa" fill-opacity="1"><g transform="translate(161.782119, 305.825956)"><g><path d="M 5.609375 -4.375 C 5.484375 -4.570312 5.375 -4.710938 5.28125 -4.796875 C 5.195312 -4.890625 5.09375 -4.957031 4.96875 -5 C 4.84375 -5.050781 4.671875 -5.082031 4.453125 -5.09375 L 3.953125 -5.140625 L 3.953125 -2.03125 C 3.953125 -1.632812 3.984375 -1.34375 4.046875 -1.15625 C 4.117188 -0.976562 4.210938 -0.859375 4.328125 -0.796875 C 4.441406 -0.742188 4.613281 -0.695312 4.84375 -0.65625 C 5.007812 -0.632812 5.15625 -0.609375 5.28125 -0.578125 C 5.414062 -0.546875 5.550781 -0.492188 5.6875 -0.421875 L 5.671875 0 L 0.5625 0 L 0.546875 -0.421875 C 0.691406 -0.503906 0.828125 -0.5625 0.953125 -0.59375 C 1.078125 -0.625 1.222656 -0.65625 1.390625 -0.6875 C 1.609375 -0.71875 1.769531 -0.765625 1.875 -0.828125 C 1.976562 -0.890625 2.0625 -1.023438 2.125 -1.234375 C 2.1875 -1.441406 2.21875 -1.773438 2.21875 -2.234375 L 2.21875 -8.359375 C 2.21875 -8.734375 2.179688 -9.015625 2.109375 -9.203125 C 2.046875 -9.398438 1.953125 -9.535156 1.828125 -9.609375 C 1.710938 -9.679688 1.523438 -9.757812 1.265625 -9.84375 C 0.992188 -9.914062 0.753906 -10 0.546875 -10.09375 L 0.5625 -10.515625 L 4.28125 -10.515625 C 5.289062 -10.515625 6.171875 -10.46875 6.921875 -10.375 C 7.679688 -10.28125 8.359375 -10.035156 8.953125 -9.640625 C 9.546875 -9.253906 9.84375 -8.648438 9.84375 -7.828125 C 9.84375 -7.328125 9.695312 -6.890625 9.40625 -6.515625 C 9.125 -6.148438 8.757812 -5.859375 8.3125 -5.640625 C 7.875 -5.429688 7.40625 -5.289062 6.90625 -5.21875 C 6.96875 -5.132812 7.285156 -4.6875 7.859375 -3.875 C 8.285156 -3.28125 8.644531 -2.78125 8.9375 -2.375 C 9.238281 -1.96875 9.539062 -1.585938 9.84375 -1.234375 C 10.019531 -1.046875 10.175781 -0.894531 10.3125 -0.78125 C 10.457031 -0.675781 10.632812 -0.59375 10.84375 -0.53125 C 11.050781 -0.46875 11.3125 -0.4375 11.625 -0.4375 L 11.625 0.015625 C 11.09375 0.140625 10.625 0.203125 10.21875 0.203125 C 9.644531 0.203125 9.117188 0.03125 8.640625 -0.3125 C 8.160156 -0.664062 7.75 -1.082031 7.40625 -1.5625 C 7.0625 -2.039062 6.664062 -2.648438 6.21875 -3.390625 C 5.945312 -3.835938 5.742188 -4.164062 5.609375 -4.375 Z M 4.34375 -5.671875 C 5.039062 -5.671875 5.640625 -5.710938 6.140625 -5.796875 C 6.640625 -5.878906 7.066406 -6.070312 7.421875 -6.375 C 7.773438 -6.675781 7.953125 -7.128906 7.953125 -7.734375 C 7.953125 -8.398438 7.757812 -8.890625 7.375 -9.203125 C 6.988281 -9.523438 6.535156 -9.722656 6.015625 -9.796875 C 5.503906 -9.867188 4.875 -9.90625 4.125 -9.90625 L 3.953125 -9.90625 L 3.953125 -5.671875 Z M 4.34375 -5.671875 "/></g></g></g><g fill="#f9f9fa" fill-opacity="1"><g transform="translate(181.313271, 305.825956)"><g><path d="M 6.484375 -10.71875 C 7.492188 -10.71875 8.421875 -10.488281 9.265625 -10.03125 C 10.117188 -9.582031 10.789062 -8.941406 11.28125 -8.109375 C 11.78125 -7.273438 12.03125 -6.316406 12.03125 -5.234375 C 12.03125 -4.160156 11.773438 -3.210938 11.265625 -2.390625 C 10.753906 -1.566406 10.0625 -0.925781 9.1875 -0.46875 C 8.3125 -0.0195312 7.359375 0.203125 6.328125 0.203125 C 5.378906 0.203125 4.488281 -0.0078125 3.65625 -0.4375 C 2.820312 -0.875 2.15625 -1.5 1.65625 -2.3125 C 1.15625 -3.125 0.90625 -4.066406 0.90625 -5.140625 C 0.90625 -6.316406 1.171875 -7.320312 1.703125 -8.15625 C 2.234375 -9 2.921875 -9.632812 3.765625 -10.0625 C 4.617188 -10.5 5.523438 -10.71875 6.484375 -10.71875 Z M 6.75 -0.40625 C 7.394531 -0.40625 7.976562 -0.578125 8.5 -0.921875 C 9.019531 -1.265625 9.425781 -1.757812 9.71875 -2.40625 C 10.007812 -3.0625 10.15625 -3.832031 10.15625 -4.71875 C 10.15625 -5.71875 9.988281 -6.625 9.65625 -7.4375 C 9.320312 -8.257812 8.851562 -8.90625 8.25 -9.375 C 7.65625 -9.851562 6.972656 -10.09375 6.203125 -10.09375 C 5.578125 -10.09375 5.003906 -9.925781 4.484375 -9.59375 C 3.960938 -9.269531 3.546875 -8.785156 3.234375 -8.140625 C 2.929688 -7.492188 2.78125 -6.71875 2.78125 -5.8125 C 2.78125 -4.800781 2.945312 -3.882812 3.28125 -3.0625 C 3.625 -2.238281 4.097656 -1.585938 4.703125 -1.109375 C 5.316406 -0.640625 6 -0.40625 6.75 -0.40625 Z M 6.75 -0.40625 "/></g></g></g><g fill="#f9f9fa" fill-opacity="1"><g transform="translate(202.183728, 305.825956)"><g><path d="M 5.578125 -10.09375 C 5.359375 -10.007812 5.070312 -9.929688 4.71875 -9.859375 C 4.425781 -9.804688 4.21875 -9.742188 4.09375 -9.671875 C 3.96875 -9.597656 3.867188 -9.457031 3.796875 -9.25 C 3.734375 -9.039062 3.703125 -8.707031 3.703125 -8.25 L 3.703125 -4.8125 C 3.703125 -3.507812 3.960938 -2.488281 4.484375 -1.75 C 5.015625 -1.019531 5.910156 -0.65625 7.171875 -0.65625 C 9.472656 -0.65625 10.625 -2.085938 10.625 -4.953125 L 10.625 -8.125 C 10.625 -8.601562 10.585938 -8.953125 10.515625 -9.171875 C 10.453125 -9.390625 10.351562 -9.539062 10.21875 -9.625 C 10.082031 -9.707031 9.847656 -9.789062 9.515625 -9.875 C 9.203125 -9.957031 8.945312 -10.03125 8.75 -10.09375 L 8.75 -10.515625 L 13.09375 -10.515625 L 13.109375 -10.09375 C 13.035156 -10.050781 12.953125 -10.015625 12.859375 -9.984375 C 12.765625 -9.960938 12.640625 -9.9375 12.484375 -9.90625 C 12.273438 -9.875 12.109375 -9.835938 11.984375 -9.796875 C 11.859375 -9.765625 11.742188 -9.707031 11.640625 -9.625 C 11.535156 -9.539062 11.460938 -9.425781 11.421875 -9.28125 C 11.335938 -8.988281 11.296875 -8.644531 11.296875 -8.25 C 11.296875 -7.988281 11.300781 -7.578125 11.3125 -7.015625 C 11.320312 -6.460938 11.328125 -6.046875 11.328125 -5.765625 C 11.328125 -4.535156 11.21875 -3.5 11 -2.65625 C 10.789062 -1.8125 10.34375 -1.125 9.65625 -0.59375 C 8.96875 -0.0625 7.957031 0.203125 6.625 0.203125 C 5.851562 0.203125 5.132812 0.0820312 4.46875 -0.15625 C 3.800781 -0.40625 3.242188 -0.785156 2.796875 -1.296875 C 2.359375 -1.816406 2.101562 -2.460938 2.03125 -3.234375 C 1.957031 -3.796875 1.921875 -4.503906 1.921875 -5.359375 C 1.921875 -5.859375 1.929688 -6.347656 1.953125 -6.828125 C 1.960938 -7.472656 1.96875 -7.953125 1.96875 -8.265625 C 1.96875 -8.660156 1.941406 -8.96875 1.890625 -9.1875 C 1.835938 -9.40625 1.703125 -9.566406 1.484375 -9.671875 C 1.273438 -9.785156 0.988281 -9.890625 0.625 -9.984375 C 0.445312 -10.023438 0.304688 -10.0625 0.203125 -10.09375 L 0.234375 -10.515625 L 5.5625 -10.515625 Z M 5.578125 -10.09375 "/></g></g></g><g fill="#f9f9fa" fill-opacity="1"><g transform="translate(223.344631, 305.825956)"><g><path d="M 2.265625 -8.328125 C 2.265625 -8.722656 2.226562 -9.019531 2.15625 -9.21875 C 2.09375 -9.414062 2 -9.550781 1.875 -9.625 C 1.75 -9.695312 1.554688 -9.769531 1.296875 -9.84375 C 1.023438 -9.914062 0.78125 -10 0.5625 -10.09375 L 0.578125 -10.515625 L 4.578125 -10.515625 C 5.585938 -10.515625 6.472656 -10.457031 7.234375 -10.34375 C 7.992188 -10.226562 8.65625 -9.957031 9.21875 -9.53125 C 9.78125 -9.101562 10.0625 -8.453125 10.0625 -7.578125 C 10.0625 -6.878906 9.894531 -6.289062 9.5625 -5.8125 C 9.226562 -5.34375 8.78125 -4.992188 8.21875 -4.765625 C 7.65625 -4.535156 7.03125 -4.421875 6.34375 -4.421875 C 6.21875 -4.421875 6.015625 -4.441406 5.734375 -4.484375 C 5.460938 -4.523438 5.21875 -4.585938 5 -4.671875 C 4.78125 -4.753906 4.671875 -4.847656 4.671875 -4.953125 C 4.671875 -5.046875 4.785156 -5.09375 5.015625 -5.09375 L 5.140625 -5.09375 C 5.796875 -5.09375 6.335938 -5.148438 6.765625 -5.265625 C 7.203125 -5.390625 7.546875 -5.625 7.796875 -5.96875 C 8.054688 -6.3125 8.1875 -6.8125 8.1875 -7.46875 C 8.1875 -8.0625 8.019531 -8.539062 7.6875 -8.90625 C 7.363281 -9.28125 6.945312 -9.546875 6.4375 -9.703125 C 5.925781 -9.859375 5.375 -9.9375 4.78125 -9.9375 C 4.550781 -9.9375 4.289062 -9.925781 4 -9.90625 L 4 -2.21875 C 4 -1.757812 4.03125 -1.425781 4.09375 -1.21875 C 4.15625 -1.019531 4.238281 -0.882812 4.34375 -0.8125 C 4.457031 -0.75 4.644531 -0.695312 4.90625 -0.65625 C 5.257812 -0.601562 5.570312 -0.523438 5.84375 -0.421875 L 5.8125 0 L 0.578125 0 L 0.546875 -0.421875 L 0.8125 -0.5 C 1.125 -0.582031 1.375 -0.664062 1.5625 -0.75 C 1.757812 -0.832031 1.925781 -0.957031 2.0625 -1.125 C 2.195312 -1.289062 2.265625 -1.515625 2.265625 -1.796875 Z M 2.265625 -8.328125 "/></g></g></g></svg>