<svg xmlns="http://www.w3.org/2000/svg" xmlns:xlink="http://www.w3.org/1999/xlink" width="500" zoomAndPan="magnify" viewBox="0 0 375 374.999991" height="500" preserveAspectRatio="xMidYMid meet" version="1.0"><defs><clipPath id="87f3ea8e39"><path d="M 177 70.636719 L 190 70.636719 L 190 97 L 177 97 Z M 177 70.636719 " clip-rule="nonzero"/></clipPath><clipPath id="12b81bdc8c"><path d="M 175 70.636719 L 183 70.636719 L 183 78 L 175 78 Z M 175 70.636719 " clip-rule="nonzero"/></clipPath><clipPath id="fa324d28cd"><path d="M 159 70.636719 L 185 70.636719 L 185 92 L 159 92 Z M 159 70.636719 " clip-rule="nonzero"/></clipPath><clipPath id="e1391119e0"><path d="M 241 188 L 317.148438 188 L 317.148438 235 L 241 235 Z M 241 188 " clip-rule="nonzero"/></clipPath><clipPath id="caab49672e"><path d="M 241 189 L 317.148438 189 L 317.148438 234 L 241 234 Z M 241 189 " clip-rule="nonzero"/></clipPath><clipPath id="f3bef1db86"><path d="M 211 148 L 317.148438 148 L 317.148438 234 L 211 234 Z M 211 148 " clip-rule="nonzero"/></clipPath><clipPath id="d96c0e976b"><path d="M 57.648438 130 L 74 130 L 74 191 L 57.648438 191 Z M 57.648438 130 " clip-rule="nonzero"/></clipPath><clipPath id="9cbd9a85d7"><path d="M 111 291 L 134 291 L 134 304.636719 L 111 304.636719 Z M 111 291 " clip-rule="nonzero"/></clipPath></defs><path fill="#ba9a8c" d="M 176.914062 91.785156 L 176.914062 95.625 L 178.453125 99.171875 L 179.558594 103.863281 L 177.578125 110.472656 L 168.519531 113.480469 L 162.582031 111.265625 L 161.59375 97.070312 L 168.59375 90.742188 L 176.914062 91.785156 " fill-opacity="1" fill-rule="nonzero"/><path fill="#efefef" d="M 164.34375 101.628906 L 165.207031 106.320312 L 168.921875 111.128906 L 175.945312 106.378906 L 178.453125 99.171875 L 180.566406 102.601562 L 179.148438 111.128906 L 171.226562 121.773438 L 164.34375 121.773438 L 160.695312 107.179688 L 160.695312 101.910156 L 164.34375 101.628906 " fill-opacity="1" fill-rule="nonzero"/><path fill="#99928c" d="M 158.128906 100.546875 L 152.761719 101.234375 L 149.214844 107.070312 L 140.039062 136.511719 L 147.734375 139.007812 L 149.867188 134.832031 L 154.589844 121.941406 L 159.613281 111.277344 L 158.128906 100.546875 " fill-opacity="1" fill-rule="nonzero"/><path fill="#110f0f" d="M 180.023438 236.875 L 179.027344 240.210938 L 180.964844 244.335938 L 182.167969 250.972656 L 185.820312 255.148438 L 188.277344 254.859375 L 191.359375 251.027344 L 189.703125 245.542969 L 180.023438 236.875 " fill-opacity="1" fill-rule="nonzero"/><path fill="#e1b9a9" d="M 175.660156 197.203125 L 175.972656 203.371094 L 174.628906 210.894531 L 179.710938 234.550781 L 180.398438 239.640625 L 183.136719 247.65625 L 187.175781 248.496094 L 189.703125 245.542969 L 185.765625 237.410156 L 184.679688 228.144531 L 186.644531 208.078125 L 185.59375 200.101562 L 185.765625 194.894531 L 181.023438 192.199219 L 175.660156 197.203125 " fill-opacity="1" fill-rule="nonzero"/><path fill="#110f0f" d="M 155.957031 241.722656 L 152.355469 245.394531 L 152.355469 247.65625 L 153.84375 249.941406 L 157.265625 249.941406 L 162.351562 246.339844 L 166.804688 241.722656 L 171.144531 239.984375 L 172.855469 237.238281 L 172.175781 234.433594 L 168.121094 234.433594 L 159.328125 241.078125 L 155.957031 241.722656 " fill-opacity="1" fill-rule="nonzero"/><path fill="#e1b9a9" d="M 159.265625 194.742188 L 159.265625 200.671875 L 161.894531 206.859375 L 163.605469 222.917969 L 162.921875 233.972656 L 159.265625 238.636719 L 155.957031 241.722656 L 156.753906 243.875 L 161.09375 243.519531 L 167.949219 236.953125 L 172.175781 234.433594 L 171.234375 228.933594 L 173.769531 207.972656 L 170.003906 199.222656 L 169.894531 197.203125 L 164.867188 193.019531 L 159.265625 194.742188 " fill-opacity="1" fill-rule="nonzero"/><path fill="#110f0f" d="M 152.761719 166.578125 L 154.355469 180.074219 L 157.710938 194.378906 L 165.09375 197.203125 L 175.660156 197.203125 L 188.003906 194.675781 L 189.703125 173.097656 L 189.703125 164 L 181.816406 154.1875 L 158.472656 154.1875 L 152.761719 166.578125 " fill-opacity="1" fill-rule="nonzero"/><path fill="#a9a49c" d="M 165.09375 100.085938 L 163.117188 106.222656 L 168.367188 119.792969 L 177.347656 107.445312 L 178.453125 99.171875 L 190.214844 105.464844 L 189.386719 122.398438 L 183.933594 141.875 L 188.019531 150.980469 L 190.488281 164.171875 L 184.203125 168.839844 L 170.347656 170.589844 L 169.066406 159.261719 L 167.988281 170.589844 L 158.542969 169.070312 L 151.957031 166.234375 L 153.011719 152.191406 L 155.726562 142.65625 L 155.433594 131.011719 L 153.140625 128.160156 L 152.492188 122.488281 L 156.527344 108.097656 L 156.644531 103.234375 L 158.128906 100.546875 L 165.09375 100.085938 " fill-opacity="1" fill-rule="nonzero"/><path fill="#99928c" d="M 168.367188 119.792969 L 166.191406 127.207031 L 167.238281 132.097656 L 169.066406 159.261719 L 167.953125 132.050781 L 167.136719 127.207031 L 168.367188 119.792969 " fill-opacity="1" fill-rule="nonzero"/><path fill="#e1b9a9" d="M 159.613281 79.066406 L 158.128906 85.667969 L 158.867188 87.214844 L 158.128906 89.386719 L 160.300781 100.429688 L 163.265625 101.910156 L 169.714844 100.199219 L 173.886719 96.421875 L 174.742188 93.332031 L 176.914062 91.785156 L 180.566406 88.808594 L 179.371094 80.171875 L 167.097656 77.136719 L 159.613281 79.066406 " fill-opacity="1" fill-rule="nonzero"/><g clip-path="url(#87f3ea8e39)"><path fill="#110f0f" d="M 180.433594 70.597656 L 184.203125 71.820312 L 188.621094 78.078125 L 189.226562 86.234375 L 184.832031 96.003906 L 180.433594 92.730469 L 177.578125 79.828125 L 180.433594 70.597656 " fill-opacity="1" fill-rule="nonzero"/></g><g clip-path="url(#12b81bdc8c)"><path fill="#a9a49c" d="M 177.574219 70.597656 L 175.558594 72.625 L 175.558594 75.488281 L 177.574219 77.5 L 180.433594 77.5 L 182.453125 75.488281 L 182.453125 72.625 L 180.433594 70.597656 L 177.574219 70.597656 " fill-opacity="1" fill-rule="nonzero"/></g><g clip-path="url(#fa324d28cd)"><path fill="#332926" d="M 174.386719 70.597656 L 167.152344 70.597656 L 160.984375 76.015625 L 159.613281 79.066406 L 162.351562 81.660156 L 170.277344 82.808594 L 172.628906 84.558594 L 172.707031 87.53125 L 172.785156 89.523438 L 173.851562 89.0625 L 175.601562 86.777344 L 177.960938 86.925781 L 177.960938 89.136719 L 176.914062 91.785156 L 181.621094 90.433594 L 184.203125 83.648438 L 181.691406 75.640625 L 178.574219 72.433594 L 174.386719 70.597656 " fill-opacity="1" fill-rule="nonzero"/></g><path fill="#51443f" d="M 222.652344 127.296875 L 225.394531 129.890625 L 224.882812 134.359375 L 222.652344 133.886719 L 221.4375 130.695312 L 222.652344 127.296875 " fill-opacity="1" fill-rule="nonzero"/><path fill="#e1b9a9" d="M 225.476562 127.054688 L 228.976562 125.1875 L 232.742188 125.1875 L 238.6875 124.617188 L 238.226562 125.835938 L 233.769531 127.296875 L 234.039062 128.3125 L 237.003906 129.878906 L 241.917969 130.183594 L 243.289062 132.585938 L 241.238281 133.542969 L 233.621094 134.71875 L 227.644531 131.402344 L 224.882812 131.789062 L 223.875 129.4375 L 225.476562 127.054688 " fill-opacity="1" fill-rule="nonzero"/><path fill="#efefef" d="M 220.902344 128.847656 L 225.476562 127.054688 L 225.664062 129.6875 L 227.644531 131.402344 L 222.542969 134.335938 L 220.636719 131.710938 L 220.902344 128.847656 " fill-opacity="1" fill-rule="nonzero"/><path fill="#99928c" d="M 190.214844 105.464844 L 186.109375 108.324219 L 186.109375 116.445312 L 200.957031 143.074219 L 207.734375 144.140625 L 224.882812 134.359375 L 222.886719 131.261719 L 222.652344 127.296875 L 206.917969 133.734375 L 193.988281 107.636719 L 190.214844 105.464844 " fill-opacity="1" fill-rule="nonzero"/><path fill="#51443f" d="M 162.949219 153.070312 L 166.664062 150.636719 L 165.722656 146.03125 L 162.410156 146.152344 L 160.667969 150.378906 L 162.949219 153.070312 " fill-opacity="1" fill-rule="nonzero"/><path fill="#e1b9a9" d="M 167.449219 147.574219 L 172.6875 145.742188 L 178.28125 145.742188 L 178 147.289062 L 173.714844 148.148438 L 175.773438 150.039062 L 180.855469 150.894531 L 183.082031 153.585938 L 177.542969 156.21875 L 169.894531 154.558594 L 166.636719 152.609375 L 165.722656 148.773438 L 167.449219 147.574219 " fill-opacity="1" fill-rule="nonzero"/><path fill="#efefef" d="M 165.492188 146.546875 L 168.03125 147.378906 L 166.238281 149.0625 L 166.636719 152.609375 L 161.496094 150.980469 L 161.496094 146.03125 L 165.492188 146.546875 " fill-opacity="1" fill-rule="nonzero"/><path fill="#99928c" d="M 149.867188 134.832031 L 165.722656 146.03125 L 163.15625 148.839844 L 162.949219 153.070312 L 145.90625 144.527344 L 140.039062 136.511719 L 149.867188 134.832031 " fill-opacity="1" fill-rule="nonzero"/><path fill="#99928c" d="M 183.082031 128.160156 L 180.566406 131.34375 L 175.773438 132.527344 L 154.960938 130.421875 L 175.867188 133.734375 L 181.253906 132.242188 L 183.082031 128.160156 " fill-opacity="1" fill-rule="nonzero"/><path fill="#811a13" d="M 264.808594 230.203125 L 221.359375 257.707031 L 223.429688 222.242188 L 264.808594 198.289062 L 264.808594 230.203125 " fill-opacity="1" fill-rule="nonzero"/><path fill="#e0b882" d="M 241.761719 264.738281 L 223.429688 254.125 L 232.128906 249.105469 L 232.742188 247.09375 L 254.859375 235.441406 L 255.941406 235.363281 L 264.808594 230.203125 L 283.132812 240.816406 L 241.761719 264.738281 " fill-opacity="1" fill-rule="nonzero"/><path fill="#bb3c2d" d="M 283.132812 240.816406 L 264.808594 230.203125 L 264.808594 198.433594 L 283.132812 209.078125 L 283.132812 240.816406 " fill-opacity="1" fill-rule="nonzero"/><path fill="#efefef" d="M 231.738281 225.832031 L 231.417969 225.613281 L 256.003906 211.402344 L 256.328125 211.625 L 250.5625 219.226562 L 231.738281 225.832031 " fill-opacity="1" fill-rule="nonzero"/><path fill="#e4e0da" d="M 231.738281 249.710938 L 231.417969 249.496094 L 231.417969 225.613281 L 231.738281 225.832031 L 232.238281 232.066406 L 231.738281 249.710938 " fill-opacity="1" fill-rule="nonzero"/><path fill="#efefef" d="M 255.328125 236.082031 L 254.574219 235.617188 L 254.574219 212.703125 L 255.535156 213.277344 L 255.789062 218.441406 L 255.328125 236.082031 " fill-opacity="1" fill-rule="nonzero"/><path fill="#2a5470" d="M 254.574219 213.347656 L 232.023438 226.335938 L 232.066406 248.488281 L 233.78125 247.167969 L 241.980469 242.398438 L 243.335938 241.96875 L 244.125 241.644531 L 254.25 235.871094 L 254.574219 235.472656 L 254.574219 213.347656 " fill-opacity="1" fill-rule="nonzero"/><path fill="#efefef" d="M 242.617188 242.398438 L 242.226562 242.175781 L 242.226562 219.914062 L 242.832031 220.308594 L 242.90625 224.972656 L 242.617188 242.398438 " fill-opacity="1" fill-rule="nonzero"/><path fill="#c4c4c4" d="M 242.617188 220.019531 L 243.195312 219.730469 L 243.839844 230.492188 L 243.195312 242.078125 L 242.617188 242.398438 L 242.617188 220.019531 " fill-opacity="1" fill-rule="nonzero"/><path fill="#efefef" d="M 232.417969 247.632812 L 232.097656 247.417969 L 242.335938 241.535156 L 242.617188 241.714844 L 238.613281 244.4375 L 232.417969 247.632812 " fill-opacity="1" fill-rule="nonzero"/><path fill="#c4c4c4" d="M 242.617188 242.398438 L 232.417969 248.28125 L 232.238281 247.988281 L 232.417969 247.632812 L 242.617188 241.714844 L 242.617188 242.398438 " fill-opacity="1" fill-rule="nonzero"/><path fill="#efefef" d="M 232.417969 225.929688 L 232.097656 225.757812 L 242.335938 219.835938 L 242.617188 220.019531 L 238.613281 222.746094 L 232.417969 225.929688 " fill-opacity="1" fill-rule="nonzero"/><path fill="#c4c4c4" d="M 242.617188 220.707031 L 232.417969 226.613281 L 232.238281 226.335938 L 232.417969 225.929688 L 242.617188 220.019531 L 242.617188 220.707031 " fill-opacity="1" fill-rule="nonzero"/><path fill="#efefef" d="M 231.878906 248.636719 L 231.488281 248.347656 L 231.488281 226.152344 L 232.097656 226.480469 L 232.167969 231.167969 L 231.878906 248.636719 " fill-opacity="1" fill-rule="nonzero"/><path fill="#c4c4c4" d="M 231.878906 226.253906 L 232.417969 225.929688 L 232.417969 248.28125 L 231.878906 248.636719 L 231.878906 226.253906 " fill-opacity="1" fill-rule="nonzero"/><path fill="#efefef" d="M 254.324219 236.082031 L 253.894531 235.871094 L 253.894531 213.636719 L 254.539062 213.996094 L 254.613281 218.6875 L 254.324219 236.082031 " fill-opacity="1" fill-rule="nonzero"/><path fill="#c4c4c4" d="M 254.324219 213.742188 L 254.859375 213.417969 L 254.859375 235.796875 L 254.324219 236.082031 L 254.324219 213.742188 " fill-opacity="1" fill-rule="nonzero"/><path fill="#efefef" d="M 244.125 241.316406 L 243.800781 241.175781 L 254 235.226562 L 254.324219 235.441406 L 250.277344 238.132812 L 244.125 241.316406 " fill-opacity="1" fill-rule="nonzero"/><path fill="#c4c4c4" d="M 254.324219 236.082031 L 244.125 241.996094 L 243.945312 241.714844 L 244.125 241.316406 L 254.324219 235.441406 L 254.324219 236.082031 " fill-opacity="1" fill-rule="nonzero"/><path fill="#efefef" d="M 244.125 219.664062 L 243.800781 219.523438 L 254 213.566406 L 254.324219 213.742188 L 250.277344 216.472656 L 244.125 219.664062 " fill-opacity="1" fill-rule="nonzero"/><path fill="#c4c4c4" d="M 254.324219 214.425781 L 244.125 220.308594 L 243.945312 220.019531 L 244.125 219.664062 L 254.324219 213.742188 L 254.324219 214.425781 " fill-opacity="1" fill-rule="nonzero"/><path fill="#efefef" d="M 243.589844 242.328125 L 243.195312 242.078125 L 243.195312 219.835938 L 243.800781 220.234375 L 243.839844 224.894531 L 243.589844 242.328125 " fill-opacity="1" fill-rule="nonzero"/><path fill="#c4c4c4" d="M 243.589844 219.984375 L 244.125 219.664062 L 244.125 241.996094 L 243.589844 242.328125 L 243.589844 219.984375 " fill-opacity="1" fill-rule="nonzero"/><path fill="#c4c4c4" d="M 231.738281 225.832031 L 231.738281 249.710938 L 232.742188 249.105469 L 232.742188 226.613281 L 255.328125 213.566406 L 255.328125 236.082031 L 256.328125 235.441406 L 256.328125 211.625 L 231.738281 225.832031 " fill-opacity="1" fill-rule="nonzero"/><path fill="#c4c4c4" d="M 242.296875 256.09375 L 242.296875 263.839844 L 242.011719 264.023438 L 241.90625 256.167969 L 242.296875 256.09375 " fill-opacity="1" fill-rule="nonzero"/><path fill="#e4e0da" d="M 242.011719 256.234375 L 242.011719 264.023438 L 241.546875 264.023438 L 241.292969 256.09375 L 242.011719 256.234375 " fill-opacity="1" fill-rule="nonzero"/><path fill="#efefef" d="M 241.546875 256.234375 L 241.546875 264.023438 L 241.292969 263.839844 L 241.292969 256.09375 L 241.546875 256.234375 " fill-opacity="1" fill-rule="nonzero"/><path fill="#efefef" d="M 241.292969 255.84375 L 241.292969 256.09375 L 241.546875 256.234375 L 242.011719 256.234375 L 242.296875 256.09375 L 242.296875 255.84375 L 242.011719 255.667969 L 241.546875 255.667969 L 241.292969 255.84375 " fill-opacity="1" fill-rule="nonzero"/><path fill="#c4c4c4" d="M 236.429688 252.722656 L 236.429688 260.472656 L 236.148438 260.613281 L 236.035156 252.804688 L 236.429688 252.722656 " fill-opacity="1" fill-rule="nonzero"/><path fill="#e4e0da" d="M 236.148438 252.867188 L 236.148438 260.613281 L 235.714844 260.613281 L 235.390625 252.722656 L 236.148438 252.867188 " fill-opacity="1" fill-rule="nonzero"/><path fill="#efefef" d="M 235.714844 252.867188 L 235.714844 260.613281 L 235.390625 260.472656 L 235.390625 252.722656 L 235.714844 252.867188 " fill-opacity="1" fill-rule="nonzero"/><path fill="#efefef" d="M 235.390625 252.472656 L 235.390625 252.722656 L 235.714844 252.867188 L 236.148438 252.867188 L 236.429688 252.722656 L 236.429688 252.472656 L 236.148438 252.292969 L 235.714844 252.292969 L 235.390625 252.472656 " fill-opacity="1" fill-rule="nonzero"/><path fill="#c4c4c4" d="M 230.5625 249.289062 L 230.5625 257.027344 L 230.234375 257.25 L 230.167969 249.429688 L 230.5625 249.289062 " fill-opacity="1" fill-rule="nonzero"/><path fill="#e4e0da" d="M 230.234375 249.496094 L 230.234375 257.25 L 229.878906 257.25 L 229.558594 249.289062 L 230.234375 249.496094 " fill-opacity="1" fill-rule="nonzero"/><path fill="#efefef" d="M 229.878906 249.496094 L 229.878906 257.25 L 229.558594 257.027344 L 229.558594 249.289062 L 229.878906 249.496094 " fill-opacity="1" fill-rule="nonzero"/><path fill="#efefef" d="M 229.558594 249.066406 L 229.558594 249.289062 L 229.878906 249.496094 L 230.234375 249.496094 L 230.5625 249.289062 L 230.5625 249.066406 L 230.234375 248.886719 L 229.878906 248.886719 L 229.558594 249.066406 " fill-opacity="1" fill-rule="nonzero"/><path fill="#c4c4c4" d="M 225.300781 246.34375 L 225.300781 254.089844 L 224.972656 254.265625 L 224.871094 246.421875 L 225.300781 246.34375 " fill-opacity="1" fill-rule="nonzero"/><path fill="#e4e0da" d="M 224.972656 246.484375 L 224.972656 254.265625 L 224.589844 254.265625 L 224.296875 246.34375 L 224.972656 246.484375 " fill-opacity="1" fill-rule="nonzero"/><path fill="#efefef" d="M 224.589844 246.484375 L 224.589844 254.265625 L 224.296875 254.089844 L 224.296875 246.34375 L 224.589844 246.484375 " fill-opacity="1" fill-rule="nonzero"/><path fill="#efefef" d="M 224.296875 246.058594 L 224.296875 246.34375 L 224.589844 246.484375 L 224.972656 246.484375 L 225.300781 246.34375 L 225.300781 246.058594 L 224.972656 245.910156 L 224.589844 245.910156 L 224.296875 246.058594 " fill-opacity="1" fill-rule="nonzero"/><path fill="#c4c4c4" d="M 248.921875 252.257812 L 248.921875 260.039062 L 248.632812 260.183594 L 248.523438 252.371094 L 248.921875 252.257812 " fill-opacity="1" fill-rule="nonzero"/><path fill="#e4e0da" d="M 248.632812 252.441406 L 248.632812 260.183594 L 248.203125 260.183594 L 247.917969 252.257812 L 248.632812 252.441406 " fill-opacity="1" fill-rule="nonzero"/><path fill="#efefef" d="M 248.203125 252.441406 L 248.203125 260.183594 L 247.917969 260.039062 L 247.917969 252.257812 L 248.203125 252.441406 " fill-opacity="1" fill-rule="nonzero"/><path fill="#efefef" d="M 247.917969 252.011719 L 247.917969 252.257812 L 248.203125 252.441406 L 248.632812 252.441406 L 248.921875 252.257812 L 248.921875 252.011719 L 248.632812 251.867188 L 248.203125 251.867188 L 247.917969 252.011719 " fill-opacity="1" fill-rule="nonzero"/><path fill="#c4c4c4" d="M 255.582031 248.425781 L 255.582031 256.167969 L 255.253906 256.382812 L 255.144531 248.570312 L 255.582031 248.425781 " fill-opacity="1" fill-rule="nonzero"/><path fill="#e4e0da" d="M 255.253906 248.570312 L 255.253906 256.382812 L 254.824219 256.382812 L 254.574219 248.425781 L 255.253906 248.570312 " fill-opacity="1" fill-rule="nonzero"/><path fill="#efefef" d="M 254.824219 248.570312 L 254.824219 256.382812 L 254.574219 256.167969 L 254.574219 248.425781 L 254.824219 248.570312 " fill-opacity="1" fill-rule="nonzero"/><path fill="#efefef" d="M 254.574219 248.207031 L 254.574219 248.425781 L 254.824219 248.570312 L 255.253906 248.570312 L 255.582031 248.425781 L 255.582031 248.207031 L 255.253906 248.027344 L 254.824219 248.027344 L 254.574219 248.207031 " fill-opacity="1" fill-rule="nonzero"/><path fill="#c4c4c4" d="M 262.203125 244.621094 L 262.203125 252.332031 L 261.878906 252.542969 L 261.769531 244.691406 L 262.203125 244.621094 " fill-opacity="1" fill-rule="nonzero"/><path fill="#e4e0da" d="M 261.878906 244.765625 L 261.878906 252.542969 L 261.480469 252.542969 L 261.160156 244.621094 L 261.878906 244.765625 " fill-opacity="1" fill-rule="nonzero"/><path fill="#efefef" d="M 261.480469 244.765625 L 261.480469 252.542969 L 261.160156 252.332031 L 261.160156 244.621094 L 261.480469 244.765625 " fill-opacity="1" fill-rule="nonzero"/><path fill="#efefef" d="M 261.160156 244.328125 L 261.160156 244.621094 L 261.480469 244.765625 L 261.878906 244.765625 L 262.203125 244.621094 L 262.203125 244.328125 L 261.878906 244.191406 L 261.480469 244.191406 L 261.160156 244.328125 " fill-opacity="1" fill-rule="nonzero"/><path fill="#c4c4c4" d="M 268.785156 240.746094 L 268.785156 248.488281 L 268.53125 248.671875 L 268.390625 240.851562 L 268.785156 240.746094 " fill-opacity="1" fill-rule="nonzero"/><path fill="#e4e0da" d="M 268.53125 240.933594 L 268.53125 248.671875 L 268.101562 248.671875 L 267.820312 240.746094 L 268.53125 240.933594 " fill-opacity="1" fill-rule="nonzero"/><path fill="#efefef" d="M 268.101562 240.933594 L 268.101562 248.671875 L 267.820312 248.488281 L 267.820312 240.746094 L 268.101562 240.933594 " fill-opacity="1" fill-rule="nonzero"/><path fill="#efefef" d="M 267.820312 240.53125 L 267.820312 240.746094 L 268.101562 240.933594 L 268.53125 240.933594 L 268.785156 240.746094 L 268.785156 240.53125 L 268.53125 240.320312 L 268.101562 240.320312 L 267.820312 240.53125 " fill-opacity="1" fill-rule="nonzero"/><path fill="#c4c4c4" d="M 275.441406 236.945312 L 275.441406 244.691406 L 275.121094 244.839844 L 275.011719 237.023438 L 275.441406 236.945312 " fill-opacity="1" fill-rule="nonzero"/><path fill="#e4e0da" d="M 275.121094 237.089844 L 275.121094 244.839844 L 274.730469 244.839844 L 274.433594 236.945312 L 275.121094 237.089844 " fill-opacity="1" fill-rule="nonzero"/><path fill="#efefef" d="M 274.730469 237.089844 L 274.730469 244.839844 L 274.433594 244.691406 L 274.433594 236.945312 L 274.730469 237.089844 " fill-opacity="1" fill-rule="nonzero"/><path fill="#efefef" d="M 274.433594 236.695312 L 274.433594 236.945312 L 274.730469 237.089844 L 275.121094 237.089844 L 275.441406 236.945312 L 275.441406 236.695312 L 275.121094 236.515625 L 274.730469 236.515625 L 274.433594 236.695312 " fill-opacity="1" fill-rule="nonzero"/><path fill="#c4c4c4" d="M 282.023438 233.109375 L 282.023438 240.851562 L 281.777344 241.035156 L 281.664062 233.214844 L 282.023438 233.109375 " fill-opacity="1" fill-rule="nonzero"/><path fill="#e4e0da" d="M 281.777344 233.25 L 281.777344 241.035156 L 281.347656 241.035156 L 281.0625 233.109375 L 281.777344 233.25 " fill-opacity="1" fill-rule="nonzero"/><path fill="#efefef" d="M 281.347656 233.25 L 281.347656 241.035156 L 281.0625 240.851562 L 281.0625 233.109375 L 281.347656 233.25 " fill-opacity="1" fill-rule="nonzero"/><path fill="#efefef" d="M 281.0625 232.855469 L 281.0625 233.109375 L 281.347656 233.25 L 281.777344 233.25 L 282.023438 233.109375 L 282.023438 232.855469 L 281.777344 232.710938 L 281.347656 232.710938 L 281.0625 232.855469 " fill-opacity="1" fill-rule="nonzero"/><path fill="#cac4ba" d="M 224.40625 245.40625 L 241.761719 255.453125 L 281.207031 232.644531 L 282.636719 232.351562 L 283.132812 232.289062 L 283.132812 232.644531 L 241.761719 256.601562 L 223.429688 245.984375 L 223.429688 245.585938 L 224.40625 245.40625 " fill-opacity="1" fill-rule="nonzero"/><path fill="#efefef" d="M 224.40625 245.050781 L 241.761719 255.089844 L 282.167969 231.703125 L 283.132812 232.289062 L 241.761719 256.167969 L 223.429688 245.585938 L 224.40625 245.050781 " fill-opacity="1" fill-rule="nonzero"/><path fill="#cac4ba" d="M 184.492188 269.007812 L 241.761719 302.148438 L 244.554688 300.210938 L 241.761719 299.492188 L 228.734375 286.074219 L 184.492188 266.351562 L 184.492188 269.007812 " fill-opacity="1" fill-rule="nonzero"/><path fill="#99928c" d="M 314.664062 259.976562 L 241.761719 302.148438 L 241.761719 299.492188 L 258.652344 285.6875 L 314.664062 257.3125 L 314.664062 259.976562 " fill-opacity="1" fill-rule="nonzero"/><path fill="#811a13" d="M 241.761719 299.492188 L 314.664062 257.3125 L 314.664062 191.335938 L 283.132812 209.476562 L 283.132812 240.816406 L 241.761719 264.738281 L 241.761719 299.492188 " fill-opacity="1" fill-rule="nonzero"/><path fill="#bb3c2d" d="M 223.429688 254.125 L 223.429688 222.242188 L 241.761719 232.855469 L 213.734375 190.761719 L 184.492188 198.542969 L 184.492188 266.351562 L 241.761719 299.492188 L 241.761719 264.738281 L 223.429688 254.125 " fill-opacity="1" fill-rule="nonzero"/><path fill="#2a5470" d="M 241.761719 269.042969 L 238.824219 279.984375 L 241.761719 289.800781 L 282.492188 266.285156 L 282.492188 245.519531 L 241.761719 269.042969 " fill-opacity="1" fill-rule="nonzero"/><path fill="#c4c4c4" d="M 255.039062 261.398438 L 255.039062 282.058594 L 254.714844 282.242188 L 254.714844 261.617188 L 255.039062 261.398438 " fill-opacity="1" fill-rule="nonzero"/><path fill="#c4c4c4" d="M 269.394531 253.082031 L 269.394531 273.703125 L 269.074219 273.886719 L 269.074219 253.269531 L 269.394531 253.082031 " fill-opacity="1" fill-rule="nonzero"/><path fill="#c4c4c4" d="M 241.761719 268.578125 L 241.476562 268.796875 L 241.761719 269.4375 L 281.992188 246.199219 L 282.207031 265.921875 L 245.589844 286.972656 L 243.234375 288.480469 L 241.796875 289.523438 L 241.226562 289.734375 L 241.796875 290.410156 L 283.132812 266.496094 L 283.132812 244.621094 L 241.761719 268.578125 " fill-opacity="1" fill-rule="nonzero"/><path fill="#efefef" d="M 241.761719 268.578125 L 283.132812 244.621094 L 282.710938 244.378906 L 241.617188 268.113281 L 241.761719 268.578125 " fill-opacity="1" fill-rule="nonzero"/><path fill="#efefef" d="M 281.992188 246.199219 L 282.3125 246.023438 L 282.3125 266.066406 L 241.796875 289.523438 L 241.796875 289.15625 L 281.992188 265.847656 L 281.992188 246.199219 " fill-opacity="1" fill-rule="nonzero"/><path fill="#3e819d" d="M 241.761719 269.042969 L 241.761719 289.800781 L 223.976562 279.515625 L 223.976562 258.714844 L 241.761719 269.042969 " fill-opacity="1" fill-rule="nonzero"/><path fill="#c4c4c4" d="M 242.117188 268.867188 L 242.117188 289.488281 L 241.796875 289.660156 L 241.582031 286.222656 L 241.796875 269.042969 L 242.117188 268.867188 " fill-opacity="1" fill-rule="nonzero"/><path fill="#e4e0da" d="M 241.476562 268.652344 L 241.476562 289.339844 L 241.796875 289.523438 L 241.796875 268.867188 L 241.476562 268.652344 " fill-opacity="1" fill-rule="nonzero"/><path fill="#e4e0da" d="M 241.761719 268.578125 L 241.761719 269.4375 L 224.476562 259.464844 L 224.257812 279.199219 L 237.855469 286.867188 L 239.472656 288.015625 L 241.796875 289.523438 L 241.796875 290.410156 L 223.332031 279.730469 L 223.332031 257.890625 L 241.761719 268.578125 " fill-opacity="1" fill-rule="nonzero"/><path fill="#efefef" d="M 241.761719 268.578125 L 223.332031 257.890625 L 223.789062 257.605469 L 241.761719 268.078125 L 242.226562 268.292969 L 241.761719 268.578125 " fill-opacity="1" fill-rule="nonzero"/><path fill="#efefef" d="M 224.476562 259.464844 L 224.152344 259.253906 L 224.152344 279.328125 L 241.796875 289.523438 L 242.296875 289.226562 L 242.335938 288.878906 L 241.796875 289.15625 L 224.476562 279.121094 L 224.476562 259.464844 " fill-opacity="1" fill-rule="nonzero"/><g clip-path="url(#e1391119e0)"><path fill="#a9a49c" d="M 306.332031 188.0625 L 317.027344 189.972656 L 317.027344 190.6875 L 241.476562 234.359375 L 241.476562 233.648438 L 244.484375 222.460938 L 306.332031 188.0625 " fill-opacity="1" fill-rule="nonzero"/></g><g clip-path="url(#caab49672e)"><path fill="#4f413c" d="M 314.023438 189.25 L 317.027344 189.675781 L 317.027344 189.972656 L 241.476562 233.648438 L 241.476562 233.359375 L 242.371094 230.386719 L 314.023438 189.25 " fill-opacity="1" fill-rule="nonzero"/></g><path fill="#e4e0da" d="M 211.839844 192.261719 L 241.476562 233.648438 L 241.476562 234.359375 L 211.839844 192.984375 L 182.167969 200.011719 L 182.167969 199.363281 L 211.839844 192.261719 " fill-opacity="1" fill-rule="nonzero"/><path fill="#3c322e" d="M 212.488281 191.261719 L 241.476562 233.359375 L 241.476562 233.648438 L 211.839844 192.261719 L 182.167969 199.363281 L 182.167969 199.140625 L 212.488281 191.261719 " fill-opacity="1" fill-rule="nonzero"/><g clip-path="url(#f3bef1db86)"><path fill="#4f413c" d="M 241.476562 233.359375 L 317.027344 189.675781 L 287.359375 148.261719 L 282.242188 149.582031 L 213.023438 189.171875 L 211.839844 191.976562 L 241.476562 233.359375 " fill-opacity="1" fill-rule="nonzero"/></g><path fill="#61514b" d="M 211.839844 191.976562 L 287.359375 148.261719 L 257.691406 155.4375 L 182.167969 199.140625 L 211.839844 191.976562 " fill-opacity="1" fill-rule="nonzero"/><path fill="#cac4ba" d="M 204.789062 285.898438 L 193.914062 279.582031 L 193.914062 276.964844 L 209.226562 280.695312 L 204.789062 285.898438 " fill-opacity="1" fill-rule="nonzero"/><path fill="#99928c" d="M 209.226562 283.316406 L 204.789062 285.898438 L 204.789062 283.285156 L 209.226562 280.695312 L 209.226562 283.316406 " fill-opacity="1" fill-rule="nonzero"/><path fill="#d7d3cf" d="M 209.226562 280.695312 L 204.789062 283.285156 L 193.914062 276.964844 L 198.347656 274.386719 L 209.226562 280.695312 " fill-opacity="1" fill-rule="nonzero"/><path fill="#cac4ba" d="M 202 287.507812 L 191.121094 281.203125 L 191.121094 280.058594 L 204.789062 284.714844 L 202 287.507812 " fill-opacity="1" fill-rule="nonzero"/><path fill="#99928c" d="M 204.789062 285.898438 L 202 287.507812 L 202 286.363281 L 204.789062 284.714844 L 204.789062 285.898438 " fill-opacity="1" fill-rule="nonzero"/><path fill="#d7d3cf" d="M 204.789062 284.714844 L 202 286.363281 L 191.121094 280.058594 L 193.914062 278.398438 L 204.789062 284.714844 " fill-opacity="1" fill-rule="nonzero"/><path fill="#efefef" d="M 208.941406 256.53125 L 209.226562 256.382812 L 198.347656 250.074219 L 198.023438 250.292969 L 203.785156 254.265625 L 208.941406 256.53125 " fill-opacity="1" fill-rule="nonzero"/><path fill="#c4c4c4" d="M 208.941406 280.839844 L 209.226562 280.695312 L 209.226562 256.382812 L 208.941406 256.53125 L 208.40625 263.265625 L 208.941406 280.839844 " fill-opacity="1" fill-rule="nonzero"/><path fill="#c4c4c4" d="M 199.0625 275.140625 L 199.785156 274.746094 L 199.785156 251.359375 L 198.851562 251.929688 L 198.523438 257.535156 L 199.0625 275.140625 " fill-opacity="1" fill-rule="nonzero"/><path fill="#7e4c19" d="M 199.28125 275.03125 L 208.40625 280.265625 L 208.40625 257.171875 L 199.59375 252.082031 L 199.28125 252.148438 L 199.28125 275.03125 " fill-opacity="1" fill-rule="nonzero"/><path fill="#584035" d="M 199.960938 263.667969 L 199.460938 263.953125 L 199.671875 264.199219 L 199.960938 264.667969 L 200.132812 264.984375 L 200.570312 264.738281 L 200.570312 264.34375 L 200.28125 263.878906 L 199.960938 263.667969 " fill-opacity="1" fill-rule="nonzero"/><path fill="#6c6051" d="M 199.460938 263.953125 L 199.242188 264.09375 L 199.242188 264.488281 L 199.460938 264.957031 L 199.851562 265.136719 L 200.132812 264.984375 L 200.132812 264.601562 L 199.851562 264.121094 L 199.460938 263.953125 " fill-opacity="1" fill-rule="nonzero"/><path fill="#644013" d="M 203.25 264.925781 L 200.246094 263.203125 L 200.246094 254.660156 L 203.25 256.457031 L 203.25 264.925781 " fill-opacity="1" fill-rule="nonzero"/><path fill="#644013" d="M 207.183594 267.179688 L 204.183594 265.460938 L 204.183594 256.957031 L 207.183594 258.679688 L 207.183594 267.179688 " fill-opacity="1" fill-rule="nonzero"/><path fill="#644013" d="M 203.25 275.386719 L 200.246094 273.667969 L 200.246094 265.136719 L 203.25 266.851562 L 203.25 275.386719 " fill-opacity="1" fill-rule="nonzero"/><path fill="#644013" d="M 207.183594 277.6875 L 204.183594 275.964844 L 204.183594 267.425781 L 207.183594 269.148438 L 207.183594 277.6875 " fill-opacity="1" fill-rule="nonzero"/><path fill="#cac4ba" d="M 199.28125 252.148438 L 208.40625 257.382812 L 208.40625 257.101562 L 199.59375 252.011719 L 199.28125 252.148438 " fill-opacity="1" fill-rule="nonzero"/><path fill="#e4e0da" d="M 208.941406 256.53125 L 208.941406 280.839844 L 207.941406 280.265625 L 207.941406 257.382812 L 199.0625 252.226562 L 199.0625 275.140625 L 198.023438 274.566406 L 198.023438 250.292969 L 208.941406 256.53125 " fill-opacity="1" fill-rule="nonzero"/><path fill="#c4c4c4" d="M 209.871094 196.957031 L 209.402344 197.214844 L 208.90625 201.472656 L 212.628906 207.253906 L 216.496094 209.550781 L 216.957031 209.222656 L 216.957031 204.449219 L 214.058594 199.324219 L 209.871094 196.957031 " fill-opacity="1" fill-rule="nonzero"/><path fill="#3e819d" d="M 216.171875 204.847656 L 216.171875 209.402344 L 213.914062 210.691406 L 210.015625 208.4375 L 207.222656 203.597656 L 207.222656 199.078125 L 209.476562 197.78125 L 213.382812 200.082031 L 216.171875 204.847656 " fill-opacity="1" fill-rule="nonzero"/><path fill="#e4e0da" d="M 216.496094 206.964844 L 207.222656 201.660156 L 207.261719 201.007812 L 216.496094 206.359375 L 216.496094 206.964844 " fill-opacity="1" fill-rule="nonzero"/><path fill="#e4e0da" d="M 211.550781 198.679688 L 211.550781 209.367188 L 212.128906 209.621094 L 212.128906 199 L 211.550781 198.679688 " fill-opacity="1" fill-rule="nonzero"/><path fill="#e4e0da" d="M 215.738281 208.757812 L 213.699219 209.902344 L 210.160156 207.902344 L 207.683594 203.523438 L 207.683594 199.4375 L 209.695312 198.289062 L 213.238281 200.289062 L 215.738281 204.632812 Z M 216.496094 204.710938 L 213.523438 199.648438 L 209.402344 197.214844 L 206.433594 198.9375 L 206.433594 203.730469 L 209.402344 208.824219 L 213.523438 211.199219 L 216.496094 209.550781 L 216.496094 204.710938 " fill-opacity="1" fill-rule="nonzero"/><path fill="#c4c4c4" d="M 213.699219 209.902344 L 213.238281 210.199219 L 209.695312 208.144531 L 207.183594 203.808594 L 207.183594 199.722656 L 207.683594 199.4375 L 207.683594 203.523438 L 210.160156 207.902344 L 213.699219 209.902344 " fill-opacity="1" fill-rule="nonzero"/><path fill="#2a5470" d="M 293.765625 240.210938 L 293.765625 259.753906 L 304.863281 253.371094 L 304.863281 233.785156 L 293.765625 240.210938 " fill-opacity="1" fill-rule="nonzero"/><path fill="#e4e0da" d="M 293.839844 251.753906 L 304.863281 245.339844 L 304.824219 244.765625 L 293.839844 251.082031 L 293.839844 251.753906 " fill-opacity="1" fill-rule="nonzero"/><path fill="#c4c4c4" d="M 293.410156 239.894531 L 293.410156 260.613281 L 305.539062 253.585938 L 305.539062 232.890625 Z M 294.300781 240.320312 L 304.398438 234.503906 L 304.574219 253.082031 L 294.300781 258.824219 L 294.300781 240.320312 " fill-opacity="1" fill-rule="nonzero"/><path fill="#efefef" d="M 293.410156 239.894531 L 305.539062 232.890625 L 305.078125 232.644531 L 292.976562 239.667969 L 293.410156 239.894531 " fill-opacity="1" fill-rule="nonzero"/><path fill="#e4e0da" d="M 293.410156 260.613281 L 293.410156 239.894531 L 292.976562 239.667969 L 292.976562 260.332031 L 293.410156 260.613281 " fill-opacity="1" fill-rule="nonzero"/><path fill="#efefef" d="M 304.398438 234.503906 L 304.71875 234.292969 L 304.71875 253.15625 L 294.300781 259.183594 L 294.300781 258.824219 L 304.398438 253.007812 L 304.398438 234.503906 " fill-opacity="1" fill-rule="nonzero"/><path fill="#2a5470" d="M 293.765625 208.117188 L 293.765625 227.65625 L 304.863281 221.238281 L 304.863281 201.660156 L 293.765625 208.117188 " fill-opacity="1" fill-rule="nonzero"/><path fill="#e4e0da" d="M 293.839844 219.589844 L 304.863281 213.203125 L 304.824219 212.601562 L 293.839844 218.980469 L 293.839844 219.589844 " fill-opacity="1" fill-rule="nonzero"/><path fill="#c4c4c4" d="M 293.410156 207.753906 L 293.410156 228.449219 L 305.539062 221.453125 L 305.539062 200.796875 Z M 294.300781 208.1875 L 304.398438 202.378906 L 304.574219 220.917969 L 294.300781 226.691406 L 294.300781 208.1875 " fill-opacity="1" fill-rule="nonzero"/><path fill="#efefef" d="M 293.410156 207.753906 L 305.539062 200.796875 L 305.078125 200.507812 L 292.976562 207.5 L 293.410156 207.753906 " fill-opacity="1" fill-rule="nonzero"/><path fill="#e4e0da" d="M 293.410156 228.449219 L 293.410156 207.753906 L 292.976562 207.5 L 292.976562 228.199219 L 293.410156 228.449219 " fill-opacity="1" fill-rule="nonzero"/><path fill="#efefef" d="M 304.398438 202.378906 L 304.71875 202.15625 L 304.71875 221.023438 L 294.300781 227.074219 L 294.300781 226.691406 L 304.398438 220.84375 L 304.398438 202.378906 " fill-opacity="1" fill-rule="nonzero"/><path fill="#3e819d" d="M 195.882812 215.140625 L 195.882812 231.167969 L 190.292969 227.949219 L 190.292969 211.886719 L 195.882812 215.140625 " fill-opacity="1" fill-rule="nonzero"/><path fill="#e4e0da" d="M 195.847656 223.535156 L 190.292969 220.308594 L 190.335938 219.699219 L 195.847656 222.894531 L 195.847656 223.535156 " fill-opacity="1" fill-rule="nonzero"/><path fill="#e4e0da" d="M 189.613281 210.984375 L 189.613281 228.125 L 196.238281 231.992188 L 196.238281 214.785156 Z M 195.414062 230.242188 L 190.542969 227.628906 L 190.757812 212.527344 L 195.414062 215.214844 L 195.414062 230.242188 " fill-opacity="1" fill-rule="nonzero"/><path fill="#efefef" d="M 196.238281 214.785156 L 189.613281 210.984375 L 190.039062 210.691406 L 196.667969 214.527344 L 196.238281 214.785156 " fill-opacity="1" fill-rule="nonzero"/><path fill="#c4c4c4" d="M 196.238281 231.992188 L 196.238281 214.785156 L 196.667969 214.527344 L 196.667969 231.703125 L 196.238281 231.992188 " fill-opacity="1" fill-rule="nonzero"/><path fill="#c4c4c4" d="M 190.757812 212.527344 L 190.46875 212.347656 L 190.46875 227.730469 L 195.414062 230.601562 L 195.414062 230.242188 L 190.757812 227.554688 L 190.757812 212.527344 " fill-opacity="1" fill-rule="nonzero"/><path fill="#3e819d" d="M 206.398438 221.167969 L 206.398438 237.265625 L 200.78125 234.007812 L 200.78125 217.9375 L 206.398438 221.167969 " fill-opacity="1" fill-rule="nonzero"/><path fill="#e4e0da" d="M 206.367188 229.597656 L 200.78125 226.40625 L 200.851562 225.757812 L 206.367188 228.984375 L 206.367188 229.597656 " fill-opacity="1" fill-rule="nonzero"/><path fill="#e4e0da" d="M 200.132812 217.039062 L 200.132812 234.214844 L 206.757812 238.09375 L 206.757812 220.882812 Z M 205.902344 236.304688 L 201.066406 233.679688 L 201.285156 218.65625 L 205.902344 221.308594 L 205.902344 236.304688 " fill-opacity="1" fill-rule="nonzero"/><path fill="#efefef" d="M 206.757812 220.882812 L 200.132812 217.039062 L 200.570312 216.789062 L 207.183594 220.625 L 206.757812 220.882812 " fill-opacity="1" fill-rule="nonzero"/><path fill="#c4c4c4" d="M 206.757812 238.09375 L 206.757812 220.882812 L 207.183594 220.625 L 207.183594 237.804688 L 206.757812 238.09375 " fill-opacity="1" fill-rule="nonzero"/><path fill="#c4c4c4" d="M 201.285156 218.65625 L 200.957031 218.441406 L 200.957031 233.785156 L 205.902344 236.695312 L 205.902344 236.304688 L 201.285156 233.648438 L 201.285156 218.65625 " fill-opacity="1" fill-rule="nonzero"/><path fill="#3e819d" d="M 216.886719 227.261719 L 216.886719 243.398438 L 211.304688 240.101562 L 211.304688 223.996094 L 216.886719 227.261719 " fill-opacity="1" fill-rule="nonzero"/><path fill="#e4e0da" d="M 216.847656 235.691406 L 211.304688 232.429688 L 211.339844 231.855469 L 216.847656 235.011719 L 216.847656 235.691406 " fill-opacity="1" fill-rule="nonzero"/><path fill="#e4e0da" d="M 210.660156 223.101562 L 210.660156 240.320312 L 217.246094 244.191406 L 217.246094 226.976562 Z M 216.421875 242.398438 L 211.589844 239.820312 L 211.773438 224.683594 L 216.421875 227.40625 L 216.421875 242.398438 " fill-opacity="1" fill-rule="nonzero"/><path fill="#efefef" d="M 217.246094 226.976562 L 210.660156 223.101562 L 211.09375 222.894531 L 217.707031 226.691406 L 217.246094 226.976562 " fill-opacity="1" fill-rule="nonzero"/><path fill="#c4c4c4" d="M 217.246094 244.191406 L 217.246094 226.976562 L 217.707031 226.691406 L 217.707031 243.898438 L 217.246094 244.191406 " fill-opacity="1" fill-rule="nonzero"/><path fill="#c4c4c4" d="M 211.773438 224.683594 L 211.480469 224.539062 L 211.480469 239.894531 L 216.421875 242.757812 L 216.421875 242.398438 L 211.773438 239.742188 L 211.773438 224.683594 " fill-opacity="1" fill-rule="nonzero"/><path fill="#332926" d="M 67.128906 282.398438 L 67.128906 283.089844 L 70.40625 286.058594 L 74.054688 283.925781 L 77.40625 279.496094 L 81.210938 277.136719 L 81.210938 272.25 L 75.042969 272.25 L 67.128906 282.398438 " fill-opacity="1" fill-rule="nonzero"/><path fill="#332926" d="M 93.167969 280.796875 L 98.5 281.710938 L 104.285156 281.253906 L 106.113281 286.058594 L 106.113281 286.742188 L 102.078125 289.570312 L 91.566406 291.785156 L 86.773438 293.390625 L 80.078125 293.390625 L 79.230469 289.117188 L 79.230469 288.421875 L 93.167969 280.796875 " fill-opacity="1" fill-rule="nonzero"/><path fill="#e4e0da" d="M 68.273438 275 L 67.128906 282.398438 L 70.40625 285.375 L 74.054688 283.238281 L 77.40625 278.808594 L 81.210938 276.445312 L 81.210938 271.566406 L 75.042969 271.566406 L 68.273438 275 " fill-opacity="1" fill-rule="nonzero"/><path fill="#e1b9a9" d="M 76.570312 127.472656 L 75.914062 130.835938 L 74.699219 133.746094 L 80.46875 139.007812 L 88.632812 139.007812 L 90.464844 136.945312 L 90.691406 130.539062 L 92.804688 129.578125 L 92.460938 124.9375 L 81.609375 124.421875 L 76.570312 127.472656 " fill-opacity="1" fill-rule="nonzero"/><g clip-path="url(#d96c0e976b)"><path fill="#7e4d37" d="M 73.886719 131.996094 L 66.746094 130.539062 L 61.417969 133.550781 L 58.703125 139.183594 L 59.167969 146.136719 L 57.683594 173.113281 L 66.746094 190.164062 L 72.761719 186.976562 L 73.886719 131.996094 " fill-opacity="1" fill-rule="nonzero"/></g><path fill="#65a9b8" d="M 67.175781 197.742188 L 69.488281 233.035156 L 65.828125 247.074219 L 67.660156 275.15625 L 75.269531 276.832031 L 81.0625 271.488281 L 84.867188 201.757812 L 67.175781 197.742188 " fill-opacity="1" fill-rule="nonzero"/><path fill="#e4e0da" d="M 93.167969 280.109375 L 98.5 281.019531 L 104.285156 280.570312 L 106.113281 282.25 L 106.113281 286.058594 L 102.078125 288.882812 L 91.566406 291.097656 L 86.773438 292.699219 L 80.078125 292.699219 L 79.230469 288.421875 L 80.375 281.945312 L 93.167969 280.109375 " fill-opacity="1" fill-rule="nonzero"/><path fill="#75c5d5" d="M 68.539062 186.273438 L 66.746094 197.179688 L 70.851562 202.523438 L 81.667969 208.316406 L 82.578125 243.71875 L 80.757812 252.566406 L 79.535156 282.9375 L 87.605469 285.375 L 94.308594 280.035156 L 96.894531 246.921875 L 99.789062 235.828125 L 103.441406 215.875 L 104.285156 192.226562 L 68.539062 186.273438 " fill-opacity="1" fill-rule="nonzero"/><path fill="#e4e0da" d="M 74.511719 131.722656 L 75.726562 130.539062 L 79.101562 135.914062 L 85.609375 137.179688 L 90.464844 136.945312 L 95.882812 142.160156 L 89.949219 143.585938 L 75.097656 141.070312 L 74.511719 131.722656 " fill-opacity="1" fill-rule="nonzero"/><path fill="#e4e0da" d="M 69.558594 181.121094 L 68.539062 186.273438 L 79.039062 193.480469 L 101.886719 194.742188 L 104.285156 192.226562 L 104.285156 184.894531 L 69.558594 181.121094 " fill-opacity="1" fill-rule="nonzero"/><path fill="#8f573f" d="M 103.023438 148.734375 L 96.976562 142.253906 L 90.464844 138.738281 L 84.105469 138.738281 L 77.707031 137.058594 L 74.511719 131.722656 L 66.589844 135.234375 L 62.175781 143.472656 L 68.539062 169.484375 L 67.734375 182.992188 L 79.535156 190.773438 L 101.769531 191.535156 L 105.273438 186.804688 L 103.023438 148.734375 " fill-opacity="1" fill-rule="nonzero"/><path fill="#e1b9a9" d="M 96.210938 110 L 97.660156 115.261719 L 96.976562 116.808594 L 97.660156 118.464844 L 95.378906 128.367188 L 92.804688 129.578125 L 89.507812 126.765625 L 87.265625 122.703125 L 88.917969 112.914062 L 96.210938 110 " fill-opacity="1" fill-rule="nonzero"/><path fill="#ba945e" d="M 96.210938 108.726562 L 96.976562 112.492188 L 96.289062 116.242188 L 94.613281 118.753906 L 94.613281 121.957031 L 93.550781 121.957031 L 92.859375 120.050781 L 90.726562 121.648438 L 89.507812 126.765625 L 83.34375 129.578125 L 79.382812 129.578125 L 76.339844 127.300781 L 72.761719 119.210938 L 72.761719 110.980469 L 76.417969 105.785156 L 83.433594 102.617188 L 89.835938 102.160156 L 95.828125 103.761719 L 96.792969 107.484375 L 96.210938 108.726562 " fill-opacity="1" fill-rule="nonzero"/><path fill="#a17f4f" d="M 86.957031 111.277344 L 96.210938 108.726562 L 90.234375 111.277344 Z M 86.957031 111.277344 " fill-opacity="1" fill-rule="nonzero"/><path fill="#efefef" d="M 104.566406 296.355469 L 104.566406 296.96875 L 106.605469 299.183594 L 110.261719 298.117188 L 113.6875 294.492188 L 114.84375 293.023438 L 114.84375 288.785156 L 107.539062 295.160156 L 104.566406 296.355469 " fill-opacity="1" fill-rule="nonzero"/><g clip-path="url(#9cbd9a85d7)"><path fill="#efefef" d="M 122.441406 292.050781 L 126.441406 292.050781 L 130.722656 291.171875 L 133.121094 295.78125 L 133.121094 296.394531 L 127.777344 300.058594 L 121.300781 302.058594 L 115.816406 304.585938 L 112.734375 303.726562 L 111.246094 300.976562 L 111.246094 300.363281 L 122.441406 292.050781 " fill-opacity="1" fill-rule="nonzero"/></g><path fill="#ef968d" d="M 106.113281 290.296875 L 104.566406 296.355469 L 106.605469 298.574219 L 110.261719 297.503906 L 113.6875 293.878906 L 114.84375 292.410156 L 114.84375 288.179688 L 109.078125 288.179688 L 106.113281 290.296875 " fill-opacity="1" fill-rule="nonzero"/><path fill="#ef968d" d="M 122.441406 291.441406 L 126.441406 291.441406 L 130.722656 290.566406 L 133.121094 292.066406 L 133.121094 295.78125 L 127.777344 299.457031 L 121.300781 301.457031 L 115.816406 303.96875 L 112.734375 303.105469 L 111.246094 300.363281 L 113.347656 295.285156 L 122.441406 291.441406 " fill-opacity="1" fill-rule="nonzero"/><path fill="#ef968d" d="M 145.167969 194.742188 L 135.648438 201.914062 L 134.132812 195.886719 L 138.09375 188.5625 L 145.167969 194.742188 " fill-opacity="1" fill-rule="nonzero"/><path fill="#346e88" d="M 103.59375 209.542969 L 106.113281 250.4375 L 102.910156 260.957031 L 106.113281 290.566406 L 110.222656 291.636719 L 114.03125 290.257812 L 118.210938 281.710938 L 119.59375 216.714844 L 103.59375 209.542969 " fill-opacity="1" fill-rule="nonzero"/><path fill="#3e87ac" d="M 106.71875 194.742188 L 102.910156 205.265625 L 104.285156 215.492188 L 116.996094 221.746094 L 116.238281 258.367188 L 112.429688 269.207031 L 113.347656 295.285156 L 120.300781 296.050781 L 122.785156 291.785156 L 122.023438 287.085938 L 128.1875 254.476562 L 127.992188 251.203125 L 135.648438 225.5625 L 137.6875 200.808594 L 106.71875 194.742188 " fill-opacity="1" fill-rule="nonzero"/><path fill="#ef968d" d="M 108.621094 150.800781 L 103.148438 150.800781 L 101.542969 157.207031 L 103.828125 159.261719 L 111.023438 155.027344 L 108.621094 150.800781 " fill-opacity="1" fill-rule="nonzero"/><path fill="#efefef" d="M 134.992188 164.121094 L 124.382812 156.402344 L 107.160156 152.191406 L 102.910156 155.941406 L 110.199219 187.96875 L 106.71875 194.742188 L 116.730469 202.863281 L 133.824219 204.574219 L 137.6875 200.808594 L 136.882812 193.210938 L 134.777344 178.386719 L 134.992188 164.121094 " fill-opacity="1" fill-rule="nonzero"/><path fill="#ef968d" d="M 133.824219 167.105469 L 130.207031 170.402344 L 130.207031 175.515625 L 136.882812 193.210938 L 139.460938 195.886719 L 145.167969 194.742188 L 145.167969 190.164062 L 137.175781 167.105469 L 133.824219 167.105469 " fill-opacity="1" fill-rule="nonzero"/><path fill="#51443f" d="M 130.894531 125.886719 L 128 122.488281 L 118.597656 123.023438 L 111.367188 130.539062 L 106.71875 150.71875 L 108.546875 156.820312 L 113.800781 159.417969 L 115.324219 158.578125 L 116.460938 160.488281 L 121.699219 161.265625 L 126.039062 160.789062 L 125.523438 157.808594 L 126.78125 160.636719 L 130.550781 160.332031 L 135.648438 157.359375 L 134.203125 148.347656 L 134.96875 135.3125 L 133.144531 127.144531 L 130.894531 125.886719 " fill-opacity="1" fill-rule="nonzero"/><path fill="#332926" d="M 121.1875 130.113281 L 130.894531 125.886719 L 123.050781 130.421875 Z M 121.1875 130.113281 " fill-opacity="1" fill-rule="nonzero"/><path fill="#e1b9a9" d="M 125.148438 170.550781 L 130.859375 167.808594 L 131.316406 164.300781 L 133.292969 163.535156 L 135.5 164.300781 L 140.753906 163.535156 L 142.503906 166.933594 L 140.214844 173.6875 L 133.671875 174.441406 L 128.039062 177.269531 L 125.148438 170.550781 " fill-opacity="1" fill-rule="nonzero"/><path fill="#7e4d37" d="M 96.210938 145.074219 L 91.582031 149.535156 L 90.464844 158.117188 L 100.628906 186.273438 L 107.933594 189.132812 L 130.207031 177.6875 L 130.207031 172.195312 L 125.523438 169.5625 L 110.335938 173.792969 L 103.023438 148.734375 L 96.210938 145.074219 " fill-opacity="1" fill-rule="nonzero"/></svg>