<svg xmlns="http://www.w3.org/2000/svg" xmlns:xlink="http://www.w3.org/1999/xlink" width="500" zoomAndPan="magnify" viewBox="0 0 375 374.999991" height="500" preserveAspectRatio="xMidYMid meet" version="1.0"><defs><g/><clipPath id="567e1d05e2"><path d="M 53 121.9375 L 112 121.9375 L 112 172 L 53 172 Z M 53 121.9375 " clip-rule="nonzero"/></clipPath><clipPath id="2e66ed31ec"><path d="M 53 203 L 112 203 L 112 253.1875 L 53 253.1875 Z M 53 203 " clip-rule="nonzero"/></clipPath><clipPath id="d75240a81a"><path d="M 99 158 L 148.328125 158 L 148.328125 217 L 99 217 Z M 99 158 " clip-rule="nonzero"/></clipPath><clipPath id="5d4003cd1b"><path d="M 17.078125 158 L 67 158 L 67 217 L 17.078125 217 Z M 17.078125 158 " clip-rule="nonzero"/></clipPath></defs><g clip-path="url(#567e1d05e2)"><path fill="#b6ccd7" d="M 90.40625 153.664062 L 82.710938 162.472656 L 61.300781 137.964844 L 68.894531 127.695312 L 96.527344 127.695312 L 104.121094 137.964844 L 100.609375 141.988281 C 102.472656 142.722656 104.285156 143.570312 106.03125 144.519531 L 111.496094 138.261719 L 99.425781 121.941406 L 65.996094 121.941406 L 53.921875 138.261719 L 82.710938 171.214844 L 96.355469 155.59375 C 94.453125 154.777344 92.464844 154.132812 90.40625 153.664062 " fill-opacity="1" fill-rule="nonzero"/></g><g clip-path="url(#2e66ed31ec)"><path fill="#b6ccd7" d="M 82.710938 203.921875 L 69.0625 219.539062 C 70.964844 220.355469 72.957031 221.003906 75.015625 221.46875 L 82.710938 212.664062 L 104.121094 237.171875 L 96.527344 247.441406 L 68.894531 247.441406 L 61.300781 237.171875 L 64.8125 233.152344 C 62.945312 232.417969 61.132812 231.570312 59.386719 230.617188 L 53.921875 236.871094 L 65.996094 253.195312 L 99.425781 253.195312 L 111.496094 236.871094 L 82.710938 203.921875 " fill-opacity="1" fill-rule="nonzero"/></g><path fill="#6abf2f" d="M 93.417969 231.152344 L 88.875 225.953125 C 86.867188 226.273438 84.808594 226.441406 82.710938 226.441406 C 68.632812 226.441406 56.304688 218.960938 49.484375 207.753906 L 44.90625 211.753906 C 52.882812 224.195312 66.832031 232.441406 82.710938 232.441406 C 86.402344 232.441406 89.984375 231.992188 93.417969 231.152344 " fill-opacity="1" fill-rule="nonzero"/><path fill="#6abf2f" d="M 115.9375 167.382812 L 120.515625 163.382812 C 112.539062 150.9375 98.585938 142.691406 82.710938 142.691406 C 79.019531 142.691406 75.433594 143.144531 72.003906 143.984375 L 76.546875 149.183594 C 78.554688 148.863281 80.613281 148.695312 82.710938 148.695312 C 96.785156 148.695312 109.117188 156.175781 115.9375 167.382812 " fill-opacity="1" fill-rule="nonzero"/><g clip-path="url(#d75240a81a)"><path fill="#b6ccd7" d="M 116.613281 195.261719 L 107.804688 187.566406 L 132.3125 166.15625 L 142.585938 173.753906 L 142.585938 201.382812 L 132.3125 208.980469 L 128.292969 205.464844 C 127.554688 207.332031 126.707031 209.140625 125.757812 210.886719 L 132.015625 216.355469 L 148.335938 204.285156 L 148.335938 170.851562 L 132.015625 158.78125 L 99.0625 187.566406 L 114.683594 201.214844 C 115.5 199.3125 116.144531 197.320312 116.613281 195.261719 " fill-opacity="1" fill-rule="nonzero"/></g><g clip-path="url(#5d4003cd1b)"><path fill="#b6ccd7" d="M 66.359375 187.566406 L 50.738281 173.921875 C 49.921875 175.824219 49.277344 177.816406 48.808594 179.875 L 57.613281 187.566406 L 33.105469 208.980469 L 22.835938 201.382812 L 22.835938 173.753906 L 33.105469 166.15625 L 37.125 169.667969 C 37.859375 167.800781 38.707031 165.992188 39.660156 164.246094 L 33.40625 158.78125 L 17.085938 170.851562 L 17.085938 204.285156 L 33.40625 216.355469 L 66.359375 187.566406 " fill-opacity="1" fill-rule="nonzero"/></g><path fill="#6abf2f" d="M 39.125 198.273438 L 44.324219 193.730469 C 44.003906 191.722656 43.835938 189.667969 43.835938 187.566406 C 43.835938 173.492188 51.320312 161.164062 62.523438 154.339844 L 58.523438 149.765625 C 46.082031 157.738281 37.835938 171.691406 37.835938 187.566406 C 37.835938 191.257812 38.285156 194.84375 39.125 198.273438 " fill-opacity="1" fill-rule="nonzero"/><path fill="#6abf2f" d="M 102.898438 220.792969 L 106.898438 225.371094 C 119.339844 217.394531 127.582031 203.445312 127.582031 187.566406 C 127.582031 183.878906 127.136719 180.292969 126.296875 176.863281 L 121.09375 181.40625 C 121.414062 183.414062 121.582031 185.472656 121.582031 187.566406 C 121.582031 201.644531 114.101562 213.972656 102.898438 220.792969 " fill-opacity="1" fill-rule="nonzero"/><g fill="#f9f9fa" fill-opacity="1"><g transform="translate(160.396033, 186.790869)"><g><path d="M 4.921875 -17 C 4.921875 -17.65625 4.863281 -18.332031 4.75 -19.03125 C 4.675781 -19.375 4.503906 -19.65625 4.234375 -19.875 C 3.972656 -20.09375 3.671875 -20.265625 3.328125 -20.390625 C 2.984375 -20.515625 2.539062 -20.648438 2 -20.796875 C 1.59375 -20.910156 1.304688 -21 1.140625 -21.0625 L 1.171875 -21.90625 L 11.140625 -21.90625 C 13.941406 -21.90625 16.410156 -21.539062 18.546875 -20.8125 C 20.679688 -20.082031 22.363281 -18.910156 23.59375 -17.296875 C 24.832031 -15.691406 25.453125 -13.617188 25.453125 -11.078125 C 25.453125 -9.117188 24.984375 -7.296875 24.046875 -5.609375 C 23.109375 -3.921875 21.722656 -2.5625 19.890625 -1.53125 C 18.054688 -0.507812 15.851562 0 13.28125 0 L 1.171875 0 L 1.140625 -0.875 L 2.03125 -1.109375 C 2.664062 -1.253906 3.171875 -1.398438 3.546875 -1.546875 C 3.929688 -1.691406 4.253906 -1.9375 4.515625 -2.28125 C 4.785156 -2.625 4.921875 -3.09375 4.921875 -3.6875 Z M 8.53125 -4.5625 C 8.53125 -3.582031 8.71875 -2.8125 9.09375 -2.25 C 9.46875 -1.6875 10.113281 -1.382812 11.03125 -1.34375 C 11.65625 -1.3125 12.296875 -1.296875 12.953125 -1.296875 C 14.796875 -1.296875 16.359375 -1.722656 17.640625 -2.578125 C 18.921875 -3.441406 19.875 -4.554688 20.5 -5.921875 C 21.125 -7.296875 21.4375 -8.738281 21.4375 -10.25 C 21.4375 -12.257812 21.078125 -14.039062 20.359375 -15.59375 C 19.640625 -17.144531 18.523438 -18.367188 17.015625 -19.265625 C 15.515625 -20.171875 13.628906 -20.625 11.359375 -20.625 L 8.53125 -20.625 Z M 8.53125 -4.5625 "/></g></g></g><g fill="#f9f9fa" fill-opacity="1"><g transform="translate(189.01546, 186.790869)"><g><path d="M 8.5625 -4.375 C 8.5625 -3.519531 8.632812 -2.890625 8.78125 -2.484375 C 8.9375 -2.085938 9.144531 -1.820312 9.40625 -1.6875 C 9.675781 -1.550781 10.097656 -1.429688 10.671875 -1.328125 C 11.328125 -1.210938 11.914062 -1.066406 12.4375 -0.890625 L 12.40625 0 L 1.21875 0 L 1.21875 -0.875 C 1.539062 -1.019531 1.832031 -1.125 2.09375 -1.1875 C 2.351562 -1.25 2.6875 -1.3125 3.09375 -1.375 C 3.601562 -1.445312 3.972656 -1.546875 4.203125 -1.671875 C 4.441406 -1.804688 4.625 -2.097656 4.75 -2.546875 C 4.882812 -2.992188 4.953125 -3.703125 4.953125 -4.671875 L 4.953125 -17.328125 C 4.953125 -18.253906 4.875 -18.9375 4.71875 -19.375 C 4.5625 -19.8125 4.351562 -20.09375 4.09375 -20.21875 C 3.84375 -20.34375 3.472656 -20.4375 2.984375 -20.5 C 2.578125 -20.5625 2.238281 -20.625 1.96875 -20.6875 C 1.707031 -20.757812 1.429688 -20.882812 1.140625 -21.0625 L 1.171875 -21.90625 L 12.34375 -21.90625 L 12.375 -21.03125 C 12.132812 -20.945312 11.796875 -20.851562 11.359375 -20.75 C 10.742188 -20.59375 10.25 -20.4375 9.875 -20.28125 C 9.507812 -20.125 9.195312 -19.878906 8.9375 -19.546875 C 8.6875 -19.210938 8.5625 -18.757812 8.5625 -18.1875 Z M 8.5625 -4.375 "/></g></g></g><g fill="#f9f9fa" fill-opacity="1"><g transform="translate(204.219642, 186.790869)"><g><path d="M 6.671875 -8.953125 L 6.34375 -8.140625 C 5.84375 -6.828125 5.445312 -5.75 5.15625 -4.90625 C 4.863281 -4.0625 4.71875 -3.410156 4.71875 -2.953125 C 4.71875 -2.546875 4.863281 -2.210938 5.15625 -1.953125 C 5.457031 -1.691406 5.800781 -1.5 6.1875 -1.375 C 6.570312 -1.25 7.046875 -1.132812 7.609375 -1.03125 L 7.921875 -0.953125 L 7.921875 0 L -0.015625 0 L -0.015625 -0.875 C 0.140625 -1 0.296875 -1.101562 0.453125 -1.1875 C 0.617188 -1.269531 0.828125 -1.363281 1.078125 -1.46875 C 1.472656 -1.625 1.789062 -1.785156 2.03125 -1.953125 C 2.269531 -2.117188 2.484375 -2.382812 2.671875 -2.75 C 2.785156 -2.96875 2.898438 -3.21875 3.015625 -3.5 C 3.140625 -3.789062 3.21875 -3.984375 3.25 -4.078125 L 3.453125 -4.59375 L 9.75 -20.71875 C 9.789062 -20.84375 9.820312 -21.054688 9.84375 -21.359375 C 9.851562 -21.578125 9.875 -21.753906 9.90625 -21.890625 C 9.9375 -22.035156 9.988281 -22.164062 10.0625 -22.28125 C 10.613281 -22.28125 11.085938 -22.222656 11.484375 -22.109375 C 11.878906 -22.003906 12.28125 -21.800781 12.6875 -21.5 L 20.421875 -2.96875 C 20.566406 -2.613281 20.734375 -2.332031 20.921875 -2.125 C 21.109375 -1.914062 21.304688 -1.757812 21.515625 -1.65625 C 21.722656 -1.550781 22.007812 -1.425781 22.375 -1.28125 C 22.675781 -1.175781 22.992188 -1.039062 23.328125 -0.875 L 23.296875 0 L 13.5 0 L 13.46875 -0.875 C 13.988281 -1.03125 14.4375 -1.1875 14.8125 -1.34375 C 15.195312 -1.5 15.539062 -1.71875 15.84375 -2 C 16.144531 -2.28125 16.296875 -2.625 16.296875 -3.03125 C 16.296875 -3.476562 15.734375 -5.144531 14.609375 -8.03125 C 14.546875 -8.195312 14.484375 -8.359375 14.421875 -8.515625 C 14.359375 -8.671875 14.300781 -8.816406 14.25 -8.953125 Z M 10.3125 -18.71875 L 7.234375 -10.4375 L 13.625 -10.4375 Z M 10.3125 -18.71875 "/></g></g></g><g fill="#f9f9fa" fill-opacity="1"><g transform="translate(229.001335, 186.790869)"><g><path d="M 28.234375 -4.5625 C 28.335938 -3.414062 28.65625 -2.550781 29.1875 -1.96875 C 29.269531 -1.707031 29.441406 -1.53125 29.703125 -1.4375 C 29.960938 -1.34375 30.316406 -1.269531 30.765625 -1.21875 C 31.097656 -1.164062 31.347656 -1.117188 31.515625 -1.078125 C 31.691406 -1.046875 31.84375 -0.976562 31.96875 -0.875 L 31.921875 0 L 21.4375 0 L 21.40625 -0.875 L 21.9375 -1.046875 C 22.53125 -1.234375 23.003906 -1.40625 23.359375 -1.5625 C 23.722656 -1.726562 24.03125 -1.972656 24.28125 -2.296875 C 24.539062 -2.617188 24.671875 -3.035156 24.671875 -3.546875 L 23.625 -17.96875 L 17.203125 -3.453125 C 16.804688 -2.566406 16.394531 -1.414062 15.96875 0 L 14.640625 0 C 14.179688 -1.03125 13.414062 -2.640625 12.34375 -4.828125 C 10.925781 -7.765625 9.796875 -10.144531 8.953125 -11.96875 C 8.109375 -13.789062 7.335938 -15.570312 6.640625 -17.3125 C 6.566406 -16.363281 6.429688 -15.003906 6.234375 -13.234375 C 6.003906 -11.160156 5.832031 -9.425781 5.71875 -8.03125 C 5.601562 -6.644531 5.546875 -5.269531 5.546875 -3.90625 C 5.546875 -3.300781 5.660156 -2.820312 5.890625 -2.46875 C 6.117188 -2.113281 6.398438 -1.84375 6.734375 -1.65625 C 7.078125 -1.476562 7.554688 -1.285156 8.171875 -1.078125 L 8.765625 -0.875 L 8.734375 0 L 0.59375 0 L 0.5625 -0.875 C 0.644531 -0.90625 0.941406 -1.007812 1.453125 -1.1875 C 1.984375 -1.375 2.40625 -1.546875 2.71875 -1.703125 C 3.039062 -1.867188 3.316406 -2.109375 3.546875 -2.421875 C 3.773438 -2.734375 3.914062 -3.160156 3.96875 -3.703125 L 5.25 -16.296875 C 5.332031 -17.097656 5.375 -17.816406 5.375 -18.453125 C 5.375 -18.921875 5.285156 -19.296875 5.109375 -19.578125 C 4.929688 -19.859375 4.707031 -20.066406 4.4375 -20.203125 C 4.175781 -20.335938 3.816406 -20.476562 3.359375 -20.625 C 2.890625 -20.769531 2.519531 -20.914062 2.25 -21.0625 L 2.28125 -21.90625 L 8.84375 -21.90625 C 9.050781 -21 9.269531 -20.179688 9.5 -19.453125 C 9.726562 -18.734375 9.992188 -18.050781 10.296875 -17.40625 L 16.359375 -4.5 L 22.375 -18.1875 C 22.664062 -18.851562 22.867188 -19.507812 22.984375 -20.15625 C 23.109375 -20.800781 23.171875 -21.382812 23.171875 -21.90625 L 30.140625 -21.90625 L 30.140625 -21.03125 L 29.84375 -20.9375 C 29.207031 -20.726562 28.707031 -20.53125 28.34375 -20.34375 C 27.976562 -20.164062 27.664062 -19.898438 27.40625 -19.546875 C 27.15625 -19.203125 27.03125 -18.753906 27.03125 -18.203125 Z M 28.234375 -4.5625 "/></g></g></g><g fill="#f9f9fa" fill-opacity="1"><g transform="translate(263.023888, 186.790869)"><g><path d="M 13.53125 -22.328125 C 15.644531 -22.328125 17.582031 -21.851562 19.34375 -20.90625 C 21.101562 -19.96875 22.5 -18.632812 23.53125 -16.90625 C 24.570312 -15.175781 25.09375 -13.175781 25.09375 -10.90625 C 25.09375 -8.6875 24.554688 -6.710938 23.484375 -4.984375 C 22.410156 -3.265625 20.960938 -1.929688 19.140625 -0.984375 C 17.328125 -0.0351562 15.34375 0.4375 13.1875 0.4375 C 11.207031 0.4375 9.351562 -0.015625 7.625 -0.921875 C 5.894531 -1.828125 4.503906 -3.128906 3.453125 -4.828125 C 2.410156 -6.523438 1.890625 -8.488281 1.890625 -10.71875 C 1.890625 -13.175781 2.441406 -15.28125 3.546875 -17.03125 C 4.648438 -18.78125 6.085938 -20.097656 7.859375 -20.984375 C 9.640625 -21.878906 11.53125 -22.328125 13.53125 -22.328125 Z M 14.09375 -0.859375 C 15.4375 -0.859375 16.644531 -1.21875 17.71875 -1.9375 C 18.800781 -2.65625 19.644531 -3.691406 20.25 -5.046875 C 20.863281 -6.398438 21.171875 -8 21.171875 -9.84375 C 21.171875 -11.925781 20.820312 -13.816406 20.125 -15.515625 C 19.425781 -17.222656 18.453125 -18.566406 17.203125 -19.546875 C 15.953125 -20.535156 14.53125 -21.03125 12.9375 -21.03125 C 11.625 -21.03125 10.425781 -20.691406 9.34375 -20.015625 C 8.257812 -19.335938 7.398438 -18.328125 6.765625 -16.984375 C 6.128906 -15.640625 5.8125 -14.019531 5.8125 -12.125 C 5.8125 -10.007812 6.160156 -8.09375 6.859375 -6.375 C 7.566406 -4.65625 8.550781 -3.304688 9.8125 -2.328125 C 11.082031 -1.347656 12.507812 -0.859375 14.09375 -0.859375 Z M 14.09375 -0.859375 "/></g></g></g><g fill="#f9f9fa" fill-opacity="1"><g transform="translate(291.62648, 186.790869)"><g><path d="M 5.4375 -18.359375 C 5.144531 -18.828125 4.84375 -19.203125 4.53125 -19.484375 C 4.21875 -19.765625 3.898438 -19.976562 3.578125 -20.125 C 3.265625 -20.269531 2.847656 -20.4375 2.328125 -20.625 C 1.816406 -20.789062 1.421875 -20.925781 1.140625 -21.03125 L 1.140625 -21.90625 L 7.015625 -21.90625 L 22.859375 -5.53125 L 22.859375 -16.125 C 22.859375 -17.1875 22.707031 -18.15625 22.40625 -19.03125 C 22.28125 -19.394531 22.109375 -19.675781 21.890625 -19.875 C 21.679688 -20.082031 21.453125 -20.226562 21.203125 -20.3125 C 20.960938 -20.40625 20.632812 -20.5 20.21875 -20.59375 C 20.144531 -20.625 19.96875 -20.675781 19.6875 -20.75 C 19.414062 -20.820312 19.171875 -20.910156 18.953125 -21.015625 C 18.953125 -21.304688 18.96875 -21.601562 19 -21.90625 L 27.875 -21.90625 L 27.875 -21 C 27.5625 -20.851562 27.234375 -20.710938 26.890625 -20.578125 C 26.078125 -20.222656 25.507812 -19.925781 25.1875 -19.6875 C 24.875 -19.457031 24.65625 -19.09375 24.53125 -18.59375 C 24.40625 -18.09375 24.332031 -17.273438 24.3125 -16.140625 C 24.3125 -15.566406 24.300781 -14.71875 24.28125 -13.59375 C 24.269531 -12.738281 24.257812 -11.675781 24.25 -10.40625 C 24.238281 -9.132812 24.234375 -7.644531 24.234375 -5.9375 C 24.234375 -5.195312 24.300781 -4.097656 24.4375 -2.640625 C 24.550781 -1.410156 24.613281 -0.476562 24.625 0.15625 C 24.40625 0.226562 24.128906 0.265625 23.796875 0.265625 C 23.441406 0.265625 23.125 0.226562 22.84375 0.15625 C 22.03125 -0.832031 21.109375 -1.882812 20.078125 -3 L 6.78125 -16.984375 L 6.78125 -5.171875 C 6.78125 -4.421875 6.875 -3.660156 7.0625 -2.890625 C 7.15625 -2.515625 7.316406 -2.222656 7.546875 -2.015625 C 7.785156 -1.804688 8.039062 -1.65625 8.3125 -1.5625 C 8.59375 -1.476562 8.96875 -1.390625 9.4375 -1.296875 C 10.09375 -1.191406 10.578125 -1.054688 10.890625 -0.890625 C 10.890625 -0.597656 10.875 -0.300781 10.84375 0 L 1.34375 0 C 1.320312 -0.195312 1.3125 -0.5 1.3125 -0.90625 L 2.09375 -1.109375 C 2.8125 -1.285156 3.378906 -1.457031 3.796875 -1.625 C 4.210938 -1.800781 4.578125 -2.078125 4.890625 -2.453125 C 5.203125 -2.835938 5.382812 -3.359375 5.4375 -4.015625 Z M 5.4375 -18.359375 "/></g></g></g><g fill="#f9f9fa" fill-opacity="1"><g transform="translate(322.265765, 186.790869)"><g><path d="M 4.921875 -17 C 4.921875 -17.65625 4.863281 -18.332031 4.75 -19.03125 C 4.675781 -19.375 4.503906 -19.65625 4.234375 -19.875 C 3.972656 -20.09375 3.671875 -20.265625 3.328125 -20.390625 C 2.984375 -20.515625 2.539062 -20.648438 2 -20.796875 C 1.59375 -20.910156 1.304688 -21 1.140625 -21.0625 L 1.171875 -21.90625 L 11.140625 -21.90625 C 13.941406 -21.90625 16.410156 -21.539062 18.546875 -20.8125 C 20.679688 -20.082031 22.363281 -18.910156 23.59375 -17.296875 C 24.832031 -15.691406 25.453125 -13.617188 25.453125 -11.078125 C 25.453125 -9.117188 24.984375 -7.296875 24.046875 -5.609375 C 23.109375 -3.921875 21.722656 -2.5625 19.890625 -1.53125 C 18.054688 -0.507812 15.851562 0 13.28125 0 L 1.171875 0 L 1.140625 -0.875 L 2.03125 -1.109375 C 2.664062 -1.253906 3.171875 -1.398438 3.546875 -1.546875 C 3.929688 -1.691406 4.253906 -1.9375 4.515625 -2.28125 C 4.785156 -2.625 4.921875 -3.09375 4.921875 -3.6875 Z M 8.53125 -4.5625 C 8.53125 -3.582031 8.71875 -2.8125 9.09375 -2.25 C 9.46875 -1.6875 10.113281 -1.382812 11.03125 -1.34375 C 11.65625 -1.3125 12.296875 -1.296875 12.953125 -1.296875 C 14.796875 -1.296875 16.359375 -1.722656 17.640625 -2.578125 C 18.921875 -3.441406 19.875 -4.554688 20.5 -5.921875 C 21.125 -7.296875 21.4375 -8.738281 21.4375 -10.25 C 21.4375 -12.257812 21.078125 -14.039062 20.359375 -15.59375 C 19.640625 -17.144531 18.523438 -18.367188 17.015625 -19.265625 C 15.515625 -20.171875 13.628906 -20.625 11.359375 -20.625 L 8.53125 -20.625 Z M 8.53125 -4.5625 "/></g></g></g><g fill="#f9f9fa" fill-opacity="1"><g transform="translate(350.885188, 186.790869)"><g><path d="M 3.296875 -6.765625 C 3.410156 -6.578125 3.503906 -6.378906 3.578125 -6.171875 C 3.648438 -5.972656 3.734375 -5.710938 3.828125 -5.390625 C 3.867188 -5.273438 3.90625 -5.144531 3.9375 -5 C 4.332031 -3.707031 5.078125 -2.710938 6.171875 -2.015625 C 7.273438 -1.316406 8.535156 -0.96875 9.953125 -0.96875 C 10.691406 -0.96875 11.410156 -1.097656 12.109375 -1.359375 C 12.804688 -1.628906 13.382812 -2.03125 13.84375 -2.5625 C 14.300781 -3.09375 14.53125 -3.742188 14.53125 -4.515625 C 14.53125 -5.171875 14.296875 -5.785156 13.828125 -6.359375 C 13.359375 -6.929688 12.78125 -7.441406 12.09375 -7.890625 C 11.40625 -8.347656 10.453125 -8.914062 9.234375 -9.59375 C 7.816406 -10.375 6.660156 -11.066406 5.765625 -11.671875 C 4.878906 -12.285156 4.128906 -13.007812 3.515625 -13.84375 C 2.898438 -14.675781 2.59375 -15.617188 2.59375 -16.671875 C 2.59375 -17.972656 2.957031 -19.046875 3.6875 -19.890625 C 4.425781 -20.742188 5.367188 -21.363281 6.515625 -21.75 C 7.671875 -22.132812 8.890625 -22.328125 10.171875 -22.328125 C 11.265625 -22.328125 12.359375 -22.191406 13.453125 -21.921875 C 14.546875 -21.660156 15.585938 -21.273438 16.578125 -20.765625 L 16.796875 -15.96875 L 15.75 -15.96875 C 15.613281 -16.226562 15.457031 -16.640625 15.28125 -17.203125 L 15.109375 -17.6875 C 14.734375 -18.789062 14.078125 -19.625 13.140625 -20.1875 C 12.203125 -20.75 11.117188 -21.03125 9.890625 -21.03125 C 9.265625 -21.03125 8.628906 -20.925781 7.984375 -20.71875 C 7.347656 -20.507812 6.8125 -20.179688 6.375 -19.734375 C 5.945312 -19.285156 5.734375 -18.738281 5.734375 -18.09375 C 5.734375 -17.488281 5.957031 -16.921875 6.40625 -16.390625 C 6.851562 -15.867188 7.410156 -15.390625 8.078125 -14.953125 C 8.742188 -14.523438 9.660156 -13.984375 10.828125 -13.328125 C 12.316406 -12.492188 13.523438 -11.757812 14.453125 -11.125 C 15.378906 -10.5 16.171875 -9.734375 16.828125 -8.828125 C 17.484375 -7.929688 17.8125 -6.921875 17.8125 -5.796875 C 17.8125 -4.390625 17.421875 -3.21875 16.640625 -2.28125 C 15.867188 -1.34375 14.867188 -0.65625 13.640625 -0.21875 C 12.410156 0.21875 11.109375 0.4375 9.734375 0.4375 C 8.492188 0.4375 7.164062 0.285156 5.75 -0.015625 C 4.332031 -0.328125 3.1875 -0.753906 2.3125 -1.296875 L 2.3125 -6.734375 Z M 3.296875 -6.765625 "/></g></g></g><g fill="#f9f9fa" fill-opacity="1"><g transform="translate(160.396033, 214.371908)"><g><path d="M 13.296875 -0.90625 C 12.628906 -0.5625 11.859375 -0.28125 10.984375 -0.0625 C 10.117188 0.144531 9.238281 0.25 8.34375 0.25 C 6.90625 0.25 5.632812 -0.0078125 4.53125 -0.53125 C 3.4375 -1.0625 2.585938 -1.804688 1.984375 -2.765625 C 1.378906 -3.734375 1.078125 -4.851562 1.078125 -6.125 C 1.078125 -7.425781 1.421875 -8.578125 2.109375 -9.578125 C 2.796875 -10.578125 3.722656 -11.351562 4.890625 -11.90625 C 6.054688 -12.457031 7.328125 -12.734375 8.703125 -12.734375 C 9.460938 -12.734375 10.15625 -12.675781 10.78125 -12.5625 C 11.414062 -12.445312 12.128906 -12.25 12.921875 -11.96875 L 13.203125 -9.0625 C 13.003906 -9.050781 12.820312 -9.046875 12.65625 -9.046875 C 12.5625 -9.117188 12.476562 -9.210938 12.40625 -9.328125 C 12.332031 -9.453125 12.234375 -9.640625 12.109375 -9.890625 C 12.035156 -10.015625 11.960938 -10.140625 11.890625 -10.265625 C 11.828125 -10.390625 11.765625 -10.488281 11.703125 -10.5625 C 10.898438 -11.519531 9.816406 -12 8.453125 -12 C 7.484375 -12 6.609375 -11.757812 5.828125 -11.28125 C 5.054688 -10.800781 4.453125 -10.140625 4.015625 -9.296875 C 3.585938 -8.453125 3.375 -7.515625 3.375 -6.484375 C 3.375 -5.359375 3.585938 -4.347656 4.015625 -3.453125 C 4.453125 -2.554688 5.054688 -1.851562 5.828125 -1.34375 C 6.609375 -0.84375 7.503906 -0.59375 8.515625 -0.59375 C 9.046875 -0.59375 9.515625 -0.640625 9.921875 -0.734375 C 10.328125 -0.828125 10.710938 -0.988281 11.078125 -1.21875 C 11.148438 -1.875 11.1875 -2.6875 11.1875 -3.65625 C 11.1875 -4.257812 11.097656 -4.8125 10.921875 -5.3125 C 10.847656 -5.507812 10.710938 -5.644531 10.515625 -5.71875 C 10.328125 -5.800781 10.066406 -5.867188 9.734375 -5.921875 C 9.441406 -5.972656 9.238281 -6.019531 9.125 -6.0625 C 9.125 -6.15625 9.125 -6.25 9.125 -6.34375 C 9.132812 -6.445312 9.140625 -6.519531 9.140625 -6.5625 L 14.890625 -6.5625 C 14.890625 -6.519531 14.894531 -6.445312 14.90625 -6.34375 C 14.914062 -6.25 14.921875 -6.15625 14.921875 -6.0625 C 14.835938 -6.03125 14.742188 -6 14.640625 -5.96875 C 14.328125 -5.863281 14.082031 -5.757812 13.90625 -5.65625 C 13.738281 -5.5625 13.59375 -5.414062 13.46875 -5.21875 C 13.351562 -5.03125 13.296875 -4.769531 13.296875 -4.4375 Z M 13.296875 -0.90625 "/></g></g></g><g fill="#f9f9fa" fill-opacity="1"><g transform="translate(184.952414, 214.371908)"><g><path d="M 6.671875 -5.203125 C 6.515625 -5.429688 6.382812 -5.597656 6.28125 -5.703125 C 6.175781 -5.816406 6.050781 -5.898438 5.90625 -5.953125 C 5.757812 -6.015625 5.554688 -6.050781 5.296875 -6.0625 L 4.6875 -6.109375 L 4.6875 -2.40625 C 4.6875 -1.945312 4.726562 -1.609375 4.8125 -1.390625 C 4.894531 -1.171875 5.003906 -1.023438 5.140625 -0.953125 C 5.273438 -0.890625 5.484375 -0.832031 5.765625 -0.78125 C 5.960938 -0.75 6.132812 -0.710938 6.28125 -0.671875 C 6.4375 -0.640625 6.597656 -0.582031 6.765625 -0.5 L 6.75 0 L 0.671875 0 L 0.65625 -0.5 C 0.820312 -0.59375 0.976562 -0.660156 1.125 -0.703125 C 1.28125 -0.742188 1.457031 -0.78125 1.65625 -0.8125 C 1.914062 -0.851562 2.109375 -0.910156 2.234375 -0.984375 C 2.359375 -1.054688 2.453125 -1.21875 2.515625 -1.46875 C 2.585938 -1.71875 2.625 -2.113281 2.625 -2.65625 L 2.625 -9.9375 C 2.625 -10.382812 2.585938 -10.722656 2.515625 -10.953125 C 2.441406 -11.179688 2.332031 -11.335938 2.1875 -11.421875 C 2.039062 -11.515625 1.8125 -11.609375 1.5 -11.703125 C 1.175781 -11.785156 0.894531 -11.882812 0.65625 -12 L 0.671875 -12.5 L 5.09375 -12.5 C 6.289062 -12.5 7.335938 -12.441406 8.234375 -12.328125 C 9.128906 -12.222656 9.929688 -11.9375 10.640625 -11.46875 C 11.347656 -11 11.703125 -10.28125 11.703125 -9.3125 C 11.703125 -8.707031 11.53125 -8.1875 11.1875 -7.75 C 10.851562 -7.3125 10.421875 -6.96875 9.890625 -6.71875 C 9.367188 -6.46875 8.804688 -6.296875 8.203125 -6.203125 C 8.285156 -6.109375 8.664062 -5.578125 9.34375 -4.609375 C 9.851562 -3.898438 10.285156 -3.304688 10.640625 -2.828125 C 10.992188 -2.347656 11.347656 -1.894531 11.703125 -1.46875 C 11.910156 -1.238281 12.097656 -1.0625 12.265625 -0.9375 C 12.429688 -0.8125 12.640625 -0.707031 12.890625 -0.625 C 13.140625 -0.550781 13.453125 -0.515625 13.828125 -0.515625 L 13.828125 0.015625 C 13.191406 0.171875 12.628906 0.25 12.140625 0.25 C 11.460938 0.25 10.835938 0.0390625 10.265625 -0.375 C 9.703125 -0.789062 9.210938 -1.28125 8.796875 -1.84375 C 8.390625 -2.414062 7.921875 -3.144531 7.390625 -4.03125 C 7.078125 -4.570312 6.835938 -4.960938 6.671875 -5.203125 Z M 5.171875 -6.75 C 5.992188 -6.75 6.703125 -6.796875 7.296875 -6.890625 C 7.890625 -6.984375 8.398438 -7.207031 8.828125 -7.5625 C 9.253906 -7.925781 9.46875 -8.46875 9.46875 -9.1875 C 9.46875 -9.988281 9.238281 -10.578125 8.78125 -10.953125 C 8.320312 -11.328125 7.785156 -11.554688 7.171875 -11.640625 C 6.554688 -11.734375 5.800781 -11.78125 4.90625 -11.78125 L 4.6875 -11.78125 L 4.6875 -6.75 Z M 5.171875 -6.75 "/></g></g></g><g fill="#f9f9fa" fill-opacity="1"><g transform="translate(208.175353, 214.371908)"><g><path d="M 7.71875 -12.734375 C 8.914062 -12.734375 10.015625 -12.460938 11.015625 -11.921875 C 12.023438 -11.390625 12.828125 -10.628906 13.421875 -9.640625 C 14.015625 -8.648438 14.3125 -7.507812 14.3125 -6.21875 C 14.3125 -4.945312 14.003906 -3.820312 13.390625 -2.84375 C 12.785156 -1.863281 11.960938 -1.101562 10.921875 -0.5625 C 9.890625 -0.0195312 8.757812 0.25 7.53125 0.25 C 6.394531 0.25 5.332031 -0.0078125 4.34375 -0.53125 C 3.363281 -1.050781 2.570312 -1.789062 1.96875 -2.75 C 1.375 -3.71875 1.078125 -4.835938 1.078125 -6.109375 C 1.078125 -7.515625 1.390625 -8.710938 2.015625 -9.703125 C 2.648438 -10.703125 3.472656 -11.457031 4.484375 -11.96875 C 5.503906 -12.476562 6.582031 -12.734375 7.71875 -12.734375 Z M 8.03125 -0.484375 C 8.800781 -0.484375 9.492188 -0.6875 10.109375 -1.09375 C 10.722656 -1.507812 11.203125 -2.101562 11.546875 -2.875 C 11.898438 -3.65625 12.078125 -4.566406 12.078125 -5.609375 C 12.078125 -6.804688 11.878906 -7.890625 11.484375 -8.859375 C 11.085938 -9.828125 10.53125 -10.59375 9.8125 -11.15625 C 9.101562 -11.71875 8.289062 -12 7.375 -12 C 6.625 -12 5.941406 -11.800781 5.328125 -11.40625 C 4.710938 -11.019531 4.222656 -10.441406 3.859375 -9.671875 C 3.492188 -8.910156 3.3125 -7.988281 3.3125 -6.90625 C 3.3125 -5.707031 3.507812 -4.617188 3.90625 -3.640625 C 4.3125 -2.660156 4.875 -1.890625 5.59375 -1.328125 C 6.320312 -0.765625 7.132812 -0.484375 8.03125 -0.484375 Z M 8.03125 -0.484375 "/></g></g></g><g fill="#f9f9fa" fill-opacity="1"><g transform="translate(232.990752, 214.371908)"><g><path d="M 6.625 -12 C 6.363281 -11.90625 6.023438 -11.816406 5.609375 -11.734375 C 5.265625 -11.660156 5.015625 -11.578125 4.859375 -11.484375 C 4.710938 -11.398438 4.597656 -11.234375 4.515625 -10.984375 C 4.441406 -10.742188 4.40625 -10.351562 4.40625 -9.8125 L 4.40625 -5.71875 C 4.40625 -4.175781 4.71875 -2.96875 5.34375 -2.09375 C 5.96875 -1.21875 7.023438 -0.78125 8.515625 -0.78125 C 11.265625 -0.78125 12.640625 -2.484375 12.640625 -5.890625 L 12.640625 -9.65625 C 12.640625 -10.226562 12.597656 -10.644531 12.515625 -10.90625 C 12.441406 -11.164062 12.320312 -11.34375 12.15625 -11.4375 C 11.988281 -11.539062 11.707031 -11.640625 11.3125 -11.734375 C 10.945312 -11.828125 10.644531 -11.914062 10.40625 -12 L 10.40625 -12.5 L 15.578125 -12.5 L 15.59375 -12 C 15.5 -11.945312 15.394531 -11.90625 15.28125 -11.875 C 15.164062 -11.84375 15.019531 -11.8125 14.84375 -11.78125 C 14.59375 -11.738281 14.394531 -11.695312 14.25 -11.65625 C 14.101562 -11.613281 13.96875 -11.539062 13.84375 -11.4375 C 13.71875 -11.34375 13.628906 -11.207031 13.578125 -11.03125 C 13.472656 -10.6875 13.421875 -10.28125 13.421875 -9.8125 C 13.421875 -9.5 13.429688 -9.007812 13.453125 -8.34375 C 13.460938 -7.6875 13.46875 -7.191406 13.46875 -6.859375 C 13.46875 -5.398438 13.335938 -4.164062 13.078125 -3.15625 C 12.828125 -2.15625 12.296875 -1.335938 11.484375 -0.703125 C 10.671875 -0.0664062 9.46875 0.25 7.875 0.25 C 6.957031 0.25 6.101562 0.101562 5.3125 -0.1875 C 4.519531 -0.476562 3.859375 -0.929688 3.328125 -1.546875 C 2.804688 -2.160156 2.5 -2.925781 2.40625 -3.84375 C 2.332031 -4.507812 2.296875 -5.351562 2.296875 -6.375 C 2.296875 -6.957031 2.304688 -7.539062 2.328125 -8.125 C 2.335938 -8.882812 2.34375 -9.453125 2.34375 -9.828125 C 2.34375 -10.296875 2.3125 -10.664062 2.25 -10.9375 C 2.1875 -11.1875 2.023438 -11.375 1.765625 -11.5 C 1.515625 -11.632812 1.175781 -11.753906 0.75 -11.859375 C 0.539062 -11.921875 0.375 -11.96875 0.25 -12 L 0.28125 -12.5 L 6.609375 -12.5 Z M 6.625 -12 "/></g></g></g><g fill="#f9f9fa" fill-opacity="1"><g transform="translate(258.151496, 214.371908)"><g><path d="M 2.6875 -9.890625 C 2.6875 -10.367188 2.644531 -10.722656 2.5625 -10.953125 C 2.488281 -11.191406 2.378906 -11.351562 2.234375 -11.4375 C 2.085938 -11.53125 1.851562 -11.617188 1.53125 -11.703125 C 1.21875 -11.796875 0.925781 -11.894531 0.65625 -12 L 0.6875 -12.5 L 5.4375 -12.5 C 6.644531 -12.5 7.695312 -12.429688 8.59375 -12.296875 C 9.5 -12.171875 10.285156 -11.851562 10.953125 -11.34375 C 11.628906 -10.832031 11.96875 -10.054688 11.96875 -9.015625 C 11.96875 -8.179688 11.769531 -7.484375 11.375 -6.921875 C 10.976562 -6.359375 10.441406 -5.941406 9.765625 -5.671875 C 9.097656 -5.398438 8.359375 -5.265625 7.546875 -5.265625 C 7.398438 -5.265625 7.160156 -5.285156 6.828125 -5.328125 C 6.503906 -5.378906 6.207031 -5.453125 5.9375 -5.546875 C 5.675781 -5.648438 5.546875 -5.765625 5.546875 -5.890625 C 5.546875 -6.003906 5.6875 -6.0625 5.96875 -6.0625 L 6.109375 -6.0625 C 6.890625 -6.0625 7.535156 -6.128906 8.046875 -6.265625 C 8.566406 -6.410156 8.976562 -6.6875 9.28125 -7.09375 C 9.582031 -7.507812 9.734375 -8.101562 9.734375 -8.875 C 9.734375 -9.582031 9.535156 -10.15625 9.140625 -10.59375 C 8.753906 -11.039062 8.253906 -11.359375 7.640625 -11.546875 C 7.035156 -11.734375 6.382812 -11.828125 5.6875 -11.828125 C 5.40625 -11.828125 5.097656 -11.8125 4.765625 -11.78125 L 4.765625 -2.640625 C 4.765625 -2.097656 4.796875 -1.703125 4.859375 -1.453125 C 4.929688 -1.210938 5.035156 -1.050781 5.171875 -0.96875 C 5.304688 -0.894531 5.523438 -0.832031 5.828125 -0.78125 C 6.242188 -0.71875 6.613281 -0.625 6.9375 -0.5 L 6.921875 0 L 0.6875 0 L 0.65625 -0.5 L 0.953125 -0.578125 C 1.335938 -0.679688 1.640625 -0.78125 1.859375 -0.875 C 2.085938 -0.976562 2.28125 -1.128906 2.4375 -1.328125 C 2.601562 -1.523438 2.6875 -1.789062 2.6875 -2.125 Z M 2.6875 -9.890625 "/></g></g></g></svg>