<svg xmlns="http://www.w3.org/2000/svg" xmlns:xlink="http://www.w3.org/1999/xlink" width="500" zoomAndPan="magnify" viewBox="0 0 375 374.999991" height="500" preserveAspectRatio="xMidYMid meet" version="1.0"><defs><clipPath id="452f42b2cd"><path d="M 44 70.703125 L 330 70.703125 L 330 303.953125 L 44 303.953125 Z M 44 70.703125 " clip-rule="nonzero"/></clipPath></defs><g clip-path="url(#452f42b2cd)"><path fill="#ffffff" d="M 321.070312 126.726562 L 281.703125 102.023438 C 282.320312 100.175781 282.644531 98.214844 282.644531 96.203125 C 282.644531 86.050781 274.375 77.789062 264.207031 77.789062 C 259.261719 77.789062 254.71875 79.761719 251.378906 82.992188 L 242.46875 77.402344 C 239.632812 75.621094 236.367188 74.679688 233.023438 74.679688 C 226.871094 74.679688 221.246094 77.785156 217.96875 82.988281 L 216.09375 85.96875 C 214.652344 81.789062 212.105469 78.257812 208.457031 75.8125 C 207.613281 75.042969 206.695312 74.34375 205.699219 73.71875 C 202.722656 71.863281 199.207031 70.882812 195.535156 70.882812 C 185.855469 70.882812 175.664062 77.425781 168.867188 87.980469 C 168.804688 88.066406 168.734375 88.1875 168.664062 88.292969 L 167.523438 84.363281 C 166.25 80.007812 163.359375 76.386719 159.382812 74.171875 C 159.269531 74.109375 159.15625 74.050781 159.039062 73.992188 L 158.546875 73.746094 C 156.226562 72.617188 153.636719 72.023438 151.058594 72.023438 C 150.675781 72.023438 150.292969 72.035156 149.910156 72.058594 C 135.578125 73.011719 99.222656 77.023438 71.320312 93.632812 C 67.101562 96.136719 64.136719 100.304688 63.179688 105.078125 C 63.101562 105.445312 63.050781 105.78125 63.003906 106.152344 C 62.707031 108.316406 62.828125 110.492188 63.363281 112.582031 L 70.398438 140.683594 C 68.328125 139.878906 66.085938 139.417969 63.734375 139.417969 C 53.566406 139.417969 45.296875 147.679688 45.296875 157.832031 C 45.296875 167.429688 52.691406 175.328125 62.085938 176.164062 C 55.96875 179.953125 50.625 186.449219 47.320312 194.613281 C 47.207031 194.863281 47.101562 195.109375 47.011719 195.359375 C 43.308594 204.957031 43.105469 215.238281 46.480469 222.902344 C 48.730469 228.007812 52.371094 231.71875 57.023438 233.664062 C 57.980469 234.253906 59 234.761719 60.074219 235.183594 C 61.738281 235.832031 63.484375 236.222656 65.273438 236.371094 C 65.25 236.449219 65.214844 236.519531 65.195312 236.601562 C 64.03125 241.417969 66.703125 246.289062 71.25 247.984375 C 70.984375 250.199219 71.507812 252.363281 72.613281 254.175781 L 67.667969 254.175781 C 58.355469 254.175781 50.777344 261.746094 50.777344 271.046875 L 50.777344 278.710938 C 50.777344 288.011719 58.355469 295.578125 67.667969 295.578125 L 105.046875 295.578125 C 106.976562 299.101562 110.347656 301.59375 114.425781 302.417969 C 115.410156 302.609375 116.625 302.804688 118.167969 303.035156 C 122.0625 303.5625 126.3125 303.828125 130.804688 303.828125 C 135.875 303.828125 141.246094 303.484375 146.75 302.8125 C 154.34375 301.90625 162.429688 300.332031 170.804688 298.132812 C 171.042969 298.085938 171.285156 298.03125 171.527344 297.960938 L 173.109375 297.515625 C 173.28125 297.464844 173.457031 297.410156 173.625 297.351562 C 174.78125 297.019531 175.933594 296.679688 177.085938 296.328125 C 180.246094 298.902344 184.25 300.390625 188.453125 300.390625 C 197.703125 300.390625 205.347656 293.390625 206.347656 284.410156 C 206.785156 284.179688 207.21875 283.941406 207.652344 283.703125 L 218.1875 290.3125 C 221.023438 292.09375 224.289062 293.035156 227.628906 293.035156 C 233.785156 293.035156 239.410156 289.925781 242.683594 284.726562 L 273.570312 235.621094 C 274.289062 235.277344 274.964844 234.851562 275.585938 234.34375 C 277.257812 235.597656 279.289062 236.277344 281.414062 236.277344 C 284.058594 236.277344 286.625 235.179688 288.449219 233.273438 C 290.242188 231.394531 291.199219 228.929688 291.136719 226.332031 C 291.085938 224.125 290.300781 222.050781 288.914062 220.378906 C 290.222656 218.644531 290.902344 216.53125 290.847656 214.328125 C 290.8125 212.777344 290.414062 211.292969 289.703125 209.96875 L 326.664062 151.195312 C 331.875 142.90625 329.363281 131.933594 321.070312 126.726562 Z M 321.070312 126.726562 " fill-opacity="1" fill-rule="nonzero"/></g><path fill="#00bdf9" d="M 316.515625 135.425781 C 320.816406 138.128906 322.113281 143.800781 319.410156 148.101562 L 295.207031 186.59375 L 285.578125 201.898438 L 235.429688 281.632812 C 232.726562 285.929688 227.046875 287.226562 222.742188 284.527344 L 144.128906 235.203125 C 139.824219 232.503906 138.527344 226.828125 141.230469 222.53125 L 189.601562 145.613281 L 200.316406 128.601562 L 225.222656 88.992188 C 227.925781 84.695312 233.609375 83.398438 237.914062 86.101562 Z M 316.515625 135.425781 " fill-opacity="1" fill-rule="nonzero"/><path fill="#ffeedc" d="M 189.136719 257.296875 C 188.347656 257.296875 187.574219 257.078125 186.894531 256.652344 C 185.9375 256.050781 185.269531 255.109375 185.015625 254 C 184.761719 252.894531 184.953125 251.757812 185.554688 250.800781 L 268.664062 118.667969 C 269.265625 117.710938 270.207031 117.046875 271.316406 116.792969 C 272.425781 116.539062 273.5625 116.730469 274.519531 117.332031 C 276.503906 118.574219 277.105469 121.203125 275.859375 123.183594 L 192.75 255.316406 C 192.148438 256.273438 191.207031 256.9375 190.097656 257.191406 C 189.777344 257.261719 189.457031 257.296875 189.136719 257.296875 Z M 272.265625 117.277344 C 271.050781 117.277344 269.859375 117.878906 269.167969 118.984375 L 186.058594 251.117188 C 185.542969 251.9375 185.378906 252.917969 185.597656 253.867188 C 185.816406 254.820312 186.386719 255.632812 187.210938 256.148438 C 188.917969 257.21875 191.175781 256.703125 192.25 255 L 275.355469 122.867188 C 276.425781 121.164062 275.910156 118.90625 274.207031 117.835938 C 273.601562 117.457031 272.929688 117.277344 272.265625 117.277344 Z M 272.265625 117.277344 " fill-opacity="1" fill-rule="nonzero"/><path fill="#bb8c98" d="M 247.570312 126.226562 C 244.058594 131.808594 236.679688 133.492188 231.085938 129.984375 C 225.496094 126.476562 223.8125 119.105469 227.324219 113.519531 C 230.835938 107.9375 238.214844 106.253906 243.808594 109.761719 C 249.398438 113.269531 251.082031 120.640625 247.570312 126.226562 Z M 247.570312 126.226562 " fill-opacity="1" fill-rule="nonzero"/><path fill="#edd9de" d="M 247.269531 124.421875 C 243.757812 130.007812 236.375 131.691406 230.785156 128.183594 C 225.195312 124.675781 223.507812 117.304688 227.023438 111.71875 C 230.535156 106.132812 237.914062 104.453125 243.503906 107.960938 C 249.09375 111.46875 250.78125 118.839844 247.269531 124.421875 Z M 247.269531 124.421875 " fill-opacity="1" fill-rule="nonzero"/><path fill="#edd9de" d="M 237.121094 130.730469 C 234.765625 130.730469 232.449219 130.070312 230.40625 128.785156 C 224.492188 125.074219 222.703125 117.246094 226.417969 111.339844 C 230.132812 105.429688 237.96875 103.644531 243.882812 107.355469 C 246.75 109.152344 248.742188 111.957031 249.496094 115.253906 C 250.25 118.550781 249.671875 121.941406 247.871094 124.800781 C 246.070312 127.664062 243.265625 129.65625 239.964844 130.40625 C 239.019531 130.625 238.066406 130.730469 237.121094 130.730469 Z M 237.164062 106.84375 C 233.421875 106.84375 229.757812 108.707031 227.625 112.097656 C 224.328125 117.339844 225.917969 124.285156 231.164062 127.578125 C 233.707031 129.175781 236.71875 129.683594 239.648438 129.019531 C 242.574219 128.351562 245.066406 126.585938 246.664062 124.042969 C 248.261719 121.503906 248.773438 118.496094 248.105469 115.570312 C 247.4375 112.648438 245.667969 110.160156 243.125 108.5625 C 241.273438 107.398438 239.207031 106.84375 237.164062 106.84375 Z M 237.164062 106.84375 " fill-opacity="1" fill-rule="nonzero"/><path fill="#bb8c98" d="M 228.167969 157.074219 C 224.65625 162.65625 217.277344 164.339844 211.683594 160.832031 C 206.09375 157.324219 204.410156 149.953125 207.921875 144.371094 C 211.433594 138.785156 218.8125 137.101562 224.402344 140.609375 C 229.996094 144.117188 231.679688 151.488281 228.167969 157.074219 Z M 228.167969 157.074219 " fill-opacity="1" fill-rule="nonzero"/><path fill="#edd9de" d="M 227.867188 155.269531 C 224.351562 160.855469 216.972656 162.539062 211.382812 159.03125 C 205.792969 155.523438 204.105469 148.152344 207.617188 142.566406 C 211.132812 136.980469 218.511719 135.300781 224.101562 138.808594 C 229.691406 142.316406 231.378906 149.6875 227.867188 155.269531 Z M 227.867188 155.269531 " fill-opacity="1" fill-rule="nonzero"/><path fill="#edd9de" d="M 217.722656 161.570312 C 215.417969 161.570312 213.089844 160.945312 211.003906 159.632812 C 205.089844 155.921875 203.300781 148.09375 207.015625 142.1875 C 210.730469 136.277344 218.566406 134.492188 224.480469 138.203125 C 230.398438 141.914062 232.1875 149.742188 228.46875 155.648438 C 226.066406 159.472656 221.9375 161.570312 217.722656 161.570312 Z M 217.761719 137.695312 C 214.019531 137.695312 210.355469 139.554688 208.222656 142.945312 C 204.925781 148.1875 206.511719 155.132812 211.761719 158.425781 C 217.011719 161.71875 223.960938 160.132812 227.261719 154.890625 C 230.558594 149.648438 228.972656 142.703125 223.722656 139.410156 C 221.871094 138.25 219.800781 137.695312 217.761719 137.695312 Z M 217.761719 137.695312 " fill-opacity="1" fill-rule="nonzero"/><path fill="#bb8c98" d="M 208.28125 188.691406 C 204.769531 194.277344 197.386719 195.960938 191.796875 192.453125 C 186.207031 188.945312 184.519531 181.574219 188.035156 175.988281 C 191.546875 170.402344 198.925781 168.722656 204.515625 172.230469 C 210.105469 175.738281 211.792969 183.109375 208.28125 188.691406 Z M 208.28125 188.691406 " fill-opacity="1" fill-rule="nonzero"/><path fill="#edd9de" d="M 207.976562 186.890625 C 204.464844 192.472656 197.085938 194.15625 191.496094 190.648438 C 185.902344 187.140625 184.21875 179.769531 187.730469 174.1875 C 191.242188 168.601562 198.625 166.917969 204.214844 170.425781 C 209.804688 173.933594 211.492188 181.304688 207.976562 186.890625 Z M 207.976562 186.890625 " fill-opacity="1" fill-rule="nonzero"/><path fill="#edd9de" d="M 197.835938 193.1875 C 195.53125 193.1875 193.203125 192.5625 191.117188 191.253906 C 188.25 189.457031 186.257812 186.652344 185.503906 183.355469 C 184.75 180.058594 185.328125 176.667969 187.128906 173.804688 C 190.84375 167.898438 198.679688 166.113281 204.59375 169.820312 C 210.507812 173.535156 212.296875 181.363281 208.582031 187.269531 C 206.179688 191.089844 202.050781 193.1875 197.835938 193.1875 Z M 197.875 169.3125 C 194.132812 169.3125 190.46875 171.175781 188.335938 174.566406 C 186.738281 177.105469 186.226562 180.113281 186.894531 183.039062 C 187.5625 185.960938 189.332031 188.449219 191.875 190.042969 C 197.125 193.34375 204.078125 191.753906 207.375 186.511719 C 210.671875 181.269531 209.082031 174.324219 203.835938 171.027344 C 201.980469 169.867188 199.917969 169.3125 197.875 169.3125 Z M 197.875 169.3125 " fill-opacity="1" fill-rule="nonzero"/><path fill="#bb8c98" d="M 186.9375 222.625 C 183.425781 228.210938 176.042969 229.894531 170.453125 226.386719 C 164.863281 222.878906 163.179688 215.507812 166.691406 209.921875 C 170.203125 204.335938 177.582031 202.65625 183.175781 206.164062 C 188.765625 209.671875 190.449219 217.042969 186.9375 222.625 Z M 186.9375 222.625 " fill-opacity="1" fill-rule="nonzero"/><path fill="#edd9de" d="M 186.636719 220.824219 C 183.121094 226.40625 175.742188 228.089844 170.152344 224.582031 C 164.5625 221.074219 162.875 213.703125 166.386719 208.117188 C 169.902344 202.535156 177.28125 200.851562 182.871094 204.359375 C 188.460938 207.867188 190.148438 215.238281 186.636719 220.824219 Z M 186.636719 220.824219 " fill-opacity="1" fill-rule="nonzero"/><path fill="#edd9de" d="M 176.492188 227.121094 C 174.1875 227.121094 171.859375 226.496094 169.773438 225.1875 C 166.90625 223.386719 164.914062 220.585938 164.160156 217.289062 C 163.40625 213.992188 163.984375 210.601562 165.785156 207.738281 C 169.5 201.832031 177.335938 200.046875 183.25 203.753906 C 189.167969 207.46875 190.957031 215.296875 187.238281 221.203125 C 184.835938 225.023438 180.707031 227.121094 176.492188 227.121094 Z M 176.53125 203.246094 C 172.789062 203.246094 169.125 205.105469 166.992188 208.5 C 165.394531 211.039062 164.882812 214.046875 165.550781 216.972656 C 166.21875 219.894531 167.988281 222.382812 170.53125 223.976562 C 175.78125 227.273438 182.734375 225.6875 186.03125 220.445312 C 189.328125 215.203125 187.742188 208.257812 182.492188 204.960938 C 180.636719 203.800781 178.574219 203.246094 176.53125 203.246094 Z M 176.53125 203.246094 " fill-opacity="1" fill-rule="nonzero"/><path fill="#bb8c98" d="M 298.273438 158.042969 C 294.757812 163.625 287.378906 165.308594 281.789062 161.800781 C 276.199219 158.292969 274.511719 150.921875 278.023438 145.335938 C 281.539062 139.753906 288.917969 138.070312 294.507812 141.578125 C 300.097656 145.085938 301.785156 152.457031 298.273438 158.042969 Z M 298.273438 158.042969 " fill-opacity="1" fill-rule="nonzero"/><path fill="#edd9de" d="M 297.96875 156.238281 C 294.457031 161.824219 287.078125 163.503906 281.488281 159.996094 C 275.894531 156.488281 274.210938 149.117188 277.722656 143.535156 C 281.234375 137.949219 288.613281 136.265625 294.207031 139.773438 C 299.796875 143.285156 301.480469 150.65625 297.96875 156.238281 Z M 297.96875 156.238281 " fill-opacity="1" fill-rule="nonzero"/><path fill="#edd9de" d="M 287.828125 162.539062 C 285.523438 162.539062 283.195312 161.914062 281.109375 160.601562 C 275.191406 156.890625 273.402344 149.0625 277.117188 143.15625 C 280.835938 137.246094 288.671875 135.457031 294.585938 139.171875 C 300.5 142.882812 302.289062 150.710938 298.574219 156.621094 C 296.171875 160.441406 292.042969 162.539062 287.828125 162.539062 Z M 287.867188 138.660156 C 284.125 138.660156 280.460938 140.523438 278.328125 143.914062 C 275.03125 149.15625 276.617188 156.101562 281.867188 159.394531 C 287.113281 162.691406 294.070312 161.105469 297.367188 155.859375 C 300.664062 150.617188 299.074219 143.671875 293.828125 140.378906 C 291.972656 139.214844 289.90625 138.660156 287.867188 138.660156 Z M 287.867188 138.660156 " fill-opacity="1" fill-rule="nonzero"/><path fill="#bb8c98" d="M 278.867188 188.890625 C 275.355469 194.472656 267.976562 196.15625 262.386719 192.648438 C 256.792969 189.140625 255.109375 181.769531 258.621094 176.183594 C 262.132812 170.601562 269.515625 168.917969 275.105469 172.425781 C 280.695312 175.933594 282.382812 183.304688 278.867188 188.890625 Z M 278.867188 188.890625 " fill-opacity="1" fill-rule="nonzero"/><path fill="#edd9de" d="M 278.566406 187.085938 C 275.054688 192.671875 267.675781 194.355469 262.085938 190.847656 C 256.492188 187.335938 254.808594 179.964844 258.320312 174.382812 C 261.832031 168.796875 269.210938 167.113281 274.804688 170.621094 C 280.394531 174.132812 282.078125 181.503906 278.566406 187.085938 Z M 278.566406 187.085938 " fill-opacity="1" fill-rule="nonzero"/><path fill="#edd9de" d="M 268.425781 193.386719 C 266.121094 193.386719 263.792969 192.761719 261.703125 191.449219 C 258.839844 189.652344 256.847656 186.847656 256.09375 183.550781 C 255.339844 180.257812 255.914062 176.863281 257.714844 174.003906 C 259.515625 171.140625 262.324219 169.148438 265.625 168.398438 C 268.921875 167.640625 272.316406 168.222656 275.183594 170.019531 C 281.097656 173.730469 282.886719 181.558594 279.171875 187.46875 C 276.769531 191.289062 272.640625 193.386719 268.425781 193.386719 Z M 268.464844 169.503906 C 267.625 169.503906 266.78125 169.597656 265.941406 169.785156 C 263.015625 170.453125 260.523438 172.21875 258.925781 174.761719 C 257.328125 177.300781 256.816406 180.308594 257.484375 183.234375 C 258.152344 186.15625 259.921875 188.644531 262.464844 190.242188 C 265.007812 191.839844 268.019531 192.351562 270.945312 191.679688 C 273.875 191.015625 276.367188 189.246094 277.964844 186.707031 C 281.261719 181.464844 279.671875 174.519531 274.425781 171.226562 C 272.609375 170.089844 270.554688 169.503906 268.464844 169.503906 Z M 268.464844 169.503906 " fill-opacity="1" fill-rule="nonzero"/><path fill="#bb8c98" d="M 258.980469 220.507812 C 255.46875 226.09375 248.089844 227.777344 242.5 224.265625 C 236.90625 220.757812 235.222656 213.386719 238.734375 207.804688 C 242.246094 202.21875 249.625 200.535156 255.21875 204.042969 C 260.808594 207.554688 262.492188 214.925781 258.980469 220.507812 Z M 258.980469 220.507812 " fill-opacity="1" fill-rule="nonzero"/><path fill="#edd9de" d="M 258.679688 218.707031 C 255.167969 224.289062 247.789062 225.972656 242.195312 222.464844 C 236.605469 218.957031 234.921875 211.585938 238.433594 206 C 241.945312 200.417969 249.324219 198.734375 254.917969 202.242188 C 260.507812 205.75 262.191406 213.121094 258.679688 218.707031 Z M 258.679688 218.707031 " fill-opacity="1" fill-rule="nonzero"/><path fill="#edd9de" d="M 248.53125 225.011719 C 246.175781 225.011719 243.859375 224.351562 241.816406 223.066406 C 238.953125 221.269531 236.957031 218.464844 236.207031 215.167969 C 235.453125 211.875 236.027344 208.484375 237.828125 205.621094 C 241.546875 199.714844 249.378906 197.925781 255.296875 201.636719 C 261.210938 205.351562 263 213.175781 259.285156 219.085938 C 257.484375 221.945312 254.675781 223.9375 251.378906 224.6875 C 250.429688 224.90625 249.476562 225.011719 248.53125 225.011719 Z M 248.578125 201.121094 C 247.738281 201.121094 246.894531 201.214844 246.054688 201.40625 C 243.125 202.074219 240.636719 203.839844 239.039062 206.378906 C 237.441406 208.921875 236.929688 211.929688 237.597656 214.851562 C 238.265625 217.777344 240.035156 220.265625 242.574219 221.859375 C 245.117188 223.457031 248.132812 223.964844 251.058594 223.300781 C 253.984375 222.632812 256.476562 220.867188 258.074219 218.324219 C 261.371094 213.082031 259.785156 206.140625 254.535156 202.847656 C 252.722656 201.707031 250.667969 201.121094 248.578125 201.121094 Z M 248.578125 201.121094 " fill-opacity="1" fill-rule="nonzero"/><path fill="#bb8c98" d="M 237.636719 254.441406 C 234.125 260.027344 226.746094 261.707031 221.15625 258.199219 C 215.5625 254.691406 213.878906 247.320312 217.390625 241.738281 C 220.902344 236.152344 228.285156 234.46875 233.875 237.976562 C 239.464844 241.484375 241.152344 248.855469 237.636719 254.441406 Z M 237.636719 254.441406 " fill-opacity="1" fill-rule="nonzero"/><path fill="#edd9de" d="M 237.335938 252.636719 C 233.824219 258.222656 226.445312 259.90625 220.851562 256.398438 C 215.261719 252.890625 213.578125 245.519531 217.089844 239.933594 C 220.601562 234.351562 227.980469 232.667969 233.574219 236.175781 C 239.164062 239.683594 240.847656 247.054688 237.335938 252.636719 Z M 237.335938 252.636719 " fill-opacity="1" fill-rule="nonzero"/><path fill="#edd9de" d="M 227.191406 258.945312 C 224.832031 258.945312 222.519531 258.285156 220.472656 257 C 217.609375 255.203125 215.617188 252.398438 214.863281 249.101562 C 214.109375 245.808594 214.6875 242.417969 216.484375 239.554688 C 220.203125 233.648438 228.035156 231.859375 233.953125 235.570312 C 236.816406 237.367188 238.8125 240.171875 239.5625 243.46875 C 240.316406 246.765625 239.742188 250.15625 237.941406 253.019531 C 236.140625 255.878906 233.332031 257.871094 230.035156 258.621094 C 229.089844 258.839844 228.136719 258.945312 227.191406 258.945312 Z M 227.230469 235.058594 C 223.488281 235.058594 219.828125 236.921875 217.695312 240.3125 C 216.097656 242.851562 215.585938 245.859375 216.253906 248.785156 C 216.921875 251.707031 218.691406 254.199219 221.234375 255.792969 C 223.777344 257.390625 226.789062 257.898438 229.714844 257.234375 C 232.644531 256.566406 235.136719 254.800781 236.734375 252.257812 C 238.328125 249.71875 238.839844 246.710938 238.171875 243.785156 C 237.503906 240.863281 235.734375 238.375 233.195312 236.777344 C 231.339844 235.617188 229.273438 235.058594 227.230469 235.058594 Z M 227.230469 235.058594 " fill-opacity="1" fill-rule="nonzero"/><path fill="#ffa34f" d="M 218.628906 267.304688 C 213.570312 271.824219 199.261719 282.664062 170.777344 290.722656 L 170.777344 290.738281 L 169.195312 291.1875 L 169.179688 291.167969 C 160.320312 293.523438 152.492188 294.964844 145.734375 295.773438 C 133.503906 297.269531 124.664062 296.734375 119.316406 296.015625 C 118.042969 295.824219 116.957031 295.652344 116.082031 295.480469 C 114.292969 295.121094 112.832031 293.882812 112.210938 292.148438 C 110.972656 288.710938 108.652344 282.132812 105.742188 273.730469 C 105.691406 273.578125 105.640625 273.421875 105.589844 273.25 C 98.277344 252.152344 87.496094 220.078125 81.679688 198.277344 C 80.0625 192.195312 78.808594 186.902344 78.152344 182.898438 C 78.085938 182.609375 78.050781 182.316406 78 182.042969 C 73.972656 155.839844 89.007812 147.628906 89.007812 147.628906 L 88.300781 145.085938 L 85.515625 134.933594 L 99.566406 127.441406 L 123.578125 122.410156 L 162.691406 113.734375 L 166.183594 126.429688 C 166.183594 126.429688 181.046875 125.878906 191.109375 145.65625 C 191.863281 147.097656 192.570312 148.679688 193.257812 150.363281 C 194.238281 152.785156 195.304688 155.84375 196.40625 159.417969 C 202.324219 178.433594 209.683594 211.488281 214.757812 235.59375 C 214.980469 236.605469 215.1875 237.621094 215.394531 238.601562 C 217.664062 249.511719 219.417969 258.269531 220.261719 262.480469 C 220.605469 264.265625 219.988281 266.070312 218.628906 267.304688 Z M 218.628906 267.304688 " fill-opacity="1" fill-rule="nonzero"/><path fill="#ffeedc" d="M 214.757812 235.589844 C 207.019531 243.855469 200.707031 248.800781 179.960938 257.1875 C 156.5 266.667969 130.976562 271.222656 105.589844 273.25 C 98.277344 252.152344 87.496094 220.078125 81.679688 198.277344 C 80.0625 192.195312 78.808594 186.902344 78.152344 182.898438 C 118.144531 180.304688 157.429688 167.335938 191.109375 145.652344 C 191.863281 147.097656 192.570312 148.675781 193.257812 150.359375 C 194.238281 152.785156 195.304688 155.839844 196.40625 159.414062 C 202.324219 178.433594 209.683594 211.488281 214.757812 235.589844 Z M 214.757812 235.589844 " fill-opacity="1" fill-rule="nonzero"/><path fill="#ff6963" d="M 140.097656 191.628906 L 149.203125 188.675781 L 166.09375 240.660156 L 156.988281 243.609375 Z M 140.097656 191.628906 " fill-opacity="1" fill-rule="nonzero"/><path fill="#ff6963" d="M 173.953125 203.613281 L 177.351562 214.113281 L 132.253906 228.6875 L 128.855469 218.1875 Z M 173.953125 203.613281 " fill-opacity="1" fill-rule="nonzero"/><path fill="#ffffff" d="M 170.558594 147.691406 C 171.367188 150.800781 173.480469 153.53125 176.25 155.160156 C 177.398438 155.835938 178.703125 156.335938 180.035156 156.257812 C 182.589844 156.109375 184.632812 153.765625 185.082031 151.25 C 185.527344 148.738281 184.675781 146.152344 183.417969 143.925781 C 182.734375 142.710938 181.917969 141.558594 180.882812 140.621094 C 174.394531 134.761719 168.597656 140.125 170.558594 147.691406 Z M 170.558594 147.691406 " fill-opacity="1" fill-rule="nonzero"/><path fill="#ffffff" d="M 184.496094 175.199219 C 185.367188 176.675781 186.496094 178.054688 187.992188 178.890625 C 189.488281 179.730469 191.402344 179.957031 192.925781 179.164062 C 195.15625 178.003906 195.886719 175.144531 195.855469 172.632812 C 195.792969 168.128906 192.90625 158.136719 186.832031 158.761719 C 179.46875 159.515625 182.136719 171.21875 184.496094 175.199219 Z M 184.496094 175.199219 " fill-opacity="1" fill-rule="nonzero"/><path fill="#412424" d="M 119.3125 296.011719 C 118.042969 295.824219 116.957031 295.652344 116.082031 295.480469 C 114.292969 295.121094 112.828125 293.882812 112.210938 292.148438 C 110.972656 288.710938 108.648438 282.132812 105.742188 273.730469 C 105.691406 273.578125 105.640625 273.421875 105.589844 273.25 C 98.277344 252.152344 87.492188 220.078125 81.679688 198.277344 C 80.0625 192.195312 78.808594 186.902344 78.152344 182.898438 C 78.085938 182.609375 78.050781 182.316406 78 182.039062 C 73.972656 155.839844 89.007812 147.628906 89.007812 147.628906 L 88.300781 145.085938 C 90.347656 145.773438 91.828125 147.199219 91.808594 149.828125 C 91.792969 152.457031 90.296875 155.34375 89.816406 157.953125 C 89.214844 161.167969 88.921875 164.449219 88.851562 167.730469 C 88.660156 175.289062 89.609375 182.832031 90.726562 190.289062 C 93.480469 208.429688 97.074219 226.453125 101.476562 244.285156 C 105.863281 262.03125 111.125 279.675781 119.3125 296.011719 Z M 119.3125 296.011719 " fill-opacity="0.2" fill-rule="nonzero"/><path fill="#ffeedc" d="M 166.496094 113.011719 C 166.496094 113.011719 165.066406 115.605469 159.941406 119.609375 C 159.820312 119.710938 159.699219 119.816406 159.578125 119.902344 C 157.242188 121.703125 154.144531 123.800781 150.121094 126.085938 C 150 126.136719 149.878906 126.222656 149.742188 126.292969 C 146.558594 128.0625 142.773438 129.949219 138.335938 131.910156 C 138.21875 131.960938 138.078125 132.011719 137.941406 132.082031 C 134.898438 133.40625 131.542969 134.761719 127.84375 136.117188 C 127.035156 136.410156 126.246094 136.703125 125.472656 136.960938 C 125.332031 137.011719 125.214844 137.0625 125.074219 137.097656 L 125.058594 137.097656 C 119.933594 138.882812 115.21875 140.171875 110.953125 141.082031 C 110.816406 141.117188 110.660156 141.152344 110.523438 141.167969 C 105.929688 142.148438 101.855469 142.699219 98.261719 142.9375 C 98.105469 142.957031 97.949219 142.972656 97.8125 142.972656 C 93.203125 143.28125 89.4375 143.09375 86.511719 142.75 C 86.359375 142.730469 86.203125 142.714844 86.066406 142.679688 C 81.335938 142.097656 78.960938 141.082031 78.960938 141.082031 L 71.667969 111.964844 C 71.394531 110.878906 71.339844 109.78125 71.496094 108.714844 C 71.511719 108.5625 71.53125 108.425781 71.5625 108.269531 C 72.027344 105.882812 73.492188 103.75 75.691406 102.445312 C 101.75 86.933594 135.996094 83.015625 150.480469 82.054688 C 152.011719 81.949219 153.488281 82.257812 154.796875 82.894531 C 154.933594 82.964844 155.070312 83.03125 155.210938 83.101562 C 157.152344 84.183594 158.648438 85.988281 159.300781 88.21875 Z M 166.496094 113.011719 " fill-opacity="1" fill-rule="nonzero"/><path fill="#9ed9e5" d="M 155.210938 83.101562 C 152.75 85.230469 150.15625 87.136719 147.472656 88.890625 C 147.351562 88.957031 147.230469 89.046875 147.109375 89.128906 C 143.667969 91.3125 140.09375 93.238281 136.445312 94.9375 C 136.308594 95.007812 136.1875 95.058594 136.050781 95.128906 C 132.542969 96.757812 128.996094 98.183594 125.472656 99.472656 L 125.472656 99.492188 C 125.335938 99.527344 125.195312 99.578125 125.058594 99.628906 L 125.058594 99.644531 C 122.101562 100.710938 119.160156 101.691406 116.304688 102.601562 C 115.511719 102.859375 114.703125 103.097656 113.878906 103.339844 C 113.742188 103.390625 113.601562 103.425781 113.449219 103.476562 C 109.769531 104.542969 105.878906 105.488281 101.734375 106.328125 C 101.597656 106.363281 101.441406 106.378906 101.304688 106.414062 C 98.671875 106.929688 95.9375 107.410156 93.082031 107.859375 C 91.640625 108.082031 90.28125 108.289062 88.988281 108.476562 C 88.835938 108.492188 88.695312 108.511719 88.558594 108.527344 C 84.515625 109.09375 81.164062 109.4375 78.1875 109.4375 C 77.894531 109.4375 77.621094 109.4375 77.34375 109.421875 C 77.191406 109.421875 77.035156 109.421875 76.898438 109.402344 C 74.988281 109.351562 73.21875 109.128906 71.496094 108.714844 C 71.515625 108.5625 71.53125 108.425781 71.566406 108.269531 C 77.191406 109.609375 83.191406 108.957031 93.03125 107.445312 C 101.699219 106.105469 109.269531 104.371094 116.164062 102.1875 C 126.210938 98.992188 137.183594 94.953125 146.917969 88.71875 L 146.9375 88.699219 L 146.972656 88.683594 C 149.6875 86.949219 152.320312 85.023438 154.796875 82.894531 C 154.9375 82.964844 155.074219 83.03125 155.210938 83.101562 Z M 155.210938 83.101562 " fill-opacity="1" fill-rule="nonzero"/><path fill="#9ed9e5" d="M 86.511719 142.75 C 86.359375 142.730469 86.203125 142.714844 86.066406 142.679688 L 76.898438 109.402344 L 76.878906 109.367188 L 77.292969 109.25 L 77.34375 109.421875 Z M 86.511719 142.75 " fill-opacity="1" fill-rule="nonzero"/><path fill="#9ed9e5" d="M 98.261719 142.9375 C 98.105469 142.957031 97.949219 142.972656 97.8125 142.972656 C 96.402344 137.699219 94.976562 132.375 93.53125 127.03125 C 91.863281 120.828125 90.195312 114.625 88.558594 108.527344 C 88.542969 108.476562 88.542969 108.441406 88.523438 108.390625 L 88.9375 108.285156 C 88.957031 108.355469 88.972656 108.40625 88.988281 108.476562 C 90.625 114.539062 92.273438 120.742188 93.941406 126.910156 C 95.386719 132.289062 96.832031 137.648438 98.261719 142.9375 Z M 98.261719 142.9375 " fill-opacity="1" fill-rule="nonzero"/><path fill="#9ed9e5" d="M 110.953125 141.082031 C 110.816406 141.117188 110.664062 141.152344 110.523438 141.167969 C 107.394531 129.605469 104.296875 117.90625 101.304688 106.414062 C 101.269531 106.328125 101.253906 106.257812 101.234375 106.171875 L 101.667969 106.070312 C 101.683594 106.15625 101.71875 106.242188 101.734375 106.328125 C 104.710938 117.839844 107.808594 129.519531 110.953125 141.082031 Z M 110.953125 141.082031 " fill-opacity="1" fill-rule="nonzero"/><path fill="#9ed9e5" d="M 125.472656 136.960938 C 125.335938 137.011719 125.214844 137.0625 125.078125 137.097656 L 125.058594 137.097656 C 121.324219 125.878906 117.421875 114.59375 113.449219 103.476562 C 113.429688 103.390625 113.398438 103.304688 113.363281 103.21875 L 113.773438 103.0625 C 113.808594 103.148438 113.84375 103.253906 113.878906 103.339844 C 117.835938 114.453125 121.722656 125.757812 125.472656 136.960938 Z M 125.472656 136.960938 " fill-opacity="1" fill-rule="nonzero"/><path fill="#9ed9e5" d="M 138.335938 131.910156 C 138.21875 131.960938 138.078125 132.011719 137.941406 132.082031 L 125.058594 99.644531 L 124.902344 99.265625 L 125.316406 99.113281 L 125.472656 99.488281 Z M 138.335938 131.910156 " fill-opacity="1" fill-rule="nonzero"/><path fill="#9ed9e5" d="M 150.121094 126.085938 C 150 126.136719 149.878906 126.222656 149.742188 126.289062 C 144.941406 116.035156 140.351562 105.570312 136.050781 95.125 C 136.03125 95.089844 136.03125 95.074219 136.015625 95.039062 L 136.410156 94.867188 C 136.429688 94.886719 136.429688 94.917969 136.445312 94.9375 C 140.726562 105.382812 145.320312 115.847656 150.121094 126.085938 Z M 150.121094 126.085938 " fill-opacity="1" fill-rule="nonzero"/><path fill="#9ed9e5" d="M 159.941406 119.609375 C 159.820312 119.710938 159.699219 119.816406 159.582031 119.902344 C 155.832031 109.507812 151.652344 99.179688 147.109375 89.128906 C 147.042969 88.992188 146.988281 88.855469 146.921875 88.71875 L 146.9375 88.699219 L 147.316406 88.546875 C 147.367188 88.667969 147.417969 88.769531 147.472656 88.890625 C 151.996094 98.90625 156.191406 109.214844 159.941406 119.609375 Z M 159.941406 119.609375 " fill-opacity="1" fill-rule="nonzero"/><path fill="#edd9de" d="M 63.179688 228.667969 C 62.375 228.351562 61.632812 227.949219 60.9375 227.457031 C 54.941406 223.101562 53.398438 212.0625 57.648438 201.109375 C 57.671875 201.066406 57.691406 200.996094 57.714844 200.949219 C 62.402344 189.042969 72.273438 181.75 79.988281 184.386719 C 80.101562 184.425781 80.234375 184.472656 80.363281 184.519531 C 87.621094 187.324219 90.269531 198.253906 86.75 209.582031 C 86.496094 210.417969 86.226562 211.246094 85.890625 212.078125 C 81.152344 224.269531 70.980469 231.695312 63.179688 228.667969 Z M 63.179688 228.667969 " fill-opacity="1" fill-rule="nonzero"/><path fill="#ffeedc" d="M 60.9375 227.457031 C 60.824219 227.417969 60.691406 227.371094 60.578125 227.332031 C 52.773438 224.304688 50.289062 211.972656 55.050781 199.773438 C 55.074219 199.6875 55.121094 199.597656 55.160156 199.519531 C 59.933594 187.484375 70.003906 180.179688 77.746094 183.175781 C 78.550781 183.492188 79.292969 183.894531 79.988281 184.382812 C 85.730469 188.554688 87.398438 198.902344 83.789062 209.394531 C 83.632812 209.855469 83.464844 210.289062 83.289062 210.742188 C 78.617188 222.734375 68.691406 230.132812 60.9375 227.457031 Z M 60.9375 227.457031 " fill-opacity="1" fill-rule="nonzero"/><path fill="#00bdf9" d="M 83.792969 209.394531 C 81.125 209.085938 78.472656 208.417969 75.886719 207.6875 C 69.652344 205.96875 63.433594 203.929688 57.710938 200.949219 C 56.839844 200.5 56 200.03125 55.160156 199.519531 C 59.933594 187.484375 70.003906 180.179688 77.746094 183.175781 C 78.550781 183.492188 79.292969 183.894531 79.984375 184.386719 C 85.730469 188.554688 87.402344 198.902344 83.792969 209.394531 Z M 83.792969 209.394531 " fill-opacity="1" fill-rule="nonzero"/><path fill="#edd9de" d="M 178.363281 124.414062 C 177.632812 123.953125 176.980469 123.421875 176.390625 122.808594 C 171.3125 117.410156 171.855469 106.277344 178.078125 96.308594 C 178.109375 96.269531 178.140625 96.203125 178.171875 96.164062 C 185 85.335938 196.058594 80.015625 203.148438 84.039062 C 203.253906 84.101562 203.371094 84.171875 203.492188 84.242188 C 210.097656 88.351562 210.660156 99.578125 205.085938 110.054688 C 204.679688 110.828125 204.257812 111.589844 203.777344 112.347656 C 196.847656 123.441406 185.464844 128.839844 178.363281 124.414062 Z M 178.363281 124.414062 " fill-opacity="1" fill-rule="nonzero"/><path fill="#ffeedc" d="M 176.390625 122.808594 C 176.285156 122.746094 176.164062 122.675781 176.058594 122.617188 C 168.957031 118.1875 168.820312 105.609375 175.773438 94.511719 C 175.8125 94.433594 175.875 94.351562 175.929688 94.285156 C 182.867188 83.347656 194.125 78.046875 201.171875 82.433594 C 201.902344 82.894531 202.554688 83.425781 203.148438 84.039062 C 208.011719 89.207031 207.71875 99.683594 202.214844 109.320312 C 201.972656 109.738281 201.726562 110.136719 201.472656 110.546875 C 194.640625 121.460938 183.507812 126.878906 176.390625 122.808594 Z M 176.390625 122.808594 " fill-opacity="1" fill-rule="nonzero"/><path fill="#ff998d" d="M 202.214844 109.320312 C 199.652344 108.519531 197.171875 107.367188 194.769531 106.167969 C 188.964844 103.320312 183.230469 100.15625 178.171875 96.164062 C 177.398438 95.5625 176.660156 94.941406 175.929688 94.285156 C 182.867188 83.347656 194.125 78.046875 201.171875 82.433594 C 201.902344 82.894531 202.554688 83.425781 203.144531 84.039062 C 208.011719 89.207031 207.71875 99.683594 202.214844 109.320312 Z M 202.214844 109.320312 " fill-opacity="1" fill-rule="nonzero"/><path fill="#edd9de" d="M 141.363281 288.480469 L 62.808594 288.480469 C 60.894531 288.480469 59.34375 286.929688 59.34375 285.019531 L 59.34375 267.648438 C 59.34375 265.734375 60.894531 264.183594 62.808594 264.183594 L 141.363281 264.183594 C 143.277344 264.183594 144.832031 265.734375 144.832031 267.648438 L 144.832031 285.019531 C 144.832031 286.929688 143.277344 288.480469 141.363281 288.480469 Z M 141.363281 288.480469 " fill-opacity="1" fill-rule="nonzero"/><path fill="#bb8c98" d="M 114.265625 286.039062 L 85.890625 286.039062 L 85.890625 266.628906 L 114.265625 266.628906 Z M 86.195312 285.734375 L 113.960938 285.734375 L 113.960938 266.933594 L 86.195312 266.933594 Z M 86.195312 285.734375 " fill-opacity="1" fill-rule="nonzero"/><path fill="#bb8c98" d="M 69.613281 269.65625 C 69.613281 270.414062 69 271.027344 68.242188 271.027344 C 67.484375 271.027344 66.871094 270.414062 66.871094 269.65625 C 66.871094 268.898438 67.484375 268.285156 68.242188 268.285156 C 69 268.285156 69.613281 268.898438 69.613281 269.65625 Z M 69.613281 269.65625 " fill-opacity="1" fill-rule="nonzero"/><path fill="#bb8c98" d="M 75.726562 275.671875 C 75.726562 276.425781 75.109375 277.039062 74.351562 277.039062 C 73.59375 277.039062 72.980469 276.425781 72.980469 275.671875 C 72.980469 274.914062 73.59375 274.296875 74.351562 274.296875 C 75.109375 274.296875 75.726562 274.914062 75.726562 275.671875 Z M 75.726562 275.671875 " fill-opacity="1" fill-rule="nonzero"/><path fill="#bb8c98" d="M 69.835938 281.550781 C 69.835938 282.308594 69.222656 282.921875 68.464844 282.921875 C 67.707031 282.921875 67.089844 282.308594 67.089844 281.550781 C 67.089844 280.796875 67.707031 280.179688 68.464844 280.179688 C 69.222656 280.179688 69.835938 280.796875 69.835938 281.550781 Z M 69.835938 281.550781 " fill-opacity="1" fill-rule="nonzero"/><path fill="#bb8c98" d="M 132.402344 269.65625 C 132.402344 270.414062 133.019531 271.027344 133.777344 271.027344 C 134.535156 271.027344 135.148438 270.414062 135.148438 269.65625 C 135.148438 268.898438 134.535156 268.285156 133.777344 268.285156 C 133.019531 268.285156 132.402344 268.898438 132.402344 269.65625 Z M 132.402344 269.65625 " fill-opacity="1" fill-rule="nonzero"/><path fill="#bb8c98" d="M 126.292969 275.671875 C 126.292969 276.425781 126.90625 277.039062 127.664062 277.039062 C 128.421875 277.039062 129.039062 276.425781 129.039062 275.671875 C 129.039062 274.914062 128.421875 274.296875 127.664062 274.296875 C 126.90625 274.296875 126.292969 274.914062 126.292969 275.671875 Z M 126.292969 275.671875 " fill-opacity="1" fill-rule="nonzero"/><path fill="#bb8c98" d="M 132.183594 281.550781 C 132.183594 282.308594 132.796875 282.921875 133.554688 282.921875 C 134.3125 282.921875 134.925781 282.308594 134.925781 281.550781 C 134.925781 280.796875 134.3125 280.179688 133.554688 280.179688 C 132.796875 280.179688 132.183594 280.796875 132.183594 281.550781 Z M 132.183594 281.550781 " fill-opacity="1" fill-rule="nonzero"/><path fill="#ffeedc" d="M 197.894531 283.863281 C 197.894531 284.484375 197.835938 285.097656 197.714844 285.703125 C 197.59375 286.308594 197.414062 286.898438 197.175781 287.472656 C 196.941406 288.042969 196.648438 288.589844 196.304688 289.101562 C 195.960938 289.617188 195.570312 290.09375 195.128906 290.53125 C 194.691406 290.96875 194.214844 291.359375 193.699219 291.703125 C 193.183594 292.050781 192.640625 292.339844 192.066406 292.578125 C 191.492188 292.8125 190.902344 292.992188 190.296875 293.113281 C 189.6875 293.234375 189.074219 293.292969 188.453125 293.292969 C 187.832031 293.292969 187.21875 293.234375 186.613281 293.113281 C 186.003906 292.992188 185.414062 292.8125 184.839844 292.578125 C 184.265625 292.339844 183.722656 292.050781 183.207031 291.703125 C 182.691406 291.359375 182.214844 290.96875 181.777344 290.53125 C 181.339844 290.09375 180.945312 289.617188 180.601562 289.101562 C 180.257812 288.589844 179.96875 288.042969 179.730469 287.472656 C 179.492188 286.898438 179.3125 286.308594 179.191406 285.703125 C 179.070312 285.097656 179.011719 284.484375 179.011719 283.863281 C 179.011719 283.242188 179.070312 282.628906 179.191406 282.023438 C 179.3125 281.417969 179.492188 280.828125 179.730469 280.253906 C 179.96875 279.683594 180.257812 279.136719 180.601562 278.625 C 180.945312 278.109375 181.339844 277.632812 181.777344 277.195312 C 182.214844 276.757812 182.691406 276.367188 183.207031 276.023438 C 183.722656 275.675781 184.265625 275.386719 184.839844 275.148438 C 185.414062 274.914062 186.003906 274.734375 186.613281 274.613281 C 187.21875 274.492188 187.832031 274.433594 188.453125 274.433594 C 189.074219 274.433594 189.6875 274.492188 190.296875 274.613281 C 190.902344 274.734375 191.492188 274.914062 192.066406 275.148438 C 192.640625 275.386719 193.183594 275.675781 193.699219 276.023438 C 194.214844 276.367188 194.691406 276.757812 195.128906 277.195312 C 195.570312 277.632812 195.960938 278.109375 196.304688 278.625 C 196.648438 279.136719 196.941406 279.683594 197.175781 280.253906 C 197.414062 280.828125 197.59375 281.417969 197.714844 282.023438 C 197.835938 282.628906 197.894531 283.242188 197.894531 283.863281 Z M 197.894531 283.863281 " fill-opacity="1" fill-rule="nonzero"/><path fill="#412424" d="M 63.734375 169.148438 C 58.289062 169.148438 53.863281 164.726562 53.863281 159.289062 C 53.863281 153.851562 58.289062 149.429688 63.734375 149.429688 C 69.175781 149.429688 73.605469 153.851562 73.605469 159.289062 C 73.605469 164.726562 69.175781 169.148438 63.734375 169.148438 Z M 63.734375 150.289062 C 58.765625 150.289062 54.722656 154.324219 54.722656 159.289062 C 54.722656 164.253906 58.765625 168.289062 63.734375 168.289062 C 68.703125 168.289062 72.746094 164.253906 72.746094 159.289062 C 72.746094 154.324219 68.703125 150.289062 63.734375 150.289062 Z M 63.734375 150.289062 " fill-opacity="1" fill-rule="nonzero"/><path fill="#412424" d="M 264.207031 107.519531 C 258.765625 107.519531 254.335938 103.097656 254.335938 97.660156 C 254.335938 92.222656 258.765625 87.800781 264.207031 87.800781 C 269.652344 87.800781 274.078125 92.222656 274.078125 97.660156 C 274.078125 103.097656 269.652344 107.519531 264.207031 107.519531 Z M 264.207031 88.660156 C 259.238281 88.660156 255.195312 92.695312 255.195312 97.660156 C 255.195312 102.621094 259.238281 106.660156 264.207031 106.660156 C 269.175781 106.660156 273.21875 102.621094 273.21875 97.660156 C 273.21875 92.695312 269.175781 88.660156 264.207031 88.660156 Z M 264.207031 88.660156 " fill-opacity="1" fill-rule="nonzero"/><path fill="#412424" d="M 91.171875 245.5 C 91.082031 245.5 90.988281 245.488281 90.898438 245.464844 L 74.375 241.464844 C 73.753906 241.316406 73.367188 240.6875 73.519531 240.066406 C 73.671875 239.445312 74.296875 239.058594 74.921875 239.210938 L 91.445312 243.210938 C 92.066406 243.363281 92.449219 243.988281 92.300781 244.609375 C 92.171875 245.140625 91.695312 245.5 91.171875 245.5 Z M 91.171875 245.5 " fill-opacity="1" fill-rule="nonzero"/><path fill="#412424" d="M 80.910156 251.75 C 80.816406 251.75 80.726562 251.738281 80.632812 251.71875 C 80.011719 251.566406 79.628906 250.941406 79.777344 250.316406 L 83.78125 233.8125 C 83.933594 233.191406 84.558594 232.804688 85.183594 232.957031 C 85.808594 233.109375 86.191406 233.738281 86.039062 234.359375 L 82.035156 250.863281 C 81.90625 251.394531 81.433594 251.75 80.910156 251.75 Z M 80.910156 251.75 " fill-opacity="1" fill-rule="nonzero"/><path fill="#412424" d="M 269.394531 229.46875 C 269.105469 229.46875 268.820312 229.359375 268.59375 229.144531 C 268.128906 228.703125 268.113281 227.96875 268.554688 227.507812 L 280.285156 215.214844 C 280.726562 214.75 281.460938 214.734375 281.925781 215.175781 C 282.390625 215.617188 282.40625 216.351562 281.964844 216.816406 L 270.234375 229.105469 C 270.007812 229.347656 269.703125 229.46875 269.394531 229.46875 Z M 269.394531 229.46875 " fill-opacity="1" fill-rule="nonzero"/><path fill="#412424" d="M 281.414062 229.179688 C 281.125 229.179688 280.835938 229.074219 280.609375 228.859375 L 268.304688 217.140625 C 267.84375 216.699219 267.824219 215.964844 268.265625 215.503906 C 268.710938 215.035156 269.445312 215.023438 269.910156 215.464844 L 282.214844 227.179688 C 282.679688 227.621094 282.695312 228.355469 282.253906 228.820312 C 282.023438 229.058594 281.71875 229.179688 281.414062 229.179688 Z M 281.414062 229.179688 " fill-opacity="1" fill-rule="nonzero"/></svg>