<svg xmlns="http://www.w3.org/2000/svg" xmlns:xlink="http://www.w3.org/1999/xlink" width="500" zoomAndPan="magnify" viewBox="0 0 375 374.999991" height="500" preserveAspectRatio="xMidYMid meet" version="1.0"><defs><clipPath id="43b48619f8"><path d="M 67.136719 73.914062 L 189 73.914062 L 189 301.078125 L 67.136719 301.078125 Z M 67.136719 73.914062 " clip-rule="nonzero"/></clipPath><clipPath id="adf65f6969"><path d="M 153 106.921875 L 307.996094 106.921875 L 307.996094 271.503906 L 153 271.503906 Z M 153 106.921875 " clip-rule="nonzero"/></clipPath><clipPath id="e85411a09d"><path d="M 86 73.828125 L 120 73.828125 L 120 95 L 86 95 Z M 86 73.828125 " clip-rule="nonzero"/></clipPath><clipPath id="e06ee4a6cb"><path d="M 73.738281 271.503906 L 143.726562 271.503906 L 143.726562 301.078125 L 73.738281 301.078125 Z M 73.738281 271.503906 " clip-rule="nonzero"/></clipPath><clipPath id="dcbde36650"><path d="M 195.230469 106.921875 L 307.996094 106.921875 L 307.996094 205.933594 L 195.230469 205.933594 Z M 195.230469 106.921875 " clip-rule="nonzero"/></clipPath></defs><g clip-path="url(#43b48619f8)"><path fill="#999999" d="M 85.746094 105.753906 C 85.746094 105.871094 85.769531 105.988281 85.8125 106.105469 C 85.753906 106.0625 85.703125 106.019531 85.65625 105.972656 Z M 105.378906 101.683594 C 105.378906 101.667969 105.386719 101.660156 105.402344 101.660156 C 106.648438 101.25 107.746094 100.011719 108.703125 97.941406 C 109.273438 96.726562 109.671875 95.925781 109.890625 95.542969 C 109.949219 95.453125 110.007812 95.363281 110.066406 95.28125 C 110.015625 95.359375 109.964844 95.441406 109.914062 95.519531 C 109.675781 95.917969 109.28125 96.726562 108.726562 97.941406 C 108.695312 97.988281 108.671875 98.039062 108.65625 98.097656 C 108.496094 98.417969 108.335938 98.71875 108.175781 98.996094 C 107.335938 100.453125 106.40625 101.34375 105.378906 101.683594 Z M 105.597656 111.167969 C 101.476562 111.109375 97.542969 110.550781 93.800781 109.492188 C 94.433594 109.566406 95.113281 109.632812 95.847656 109.691406 C 98.519531 109.914062 100.125 110.050781 100.667969 110.109375 C 100.800781 110.125 100.875 110.132812 100.890625 110.132812 C 102.722656 110.335938 104.292969 110.683594 105.597656 111.167969 Z M 154.085938 120.648438 C 154.1875 120.503906 154.285156 120.335938 154.371094 120.175781 L 169.050781 126.089844 C 168.171875 126.558594 167.171875 127.078125 166.058594 127.648438 L 164.628906 128.285156 C 162.882812 129.164062 161.40625 130.074219 160.203125 131.015625 C 159.71875 131.410156 159.265625 131.90625 158.839844 132.507812 C 158.441406 132.671875 158.039062 132.875 157.628906 133.125 C 156.335938 133.023438 155.066406 133.265625 153.820312 133.851562 L 137.644531 141.421875 L 124.878906 131.5625 C 128.738281 130.082031 133.476562 128.203125 139.097656 125.929688 C 139.125 125.796875 139.15625 125.6875 139.183594 125.601562 C 139.683594 125.394531 140.203125 125.136719 140.746094 124.789062 C 141.203125 124.492188 141.546875 124.171875 141.78125 123.730469 C 142.296875 123.730469 142.824219 123.730469 143.367188 123.730469 C 149.28125 123.730469 152.851562 122.6875 154.085938 120.648438 Z M 101.726562 97.566406 C 101.382812 98.03125 101.152344 98.539062 101.03125 99.097656 C 101.070312 98.90625 101.117188 98.71875 101.175781 98.535156 C 101.308594 98.183594 101.476562 97.859375 101.683594 97.566406 C 101.988281 97.167969 102.339844 96.863281 102.738281 96.644531 C 102.355469 96.867188 102.019531 97.171875 101.726562 97.566406 Z M 101.109375 101.085938 L 101.085938 101.113281 C 101.019531 100.835938 100.972656 100.554688 100.953125 100.273438 C 100.980469 100.550781 101.03125 100.824219 101.109375 101.085938 Z M 112.179688 93.199219 C 112.3125 93.066406 112.445312 92.917969 112.578125 92.75 C 112.867188 92.382812 113.183594 91.929688 113.523438 91.386719 L 113.542969 91.363281 L 114.160156 90.242188 C 114.1875 90.210938 114.203125 90.1875 114.203125 90.175781 C 114.21875 90.160156 114.226562 90.136719 114.226562 90.109375 C 114.257812 90.09375 114.269531 90.078125 114.269531 90.066406 L 114.578125 89.515625 C 114.59375 89.484375 114.601562 89.464844 114.601562 89.449219 C 114.644531 89.390625 114.6875 89.324219 114.734375 89.25 L 114.820312 89.164062 C 114.617188 89.46875 114.417969 89.808594 114.226562 90.175781 C 113.492188 91.59375 112.808594 92.605469 112.179688 93.199219 Z M 139.757812 283.253906 C 136.78125 283.253906 133.835938 283.363281 130.929688 283.585938 C 130.300781 282.96875 129.851562 282.277344 129.589844 281.515625 C 129.425781 281.074219 129.273438 280.636719 129.125 280.195312 C 128.363281 277.890625 127.84375 275.523438 127.5625 273.089844 C 126.933594 267.96875 126.535156 262.753906 126.375 257.441406 C 126.242188 252.457031 126.324219 247.503906 126.617188 242.59375 C 126.925781 237.632812 127.253906 232.699219 127.609375 227.785156 C 127.871094 224.511719 128.171875 221.261719 128.511719 218.035156 C 128.832031 215.058594 129.164062 212.101562 129.5 209.167969 C 129.824219 206.160156 130.140625 203.175781 130.445312 200.214844 C 130.683594 197.910156 130.734375 195.605469 130.601562 193.304688 L 136.476562 191.433594 C 133.148438 178.597656 129.894531 165.632812 126.726562 152.53125 L 131.945312 156.535156 C 133.101562 157.414062 134.394531 157.9375 135.816406 158.101562 C 137.242188 158.261719 138.621094 158.03125 139.957031 157.414062 L 160.378906 147.84375 C 161.773438 147.171875 162.859375 146.210938 163.636719 144.964844 C 163.8125 144.683594 163.96875 144.398438 164.097656 144.105469 C 164.363281 143.972656 164.636719 143.824219 164.914062 143.664062 C 166.351562 143.136719 167.519531 142.46875 168.414062 141.664062 C 169.46875 140.578125 170.203125 139.746094 170.613281 139.175781 C 171.421875 138.148438 171.671875 137.136719 171.363281 136.140625 C 171.566406 134.921875 171.3125 133.917969 170.589844 133.125 C 170.546875 132.757812 170.480469 132.046875 170.394531 130.992188 C 170.171875 130.140625 169.695312 129.765625 168.960938 129.867188 L 168.832031 129.40625 C 169.109375 129.097656 169.453125 128.785156 169.867188 128.460938 L 169.953125 128.417969 C 170.246094 128.210938 170.621094 127.992188 171.074219 127.757812 C 171.398438 127.582031 171.699219 127.417969 171.980469 127.269531 L 176.996094 129.296875 C 180.195312 130.585938 182.015625 130.359375 182.457031 128.617188 L 188.617188 103.640625 C 189.058594 101.882812 187.679688 100.363281 184.480469 99.085938 L 156.132812 87.644531 C 152.949219 86.355469 151.136719 86.582031 150.695312 88.324219 L 146.535156 105.136719 C 145.804688 105.429688 145.011719 105.902344 144.160156 106.546875 C 142.984375 107.441406 141.113281 109.699219 138.546875 113.324219 C 138.253906 113.484375 137.960938 113.660156 137.667969 113.847656 C 136.257812 113.175781 134.679688 113.402344 132.933594 114.535156 C 132.773438 114.472656 132.625 114.429688 132.496094 114.398438 C 127.007812 116.320312 122.082031 117.882812 117.726562 119.085938 L 106.457031 110.285156 L 104.386719 108.484375 C 104.125 107.882812 103.90625 107.132812 103.726562 106.238281 C 104.035156 106.28125 104.382812 106.339844 104.761719 106.414062 C 105.9375 106.621094 106.785156 106.734375 107.316406 106.765625 C 109.296875 106.941406 110.769531 106.488281 111.738281 105.402344 C 112.578125 102.730469 113.164062 101.050781 113.5 100.363281 C 114.367188 98.558594 115.554688 97.339844 117.066406 96.710938 C 116.773438 95.550781 116.664062 93.980469 116.828125 92 C 116.871094 91.296875 116.917969 90.667969 116.917969 90.109375 C 116.917969 90.066406 116.917969 90.019531 116.917969 89.976562 C 116.917969 88.699219 117.039062 87.761719 116.980469 87.160156 C 116.757812 87.25 116.570312 87.367188 116.363281 87.511719 L 116.394531 87.359375 C 116.453125 87.328125 116.515625 87.203125 116.558594 87.203125 L 116.539062 87.203125 C 116.683594 87.203125 116.839844 87.144531 117 87.074219 C 118.144531 86.457031 118.945312 85.964844 119.398438 85.511719 C 119.574219 85.320312 119.722656 85.167969 119.839844 85.003906 C 120.292969 84.34375 120.382812 83.664062 120.101562 82.945312 C 119.898438 82.375 119.625 81.816406 119.289062 81.257812 C 118.539062 79.980469 117.507812 78.839844 116.183594 77.828125 C 114.585938 76.609375 112.632812 75.667969 110.332031 74.992188 C 108.101562 74.167969 105.765625 73.820312 103.332031 73.9375 C 100.925781 74.039062 98.636719 74.558594 96.464844 75.5 C 92.296875 77.347656 89.394531 80.183594 87.75 84.015625 C 87.527344 84.527344 87.332031 85.054688 87.15625 85.597656 C 86.9375 86.273438 86.78125 86.976562 86.691406 87.710938 C 86.691406 87.828125 86.6875 87.945312 86.671875 88.0625 C 86.566406 89.222656 86.628906 90.429688 86.847656 91.691406 C 87.140625 93.277344 87.699219 94.925781 88.519531 96.644531 C 88.609375 97.140625 88.738281 97.617188 88.917969 98.074219 L 87.066406 102.5625 C 87.023438 102.664062 86.980469 102.769531 86.9375 102.871094 C 86.746094 103.238281 86.539062 103.648438 86.316406 104.101562 L 86.738281 102.847656 L 82.488281 103.597656 L 75.796875 103.71875 C 71.207031 104.863281 68.449219 107.007812 67.523438 110.089844 C 67.507812 110.089844 67.617188 110.089844 67.617188 110.089844 C 67.617188 110.089844 67.617188 110.03125 67.617188 110.089844 C 66.734375 111.980469 67.179688 114.230469 68.03125 116.84375 C 68.222656 118.398438 68.4375 119.960938 68.746094 121.53125 C 69.523438 125.375 70.226562 128.785156 70.886719 131.761719 C 71.589844 134.679688 72.695312 137.277344 74.222656 139.550781 C 75.148438 140.828125 76.214844 141.925781 77.433594 142.851562 C 79.175781 150.273438 80.136719 157.820312 80.3125 165.492188 C 80.445312 169.980469 80.140625 174.5 79.410156 179.046875 C 78.953125 182.214844 78.527344 185.421875 78.132812 188.664062 L 82.820312 191.058594 L 82.796875 193.765625 C 82.695312 198.753906 82.378906 203.808594 81.851562 208.925781 C 81.351562 213.445312 80.875 217.960938 80.421875 222.480469 C 79.949219 226.839844 78.886719 231.046875 77.230469 235.113281 C 76.585938 236.769531 76.078125 238.339844 75.710938 239.820312 C 74.609375 244.542969 73.957031 249.425781 73.722656 254.472656 C 73.53125 258.683594 72.898438 262.871094 72.457031 267.035156 L 72.457031 267.058594 C 71.578125 271.578125 71.558594 276.109375 71.851562 280.65625 C 71.984375 283.003906 72.738281 285.085938 74.132812 286.90625 C 73.664062 286.847656 73.660156 287.28125 74.128906 288.203125 C 74.6875 289.347656 75.625 289.988281 76.945312 290.117188 C 78.558594 290.484375 80.078125 290.300781 81.5 289.566406 C 84.300781 288.132812 85.753906 285.84375 85.859375 282.703125 L 86.804688 280.722656 C 87.464844 279.886719 88.269531 279.175781 89.222656 278.589844 C 91.46875 277.105469 92.628906 275.140625 92.699219 272.691406 C 92.761719 272.5 92.789062 272.316406 92.789062 272.140625 C 92.820312 271.480469 92.722656 270.910156 92.503906 270.425781 C 91.636719 268.535156 90.148438 267.808594 88.035156 268.246094 C 88.199219 267.324219 88.351562 266.40625 88.5 265.496094 C 88.527344 265.304688 88.558594 265.113281 88.585938 264.925781 C 89.246094 260.789062 89.972656 256.675781 90.765625 252.582031 C 91.453125 248.855469 92.296875 245.195312 93.296875 241.601562 C 94.542969 236.878906 95.84375 232.207031 97.191406 227.585938 C 98.085938 224.578125 98.835938 221.558594 99.4375 218.519531 C 100.097656 215.058594 101.050781 211.648438 102.296875 208.289062 C 102.371094 208.140625 102.4375 207.988281 102.496094 207.828125 L 103.199219 211.257812 C 103.289062 212.449219 103.53125 213.679688 103.925781 214.957031 C 105.421875 220.015625 106.554688 225.085938 107.316406 230.160156 C 108.0625 235.074219 108.503906 240.011719 108.636719 244.96875 C 108.796875 250.25 108.78125 255.515625 108.59375 260.765625 C 108.429688 264.757812 108.726562 268.746094 109.472656 272.734375 C 109.617188 273.527344 109.75 274.3125 109.867188 275.089844 C 110.457031 279.34375 110.542969 283.628906 110.132812 287.941406 C 109.765625 291.8125 110.636719 295.296875 112.75 298.390625 C 112.855469 298.65625 112.972656 298.90625 113.105469 299.140625 C 113.851562 300.460938 115.003906 301.105469 116.558594 301.078125 C 119.875 301.003906 123.082031 300.386719 126.175781 299.230469 L 126.332031 296.960938 C 127.183594 296.726562 128.042969 296.515625 128.90625 296.324219 C 131.3125 295.988281 133.71875 295.738281 136.125 295.574219 C 140.820312 294.945312 143.25 292.371094 143.410156 287.851562 L 143.519531 285.675781 C 142.65625 284.25 141.402344 283.445312 139.757812 283.253906 " fill-opacity="1" fill-rule="nonzero"/></g><g clip-path="url(#adf65f6969)"><path fill="#999999" d="M 171.140625 244.507812 L 173.5625 245.871094 C 173.535156 245.914062 173.484375 245.953125 173.410156 245.980469 C 172.601562 246.433594 171.949219 246.972656 171.449219 247.585938 C 171.449219 247.335938 171.414062 247.101562 171.339844 246.882812 C 171.457031 246.601562 171.515625 246.289062 171.515625 245.9375 C 171.515625 245.410156 171.390625 244.929688 171.140625 244.507812 Z M 307.972656 106.941406 L 300.796875 111.078125 L 265.34375 136.382812 L 277.335938 143.027344 L 259.070312 172.378906 L 219.695312 118.648438 L 212.496094 122.785156 L 176.578125 179.730469 L 176.710938 179.792969 L 172.285156 186.789062 L 171.96875 186.613281 L 161.375 193.347656 L 161.375 205.449219 L 172.292969 211.589844 L 175.460938 210.117188 L 175.460938 213.371094 L 186.308594 219.710938 L 189.546875 217.792969 L 189.546875 218.828125 L 171.308594 229.433594 C 171.234375 229.257812 171.164062 229.097656 171.105469 228.949219 C 171.382812 228.421875 171.519531 227.898438 171.519531 227.386719 C 171.519531 227.066406 171.460938 226.765625 171.34375 226.484375 C 171.460938 226.238281 171.519531 225.949219 171.519531 225.628906 C 171.519531 225.070312 171.375 224.558594 171.097656 224.085938 C 171.375 223.558594 171.515625 223.039062 171.515625 222.523438 C 171.515625 221.074219 170.628906 219.832031 168.851562 218.808594 C 167.0625 217.777344 164.914062 217.265625 162.40625 217.265625 C 159.867188 217.265625 157.703125 217.777344 155.910156 218.808594 C 154.152344 219.832031 153.269531 221.074219 153.269531 222.523438 C 153.269531 223.039062 153.410156 223.542969 153.6875 224.042969 C 153.410156 224.542969 153.269531 225.070312 153.269531 225.628906 C 153.269531 225.90625 153.300781 226.191406 153.359375 226.484375 C 153.300781 226.765625 153.269531 227.066406 153.269531 227.386719 C 153.269531 227.898438 153.410156 228.40625 153.6875 228.90625 C 153.410156 229.40625 153.269531 229.933594 153.269531 230.492188 C 153.269531 230.8125 153.324219 231.113281 153.425781 231.390625 C 153.324219 231.699219 153.269531 232.039062 153.269531 232.402344 C 153.269531 232.890625 153.394531 233.378906 153.644531 233.878906 C 153.394531 234.332031 153.269531 234.824219 153.269531 235.351562 C 153.269531 235.851562 153.375 236.3125 153.578125 236.738281 C 153.375 237.164062 153.269531 237.621094 153.269531 238.101562 C 153.269531 238.632812 153.394531 239.121094 153.644531 239.578125 C 153.394531 240.046875 153.269531 240.546875 153.269531 241.074219 C 153.269531 241.351562 153.324219 241.667969 153.425781 242.019531 C 153.324219 242.339844 153.269531 242.679688 153.269531 243.03125 C 153.269531 243.515625 153.394531 243.984375 153.644531 244.441406 C 153.527344 244.703125 153.433594 244.917969 153.359375 245.078125 C 153.300781 245.371094 153.269531 245.65625 153.269531 245.9375 C 153.269531 246.257812 153.324219 246.574219 153.425781 246.882812 C 153.324219 247.203125 153.269531 247.542969 153.269531 247.894531 C 153.269531 248.421875 153.410156 248.9375 153.6875 249.433594 C 153.410156 249.917969 153.269531 250.445312 153.269531 251.019531 C 153.300781 252.457031 154.195312 253.6875 155.953125 254.714844 C 157.761719 255.742188 159.910156 256.253906 162.40625 256.253906 C 164.914062 256.253906 167.0625 255.742188 168.851562 254.714844 C 169.675781 254.214844 170.3125 253.6875 170.769531 253.132812 C 170.796875 253.335938 170.855469 253.550781 170.945312 253.769531 C 170.828125 254.078125 170.769531 254.40625 170.769531 254.761719 C 170.769531 255.039062 170.804688 255.339844 170.878906 255.664062 C 170.953125 255.835938 171.003906 256 171.03125 256.144531 C 170.855469 256.554688 170.769531 257.011719 170.769531 257.511719 C 170.769531 257.863281 170.753906 258.214844 170.871094 258.566406 C 170.753906 258.859375 170.617188 259.195312 170.617188 259.578125 C 170.617188 259.753906 170.617188 259.914062 170.617188 260.0625 C 170.617188 259.710938 169.886719 259.375 169.328125 259.050781 C 168.757812 258.726562 168.191406 258.460938 167.5625 258.257812 C 166.929688 258.007812 166.28125 257.832031 165.578125 257.730469 C 164.726562 257.582031 163.855469 257.511719 162.945312 257.511719 C 161.84375 257.511719 160.808594 257.621094 159.824219 257.839844 C 158.59375 258.074219 157.480469 258.476562 156.480469 259.050781 C 155.894531 259.402344 155.382812 259.804688 154.941406 260.261719 C 154.210938 261.007812 153.839844 261.835938 153.839844 262.746094 C 153.839844 263.320312 153.96875 263.847656 154.214844 264.332031 C 153.96875 264.859375 153.84375 265.410156 153.84375 265.980469 C 153.871094 267.417969 154.773438 268.652344 156.550781 269.675781 C 158.3125 270.707031 160.445312 271.21875 162.953125 271.21875 C 165.492188 271.21875 167.640625 270.707031 169.402344 269.675781 C 171.191406 268.652344 172.089844 267.417969 172.089844 265.980469 C 172.089844 265.585938 172.023438 265.246094 171.890625 264.96875 C 172.34375 265.320312 172.875 265.695312 173.472656 266.089844 C 175.265625 267.105469 177.398438 267.609375 179.878906 267.609375 C 182.402344 267.609375 184.566406 267.105469 186.371094 266.089844 C 188.132812 265.0625 189.011719 263.832031 189.011719 262.394531 C 189.011719 261.925781 188.910156 261.464844 188.707031 261.007812 C 188.910156 260.511719 189.011719 260.035156 189.011719 259.578125 C 189.011719 259.226562 188.960938 258.890625 188.859375 258.566406 C 188.960938 258.214844 189.011719 257.863281 189.011719 257.511719 C 189.011719 257.054688 188.910156 256.601562 188.707031 256.144531 C 188.910156 255.691406 189.011719 255.140625 189.011719 254.71875 L 217.734375 271.152344 L 217.78125 271.152344 L 229.597656 264.441406 C 230.082031 265.542969 230.910156 266.476562 232.085938 267.136719 C 234.578125 268.46875 237.324219 268.960938 240.316406 268.550781 C 242.472656 268.402344 244.417969 267.675781 246.148438 266.34375 C 247.601562 265.167969 247.972656 263.707031 247.296875 261.945312 L 247.652344 260.679688 C 247.652344 260.574219 247.652344 260.488281 247.652344 260.414062 C 247.652344 260.105469 247.613281 259.792969 247.492188 259.46875 C 247.582031 259.21875 247.644531 258.96875 247.65625 258.71875 C 247.671875 258.648438 247.683594 258.582031 247.683594 258.523438 C 247.683594 257.992188 247.5625 257.480469 247.3125 256.984375 C 247.5625 256.527344 247.6875 256.035156 247.6875 255.507812 C 247.6875 255.230469 247.632812 254.941406 247.511719 254.648438 C 247.527344 254.621094 247.542969 254.585938 247.558594 254.539062 L 257.773438 260.347656 L 268.78125 253.988281 L 268.78125 241.800781 L 257.597656 235.308594 L 254.253906 237.378906 L 254.253906 221.335938 L 242.929688 214.910156 L 240.167969 216.539062 L 240.167969 201.3125 L 229.359375 194.757812 L 225.640625 197.046875 L 225.640625 181.378906 L 214.625 175.109375 L 207.101562 179.597656 L 204.441406 178.078125 L 218.964844 154.753906 L 256.207031 205.582031 L 263.226562 201.730469 L 294.019531 152.246094 L 300.796875 155.984375 L 307.996094 151.851562 L 307.972656 106.941406 " fill-opacity="1" fill-rule="nonzero"/></g><path fill="#ffffff" d="M 151.839844 102.542969 L 149.023438 113.804688 L 152.082031 115.058594 L 154.898438 103.773438 Z M 172.394531 123.246094 L 175.542969 110.574219 L 172.484375 109.339844 L 169.335938 122.015625 Z M 171.957031 124.609375 L 146.753906 114.445312 L 148.382812 107.84375 C 149.441406 106.816406 150.074219 106.121094 150.277344 105.753906 C 149.925781 105.371094 149.535156 105.109375 149.113281 104.960938 L 152.457031 91.449219 L 186.128906 105.046875 L 180.429688 128.042969 L 174.753906 125.753906 C 175.234375 125.417969 175.652344 125.070312 176.003906 124.71875 L 178.117188 125.578125 L 179.152344 121.398438 L 176.09375 120.164062 L 175.433594 122.804688 C 174.804688 123.140625 173.976562 123.582031 172.945312 124.125 C 172.667969 124.257812 172.339844 124.417969 171.957031 124.609375 Z M 85.8125 106.105469 C 85.769531 105.988281 85.746094 105.871094 85.746094 105.753906 L 86.316406 104.101562 C 86.539062 103.648438 86.746094 103.238281 86.9375 102.871094 C 87.007812 102.929688 87.097656 102.996094 87.199219 103.066406 C 87.886719 103.566406 88.585938 103.992188 89.289062 104.34375 C 91.886719 105.546875 95.542969 106.148438 100.25 106.148438 C 100.53125 106.148438 101.152344 106.097656 102.121094 105.996094 C 102.195312 106.023438 102.273438 106.054688 102.363281 106.082031 C 102.703125 106.097656 103.15625 106.148438 103.726562 106.238281 C 103.90625 107.132812 104.125 107.882812 104.386719 108.484375 L 104.34375 108.457031 L 104.875 109.691406 L 105.664062 111.167969 C 105.636719 111.167969 105.613281 111.167969 105.597656 111.167969 C 104.292969 110.683594 102.722656 110.335938 100.890625 110.132812 C 100.875 110.132812 100.800781 110.125 100.667969 110.109375 C 100.125 110.050781 98.519531 109.914062 95.847656 109.691406 C 95.113281 109.632812 94.433594 109.566406 93.800781 109.492188 C 91.308594 108.789062 88.894531 107.867188 86.5625 106.722656 C 86.3125 106.53125 86.0625 106.324219 85.8125 106.105469 Z M 186.636719 103.023438 L 152.964844 89.425781 L 152.894531 89.679688 L 152.964844 89.40625 L 186.636719 103.003906 Z M 163.679688 97.480469 L 158.640625 117.699219 L 161.699219 118.933594 L 166.738281 98.710938 Z M 168.480469 101.550781 L 163.921875 119.835938 L 167.003906 121.066406 L 171.5625 102.804688 Z M 158.003906 99.042969 L 153.84375 115.765625 L 156.902344 116.996094 L 161.0625 100.273438 L 158.003906 99.042969 " fill-opacity="1" fill-rule="evenodd"/><path fill="#132146" d="M 138.128906 119.085938 C 138.921875 120.554688 139.332031 122.050781 139.359375 123.574219 C 139.375 124.25 139.316406 124.925781 139.183594 125.601562 C 139.15625 125.6875 139.125 125.796875 139.097656 125.929688 C 133.476562 128.203125 128.738281 130.082031 124.878906 131.5625 L 124.351562 131.167969 C 124.203125 129.039062 123.609375 127.03125 122.566406 125.136719 C 125.679688 124.039062 129.007812 122.785156 132.558594 121.375 C 132.734375 121.304688 132.917969 121.230469 133.109375 121.15625 C 134.753906 120.480469 136.425781 119.789062 138.128906 119.085938 Z M 67.523438 109.933594 C 67.507812 109.976562 67.492188 110.03125 67.480469 110.089844 C 67.480469 110.03125 67.480469 109.976562 67.480469 109.933594 C 67.492188 109.933594 67.507812 109.933594 67.523438 109.933594 Z M 77.425781 142.851562 C 76.210938 141.925781 75.136719 140.828125 74.214844 139.550781 C 72.6875 137.277344 71.570312 134.679688 70.867188 131.761719 C 70.207031 128.785156 69.488281 125.375 68.710938 121.53125 C 68.402344 119.960938 68.152344 118.398438 67.964844 116.84375 C 68.125 117.328125 68.308594 117.824219 68.511719 118.339844 C 68.71875 118.839844 68.96875 119.324219 69.261719 119.789062 C 72.855469 127.34375 75.578125 135.03125 77.425781 142.851562 Z M 111.386719 128.746094 L 137.136719 148.640625 L 163.371094 136.359375 C 163.636719 136.726562 163.871094 137.136719 164.078125 137.59375 C 164.988281 139.515625 165.082031 141.480469 164.363281 143.488281 C 164.277344 143.695312 164.1875 143.898438 164.097656 144.105469 C 163.96875 144.398438 163.8125 144.683594 163.636719 144.964844 C 162.859375 146.210938 161.773438 147.171875 160.378906 147.84375 L 139.957031 157.414062 C 138.621094 158.03125 137.242188 158.261719 135.816406 158.101562 C 134.394531 157.9375 133.101562 157.414062 131.945312 156.535156 L 126.726562 152.53125 L 111.585938 140.828125 C 110.515625 139.992188 109.730469 139 109.230469 137.855469 C 108.9375 137.195312 108.738281 136.476562 108.636719 135.699219 C 108.371094 133.585938 108.894531 131.6875 110.199219 130 C 110.566406 129.53125 110.960938 129.113281 111.386719 128.746094 " fill-opacity="1" fill-rule="evenodd"/><path fill="#ce7c56" d="M 101.085938 101.113281 L 101.109375 101.085938 C 101.210938 101.425781 101.351562 101.746094 101.527344 102.058594 C 101.496094 102.863281 101.375 104.050781 101.152344 105.621094 C 101.460938 105.753906 101.785156 105.878906 102.121094 105.996094 C 101.152344 106.097656 100.53125 106.148438 100.25 106.148438 C 95.542969 106.148438 91.886719 105.546875 89.289062 104.34375 C 88.585938 103.992188 87.886719 103.566406 87.199219 103.066406 C 87.097656 102.996094 87.007812 102.929688 86.9375 102.871094 C 86.980469 102.769531 87.023438 102.664062 87.066406 102.5625 L 88.917969 98.074219 C 89.222656 98.925781 89.6875 99.71875 90.300781 100.453125 C 91.199219 101.535156 92.289062 102.359375 93.582031 102.914062 C 94.582031 103.355469 95.585938 103.589844 96.597656 103.617188 C 96.949219 103.648438 97.28125 103.648438 97.585938 103.617188 C 97.925781 103.589844 98.253906 103.539062 98.578125 103.464844 C 99.472656 103.261719 100.300781 102.898438 101.0625 102.386719 C 101.195312 102.269531 101.335938 102.167969 101.484375 102.078125 C 101.335938 101.832031 101.21875 101.574219 101.132812 101.308594 C 101.117188 101.25 101.101562 101.183594 101.085938 101.113281 " fill-opacity="1" fill-rule="evenodd"/><path fill="#452312" d="M 87.75 84.015625 C 89.878906 84.964844 93.582031 85.445312 98.863281 85.445312 C 105.464844 85.445312 111.96875 84.191406 118.363281 81.683594 C 118.699219 81.535156 119.011719 81.394531 119.289062 81.265625 C 119.625 81.820312 119.898438 82.382812 120.101562 82.957031 C 120.382812 83.675781 120.292969 84.363281 119.839844 85.023438 C 119.515625 85.203125 119.179688 85.386719 118.828125 85.574219 C 113.515625 88.335938 106.78125 89.710938 98.621094 89.710938 C 93.882812 89.710938 89.898438 89.164062 86.671875 88.0625 C 86.6875 87.945312 86.691406 87.828125 86.691406 87.710938 C 86.78125 86.976562 86.9375 86.273438 87.15625 85.597656 C 87.332031 85.054688 87.527344 84.527344 87.75 84.015625 Z M 112.578125 92.75 C 112.445312 92.917969 112.3125 93.066406 112.179688 93.199219 L 111.785156 93.542969 C 111.753906 93.570312 111.726562 93.59375 111.695312 93.605469 C 111.636719 93.652344 111.578125 93.695312 111.519531 93.742188 C 111.460938 93.769531 111.410156 93.804688 111.367188 93.851562 L 110.242188 95.035156 L 110.066406 95.28125 C 110.007812 95.363281 109.949219 95.453125 109.890625 95.542969 C 109.671875 95.925781 109.273438 96.726562 108.703125 97.941406 C 107.746094 100.011719 106.648438 101.25 105.402344 101.660156 C 105.621094 100.546875 105.765625 99.703125 105.839844 99.132812 C 105.839844 99.101562 105.847656 99.078125 105.863281 99.0625 L 105.863281 98.976562 C 105.921875 98.535156 105.957031 98.109375 105.972656 97.699219 C 105.988281 97.289062 105.980469 96.898438 105.949219 96.535156 C 105.40625 96.3125 104.886719 96.203125 104.386719 96.203125 C 104.226562 96.203125 104.066406 96.21875 103.90625 96.246094 C 103.832031 96.246094 103.765625 96.253906 103.707031 96.269531 C 103.617188 96.285156 103.546875 96.308594 103.484375 96.335938 L 102.738281 96.644531 C 102.339844 96.863281 101.988281 97.167969 101.683594 97.566406 C 101.476562 97.859375 101.308594 98.183594 101.175781 98.535156 C 101.117188 98.71875 101.070312 98.90625 101.03125 99.097656 L 100.953125 99.679688 C 100.953125 99.695312 100.953125 99.710938 100.953125 99.722656 C 100.953125 99.738281 100.953125 99.753906 100.953125 99.765625 L 100.953125 100.273438 C 100.972656 100.554688 101.019531 100.835938 101.085938 101.113281 C 101.101562 101.183594 101.117188 101.25 101.132812 101.308594 C 101.132812 101.46875 101.132812 101.628906 101.132812 101.792969 C 101.117188 102 101.09375 102.195312 101.0625 102.386719 C 100.300781 102.898438 99.472656 103.261719 98.578125 103.464844 C 98.253906 103.539062 97.925781 103.589844 97.585938 103.617188 C 97.28125 103.648438 96.949219 103.648438 96.597656 103.617188 C 95.585938 103.589844 94.582031 103.355469 93.582031 102.914062 C 92.289062 102.359375 91.199219 101.535156 90.300781 100.453125 C 89.6875 99.71875 89.222656 98.925781 88.917969 98.074219 C 88.738281 97.617188 88.609375 97.140625 88.519531 96.644531 C 87.699219 94.925781 87.140625 93.277344 86.847656 91.691406 C 90.617188 93.277344 93.171875 94.070312 94.507812 94.070312 C 100.640625 94.070312 104.613281 93.855469 106.4375 93.429688 C 108.167969 92.992188 110.214844 92.765625 112.578125 92.75 " fill-opacity="1" fill-rule="evenodd"/><g clip-path="url(#e85411a09d)"><path fill="#7a3a1e" d="M 112.578125 92.75 C 110.214844 92.765625 108.167969 92.992188 106.4375 93.429688 C 104.613281 93.855469 100.640625 94.070312 94.507812 94.070312 C 93.171875 94.070312 90.617188 93.277344 86.847656 91.691406 C 86.628906 90.429688 86.566406 89.222656 86.671875 88.0625 C 89.898438 89.164062 93.882812 89.710938 98.621094 89.710938 C 106.78125 89.710938 113.515625 88.335938 118.828125 85.574219 C 119.179688 85.386719 119.515625 85.203125 119.839844 85.023438 C 119.722656 85.1875 119.574219 85.363281 119.398438 85.554688 C 118.945312 86.007812 118.144531 86.542969 117 87.160156 C 116.839844 87.234375 116.683594 87.308594 116.539062 87.378906 L 116.558594 87.378906 C 116.515625 87.394531 116.464844 87.417969 116.40625 87.445312 L 116.382812 87.511719 C 115.824219 87.863281 115.304688 88.414062 114.820312 89.164062 L 114.734375 89.25 C 114.6875 89.324219 114.644531 89.390625 114.601562 89.449219 C 114.601562 89.464844 114.59375 89.484375 114.578125 89.515625 L 114.269531 90.066406 C 114.269531 90.078125 114.257812 90.09375 114.226562 90.109375 C 114.226562 90.136719 114.21875 90.160156 114.203125 90.175781 C 114.203125 90.1875 114.1875 90.210938 114.160156 90.242188 L 113.542969 91.363281 L 113.523438 91.386719 C 113.183594 91.929688 112.867188 92.382812 112.578125 92.75 Z M 87.75 84.015625 C 89.394531 80.183594 92.296875 77.347656 96.464844 75.5 C 98.636719 74.558594 100.925781 74.039062 103.332031 73.9375 C 105.765625 73.820312 108.101562 74.171875 110.332031 74.992188 C 112.632812 75.667969 114.585938 76.613281 116.183594 77.832031 C 117.507812 78.84375 118.539062 79.988281 119.289062 81.265625 C 119.011719 81.394531 118.699219 81.535156 118.363281 81.683594 C 111.96875 84.191406 105.464844 85.445312 98.863281 85.445312 C 93.582031 85.445312 89.878906 84.964844 87.75 84.015625 " fill-opacity="1" fill-rule="evenodd"/></g><path fill="#995f35" d="M 101.132812 101.308594 C 101.21875 101.574219 101.335938 101.832031 101.484375 102.078125 C 101.335938 102.167969 101.195312 102.269531 101.0625 102.386719 C 101.09375 102.195312 101.117188 102 101.132812 101.792969 C 101.132812 101.628906 101.132812 101.46875 101.132812 101.308594 " fill-opacity="1" fill-rule="evenodd"/><path fill="#ffaa83" d="M 141.78125 123.6875 C 142.296875 122.746094 142.324219 121.484375 141.867188 119.898438 C 140.871094 117.714844 140.34375 116.578125 140.285156 116.488281 C 139.539062 115.332031 138.824219 114.535156 138.148438 114.09375 C 137.988281 114.003906 137.828125 113.921875 137.667969 113.847656 C 137.960938 113.660156 138.253906 113.484375 138.546875 113.324219 C 141.113281 109.699219 142.984375 107.441406 144.160156 106.546875 C 145.011719 105.902344 145.804688 105.429688 146.535156 105.136719 C 147.503906 104.757812 148.363281 104.699219 149.113281 104.960938 C 149.535156 105.109375 149.925781 105.371094 150.277344 105.753906 C 150.074219 106.121094 149.441406 106.816406 148.382812 107.84375 C 147.753906 108.445312 146.976562 109.164062 146.050781 110 C 145.730469 110.277344 145.421875 110.542969 145.128906 110.792969 L 144.511719 113.300781 C 144.070312 115.046875 145.449219 116.5625 148.648438 117.855469 L 154.371094 120.164062 C 154.285156 120.328125 154.1875 120.480469 154.085938 120.628906 C 152.851562 122.667969 149.28125 123.6875 143.367188 123.6875 C 142.824219 123.6875 142.296875 123.6875 141.78125 123.6875 Z M 105.402344 101.660156 C 105.386719 101.660156 105.378906 101.667969 105.378906 101.683594 C 106.40625 101.34375 107.335938 100.453125 108.175781 98.996094 C 108.421875 99.21875 108.679688 99.328125 108.945312 99.328125 C 109.617188 99.328125 111.484375 97.332031 114.535156 93.34375 C 115.53125 92.023438 116.355469 90.945312 117 90.109375 C 116.957031 90.667969 116.910156 91.296875 116.867188 92 C 116.707031 93.980469 116.773438 95.550781 117.066406 96.710938 C 115.554688 97.339844 114.367188 98.558594 113.5 100.363281 C 113.164062 101.050781 112.578125 102.730469 111.738281 105.402344 C 110.769531 106.488281 109.296875 106.941406 107.316406 106.765625 C 106.785156 106.734375 105.9375 106.621094 104.761719 106.414062 C 104.382812 106.339844 104.035156 106.28125 103.726562 106.238281 C 103.15625 106.148438 102.703125 106.097656 102.363281 106.082031 C 102.273438 106.054688 102.195312 106.023438 102.121094 105.996094 C 101.785156 105.878906 101.460938 105.753906 101.152344 105.621094 C 101.375 104.050781 101.496094 102.863281 101.527344 102.058594 C 101.351562 101.746094 101.210938 101.425781 101.109375 101.085938 C 101.03125 100.824219 100.980469 100.550781 100.953125 100.273438 L 100.953125 99.765625 C 100.953125 99.753906 100.953125 99.738281 100.953125 99.722656 C 100.953125 99.710938 100.953125 99.695312 100.953125 99.679688 L 101.03125 99.097656 C 101.152344 98.539062 101.382812 98.03125 101.726562 97.566406 C 102.019531 97.171875 102.355469 96.867188 102.738281 96.644531 L 103.484375 96.335938 C 103.546875 96.308594 103.617188 96.285156 103.707031 96.269531 C 103.765625 96.253906 103.832031 96.246094 103.90625 96.246094 C 104.066406 96.21875 104.226562 96.203125 104.386719 96.203125 C 104.886719 96.203125 105.40625 96.3125 105.949219 96.535156 C 105.980469 96.898438 105.988281 97.289062 105.972656 97.699219 C 105.957031 98.109375 105.921875 98.535156 105.863281 98.976562 L 105.863281 99.0625 C 105.847656 99.078125 105.839844 99.101562 105.839844 99.132812 C 105.765625 99.703125 105.621094 100.546875 105.402344 101.660156 Z M 164.914062 143.664062 C 165.0625 143.578125 165.207031 143.476562 165.355469 143.359375 C 166.734375 142.417969 167.054688 140.796875 166.320312 138.492188 C 165.28125 136.324219 164.730469 135.203125 164.671875 135.128906 C 163.878906 133.984375 163.144531 133.207031 162.46875 132.796875 C 161.355469 132.121094 160.144531 132.027344 158.839844 132.507812 C 159.265625 131.90625 159.71875 131.410156 160.203125 131.011719 C 161.40625 130.074219 162.882812 129.164062 164.628906 128.285156 L 166.058594 127.644531 L 164.671875 128.304688 C 167.519531 127.472656 169.25 127.523438 169.867188 128.460938 C 169.453125 128.785156 169.109375 129.097656 168.832031 129.40625 L 168.960938 129.867188 C 169.695312 129.765625 170.171875 130.140625 170.394531 130.992188 C 170.480469 132.046875 170.546875 132.757812 170.589844 133.125 C 171.3125 133.917969 171.566406 134.921875 171.363281 136.140625 C 171.671875 137.136719 171.421875 138.148438 170.613281 139.175781 C 170.203125 139.746094 169.46875 140.578125 168.414062 141.664062 C 167.519531 142.46875 166.351562 143.136719 164.914062 143.664062 " fill-opacity="1" fill-rule="evenodd"/><path fill="#cccccc" d="M 152.457031 91.449219 L 152.894531 89.679688 L 152.964844 89.425781 L 186.636719 103.023438 L 186.152344 105.046875 L 186.128906 105.046875 L 152.457031 91.449219 " fill-opacity="1" fill-rule="evenodd"/><path fill="#63bb55" d="M 151.839844 102.542969 L 154.898438 103.773438 L 152.082031 115.058594 L 149.023438 113.804688 Z M 161.4375 193.347656 L 172.441406 199.621094 L 172.222656 211.589844 L 161.4375 205.449219 Z M 189.519531 217.792969 L 189.519531 182.480469 L 200.613281 188.773438 L 200.613281 216.429688 L 197.113281 214.429688 L 189.519531 218.828125 Z M 175.257812 197.992188 L 175.257812 188.992188 L 186.195312 195.261719 L 186.195312 219.710938 L 175.257812 213.371094 Z M 246.699219 241.953125 L 257.703125 248.222656 L 257.703125 260.347656 L 247.558594 254.539062 C 247.644531 254.261719 247.691406 253.984375 247.691406 253.703125 C 247.691406 253.175781 247.550781 252.667969 247.273438 252.183594 C 247.550781 251.6875 247.691406 251.152344 247.691406 250.578125 C 247.691406 249.726562 247.359375 248.941406 246.699219 248.222656 Z M 175.433594 122.804688 L 176.09375 120.164062 L 179.152344 121.398438 L 178.117188 125.578125 L 176.003906 124.71875 C 176.695312 123.988281 177.113281 123.199219 177.261719 122.367188 L 176.796875 122.101562 C 176.566406 122.21875 176.109375 122.453125 175.433594 122.804688 Z M 163.679688 97.480469 L 166.738281 98.710938 L 161.699219 118.933594 L 158.640625 117.699219 Z M 158.003906 99.042969 L 161.0625 100.273438 L 156.902344 116.996094 L 153.84375 115.765625 L 158.003906 99.042969 " fill-opacity="1" fill-rule="evenodd"/><path fill="#d51a00" d="M 254.160156 237.378906 L 246.699219 241.953125 L 246.699219 248.222656 C 246.316406 247.800781 245.820312 247.402344 245.203125 247.035156 L 245.203125 242.0625 L 243.15625 240.898438 L 243.15625 227.761719 L 254.160156 221.335938 Z M 240.273438 216.539062 L 232 221.425781 L 232 234.515625 L 229.269531 232.933594 L 229.421875 207.519531 L 240.273438 201.3125 Z M 214.851562 224.660156 L 214.851562 187.648438 L 225.660156 181.378906 L 225.660156 197.046875 L 218.636719 201.183594 L 218.636719 226.839844 L 217.164062 226 C 216.5625 225.371094 216.261719 225.195312 216.261719 225.472656 Z M 172.394531 123.246094 L 169.335938 122.015625 L 172.484375 109.339844 L 175.542969 110.574219 Z M 168.480469 101.550781 L 171.5625 102.804688 L 167.003906 121.066406 L 163.921875 119.835938 L 168.480469 101.550781 " fill-opacity="1" fill-rule="evenodd"/><path fill="#17388e" d="M 67.523438 109.933594 C 68.449219 106.882812 71.207031 104.785156 75.796875 103.640625 L 82.488281 103.597656 C 82.226562 104.257812 81.746094 104.945312 81.058594 105.664062 C 80.355469 106.367188 82.246094 107.824219 86.738281 110.023438 C 90.960938 112.132812 100.792969 115.289062 116.226562 119.484375 C 117.242188 119.761719 118.277344 120.046875 119.332031 120.339844 L 117.726562 119.085938 C 122.082031 117.882812 127.007812 116.320312 132.496094 114.398438 C 132.625 114.429688 132.773438 114.472656 132.933594 114.535156 C 133.683594 114.765625 134.386719 115.121094 135.046875 115.589844 C 136.191406 116.394531 137.21875 117.5625 138.128906 119.085938 C 136.425781 119.789062 134.753906 120.480469 133.109375 121.15625 C 132.917969 121.230469 132.734375 121.304688 132.558594 121.375 C 129.007812 122.785156 125.679688 124.039062 122.566406 125.136719 C 122.304688 124.65625 122.003906 124.171875 121.664062 123.6875 C 115.988281 124.582031 111.972656 126.363281 109.628906 129.03125 C 107.703125 131.203125 106.890625 133.960938 107.183594 137.308594 C 107.214844 137.761719 107.273438 138.230469 107.359375 138.714844 C 107.828125 141.589844 109.046875 144.867188 111.011719 148.550781 C 111.117188 148.738281 111.21875 148.929688 111.320312 149.121094 C 111.953125 150.324219 112.570312 151.542969 113.167969 152.773438 C 117.980469 162.75 121.261719 173.339844 123.007812 184.546875 C 123.390625 187.054688 123.703125 189.59375 123.953125 192.160156 C 124.042969 193.214844 124.125 194.28125 124.195312 195.351562 C 122.582031 195.6875 120.945312 196.035156 119.289062 196.386719 C 117.089844 196.851562 114.886719 197.183594 112.6875 197.375 C 108.078125 197.769531 103.5 197.582031 98.953125 196.804688 C 96.472656 196.378906 94.007812 195.777344 91.558594 195 L 91.160156 176.230469 L 88.9375 194.164062 L 88.675781 194.03125 L 82.820312 191.058594 L 78.132812 188.664062 C 78.527344 185.421875 78.953125 182.214844 79.40625 179.046875 C 80.140625 174.5 80.441406 169.980469 80.308594 165.492188 C 80.136719 157.820312 79.175781 150.273438 77.425781 142.851562 C 75.578125 135.03125 72.855469 127.34375 69.261719 119.789062 C 68.96875 119.324219 68.71875 118.839844 68.511719 118.339844 C 68.308594 117.824219 68.125 117.328125 67.964844 116.84375 C 67.113281 114.230469 66.949219 111.980469 67.480469 110.089844 C 67.492188 110.03125 67.507812 109.976562 67.523438 109.933594 " fill-opacity="1" fill-rule="evenodd"/><path fill="#d1e7f4" d="M 139.183594 125.601562 C 139.316406 124.925781 139.375 124.25 139.359375 123.574219 C 139.332031 122.050781 138.921875 120.554688 138.128906 119.085938 C 137.21875 117.5625 136.191406 116.394531 135.046875 115.589844 C 134.386719 115.121094 133.683594 114.765625 132.933594 114.535156 C 134.679688 113.402344 136.257812 113.175781 137.667969 113.847656 C 137.828125 113.921875 137.988281 114.003906 138.148438 114.09375 C 138.824219 114.535156 139.539062 115.332031 140.285156 116.488281 C 140.34375 116.578125 140.871094 117.714844 141.867188 119.898438 C 142.324219 121.484375 142.296875 122.746094 141.78125 123.6875 C 141.546875 124.113281 141.203125 124.472656 140.746094 124.765625 C 140.203125 125.117188 139.683594 125.394531 139.183594 125.601562 Z M 158.839844 132.507812 C 160.144531 132.027344 161.355469 132.121094 162.46875 132.796875 C 163.144531 133.207031 163.878906 133.984375 164.671875 135.128906 C 164.730469 135.203125 165.28125 136.324219 166.320312 138.492188 C 167.054688 140.796875 166.734375 142.417969 165.355469 143.359375 C 165.207031 143.476562 165.0625 143.578125 164.914062 143.664062 C 164.636719 143.824219 164.363281 143.972656 164.097656 144.105469 C 164.1875 143.898438 164.277344 143.695312 164.363281 143.488281 C 165.082031 141.480469 164.988281 139.515625 164.078125 137.59375 C 163.871094 137.136719 163.636719 136.726562 163.371094 136.359375 C 162.480469 135.070312 161.257812 134.144531 159.71875 133.585938 C 159.015625 133.324219 158.316406 133.167969 157.628906 133.125 C 158.039062 132.875 158.441406 132.671875 158.839844 132.507812 " fill-opacity="1" fill-rule="evenodd"/><path fill="#ed9870" d="M 108.175781 98.996094 C 108.335938 98.71875 108.496094 98.417969 108.65625 98.097656 C 108.671875 98.039062 108.695312 97.988281 108.726562 97.941406 C 109.28125 96.726562 109.675781 95.917969 109.914062 95.519531 C 109.964844 95.441406 110.015625 95.359375 110.066406 95.28125 L 110.242188 95.035156 L 111.367188 93.851562 C 111.410156 93.804688 111.460938 93.769531 111.519531 93.742188 C 111.578125 93.695312 111.636719 93.652344 111.695312 93.605469 C 111.726562 93.59375 111.753906 93.570312 111.785156 93.542969 L 112.179688 93.199219 C 112.808594 92.605469 113.492188 91.59375 114.226562 90.175781 C 114.417969 89.808594 114.617188 89.46875 114.820312 89.164062 C 115.304688 88.414062 115.824219 87.863281 116.382812 87.511719 C 116.589844 87.367188 116.800781 87.25 117.019531 87.160156 C 117.082031 87.761719 117.074219 88.699219 117 89.976562 C 117 90.019531 117 90.066406 117 90.109375 C 116.355469 90.945312 115.53125 92.023438 114.535156 93.34375 C 111.484375 97.332031 109.617188 99.328125 108.945312 99.328125 C 108.679688 99.328125 108.421875 99.21875 108.175781 98.996094 " fill-opacity="1" fill-rule="evenodd"/><path fill="#112558" d="M 78.417969 288.203125 C 78.09375 288.203125 77.773438 288.203125 77.449219 288.203125 C 76.113281 288.203125 75.007812 287.773438 74.125 286.90625 C 72.734375 285.085938 71.96875 283.003906 71.835938 280.65625 C 71.542969 276.109375 71.742188 271.578125 72.433594 267.058594 L 72.433594 267.035156 C 73.09375 262.871094 73.515625 258.683594 73.707031 254.472656 C 73.941406 249.425781 74.609375 244.542969 75.710938 239.820312 C 76.078125 238.339844 76.585938 236.769531 77.230469 235.113281 C 78.886719 231.046875 79.949219 226.839844 80.421875 222.480469 C 80.875 217.960938 81.351562 213.445312 81.851562 208.925781 C 82.378906 203.808594 82.695312 198.753906 82.796875 193.765625 L 82.820312 191.058594 L 88.675781 194.03125 C 88.558594 195.554688 88.410156 197.082031 88.234375 198.605469 C 87.675781 203.59375 87.097656 208.582031 86.496094 213.570312 C 85.9375 218.425781 85.261719 223.214844 84.46875 227.9375 C 83.605469 232.925781 82.777344 237.851562 81.984375 242.722656 C 81.160156 247.753906 80.339844 252.859375 79.519531 258.039062 C 79.105469 260.605469 78.769531 263.171875 78.503906 265.738281 C 78.253906 268.011719 78.066406 270.285156 77.933594 272.558594 C 77.640625 277.738281 77.800781 282.953125 78.417969 288.203125 Z M 119.046875 297.644531 C 118.488281 297.820312 117.929688 297.988281 117.375 298.152344 C 115.820312 298.546875 114.277344 298.628906 112.75 298.390625 C 110.636719 295.296875 109.765625 291.8125 110.132812 287.941406 C 110.542969 283.628906 110.457031 279.34375 109.867188 275.089844 C 109.75 274.3125 109.617188 273.527344 109.472656 272.734375 C 108.726562 268.746094 108.429688 264.757812 108.59375 260.765625 C 108.78125 255.515625 108.796875 250.25 108.636719 244.96875 C 108.503906 240.011719 108.0625 235.074219 107.316406 230.160156 C 106.554688 225.085938 105.421875 220.015625 103.925781 214.957031 C 103.53125 213.679688 103.289062 212.449219 103.199219 211.257812 L 102.496094 207.828125 C 102.4375 207.988281 102.371094 208.140625 102.296875 208.289062 L 98.953125 196.804688 C 103.5 197.582031 108.078125 197.769531 112.6875 197.375 C 114.007812 201.847656 115.148438 206.375 116.117188 210.949219 C 118.203125 220.910156 118.699219 230.945312 117.617188 241.050781 C 116.148438 254.472656 115.90625 267.886719 116.890625 281.296875 C 117.199219 285.386719 117.617188 289.488281 118.144531 293.59375 C 118.320312 294.972656 118.621094 296.324219 119.046875 297.644531 " fill-opacity="1" fill-rule="evenodd"/><path fill="#05102e" d="M 87.882812 277.6875 C 87 278.757812 86.273438 280.019531 85.703125 281.472656 C 84.324219 285.035156 81.894531 287.28125 78.417969 288.203125 C 77.800781 282.953125 77.640625 277.738281 77.933594 272.558594 C 78.066406 270.285156 78.253906 268.011719 78.503906 265.738281 C 78.769531 263.171875 79.105469 260.605469 79.519531 258.039062 C 80.339844 252.859375 81.160156 247.753906 81.984375 242.722656 C 82.777344 237.851562 83.605469 232.925781 84.46875 227.9375 C 85.261719 223.214844 85.9375 218.425781 86.496094 213.570312 C 87.097656 208.582031 87.675781 203.59375 88.234375 198.605469 C 88.410156 197.082031 88.558594 195.554688 88.675781 194.03125 L 88.9375 194.164062 L 91.160156 176.230469 L 91.558594 195 C 94.007812 195.777344 96.472656 196.378906 98.953125 196.804688 L 102.296875 208.289062 C 101.050781 211.648438 100.097656 215.058594 99.4375 218.519531 C 98.835938 221.558594 98.085938 224.578125 97.191406 227.585938 C 95.84375 232.207031 94.542969 236.878906 93.296875 241.601562 C 92.296875 245.195312 91.453125 248.855469 90.765625 252.582031 C 89.972656 256.675781 89.246094 260.789062 88.585938 264.925781 C 88.558594 265.113281 88.527344 265.304688 88.5 265.496094 C 88.351562 266.40625 88.199219 267.324219 88.035156 268.246094 L 87.925781 268.292969 C 88.660156 271.460938 88.644531 274.59375 87.882812 277.6875 Z M 122.566406 125.136719 C 123.609375 127.03125 124.203125 129.039062 124.351562 131.167969 L 121.027344 128.589844 C 119.324219 127.285156 117.417969 126.773438 115.304688 127.050781 C 113.78125 127.257812 112.472656 127.820312 111.386719 128.746094 C 110.960938 129.113281 110.566406 129.53125 110.199219 130 C 108.894531 131.6875 108.371094 133.585938 108.636719 135.699219 C 108.738281 136.476562 108.9375 137.195312 109.230469 137.855469 C 109.730469 139 110.515625 139.992188 111.585938 140.828125 L 126.726562 152.53125 C 129.894531 165.632812 133.148438 178.597656 136.476562 191.433594 L 130.601562 193.304688 C 130.734375 195.605469 130.683594 197.910156 130.445312 200.214844 C 130.140625 203.175781 129.824219 206.160156 129.5 209.167969 C 129.164062 212.101562 128.832031 215.058594 128.511719 218.035156 C 128.171875 221.261719 127.871094 224.511719 127.609375 227.785156 C 127.253906 232.699219 126.925781 237.632812 126.617188 242.59375 C 126.324219 247.503906 126.242188 252.457031 126.375 257.441406 C 126.535156 262.753906 126.933594 267.96875 127.5625 273.089844 C 127.84375 275.523438 128.363281 277.890625 129.125 280.195312 C 129.273438 280.636719 129.425781 281.074219 129.589844 281.515625 C 129.851562 282.277344 130.300781 282.96875 130.929688 283.585938 C 131.535156 284.214844 131.835938 285.042969 131.835938 286.070312 C 131.835938 286.527344 131.71875 286.9375 131.480469 287.300781 C 129.03125 291.261719 125.8125 294.429688 121.820312 296.808594 L 119.046875 297.644531 C 118.621094 296.324219 118.320312 294.972656 118.144531 293.59375 C 117.617188 289.488281 117.199219 285.386719 116.890625 281.296875 C 115.90625 267.886719 116.148438 254.472656 117.617188 241.050781 C 118.699219 230.945312 118.203125 220.910156 116.117188 210.949219 C 115.148438 206.375 114.007812 201.847656 112.6875 197.375 C 114.886719 197.183594 117.089844 196.851562 119.289062 196.386719 C 120.945312 196.035156 122.582031 195.6875 124.195312 195.351562 C 124.125 194.28125 124.042969 193.214844 123.953125 192.160156 C 123.703125 189.59375 123.390625 187.054688 123.007812 184.546875 C 121.261719 173.339844 117.980469 162.75 113.167969 152.773438 C 112.570312 151.542969 111.953125 150.324219 111.320312 149.121094 C 111.21875 148.929688 111.117188 148.738281 111.011719 148.550781 C 109.046875 144.867188 107.828125 141.589844 107.359375 138.714844 C 107.273438 138.230469 107.214844 137.761719 107.183594 137.308594 C 106.890625 133.960938 107.703125 131.203125 109.628906 129.03125 C 111.972656 126.363281 115.988281 124.582031 121.664062 123.6875 C 122.003906 124.171875 122.304688 124.65625 122.566406 125.136719 " fill-opacity="1" fill-rule="evenodd"/><path fill="#2c2c2c" d="M 104.875 109.691406 L 104.34375 108.457031 L 104.386719 108.484375 L 106.457031 110.285156 Z M 92.699219 272.691406 L 92.589844 271.65625 C 92.488281 271.980469 92.371094 272.3125 92.238281 272.648438 C 91.390625 274.894531 89.9375 276.574219 87.882812 277.6875 C 88.644531 274.59375 88.660156 271.460938 87.925781 268.292969 L 88.035156 268.246094 C 90.148438 267.808594 91.636719 268.535156 92.503906 270.425781 C 92.722656 270.910156 92.820312 271.480469 92.789062 272.140625 C 92.789062 272.316406 92.761719 272.5 92.699219 272.691406 Z M 143.410156 287.851562 L 143.257812 285.367188 C 143.226562 286.070312 143.183594 286.78125 143.125 287.5 C 143.019531 288.71875 142.640625 289.757812 141.980469 290.625 C 140.527344 292.632812 138.546875 293.707031 136.035156 293.839844 C 131.152344 294.101562 126.414062 295.089844 121.820312 296.808594 C 125.8125 294.429688 129.03125 291.261719 131.480469 287.300781 C 131.71875 286.9375 131.835938 286.527344 131.835938 286.070312 C 131.835938 285.042969 131.535156 284.214844 130.929688 283.585938 C 133.835938 283.363281 136.78125 283.253906 139.757812 283.253906 C 141.402344 283.445312 142.65625 284.25 143.519531 285.675781 L 143.410156 287.851562 " fill-opacity="1" fill-rule="evenodd"/><g clip-path="url(#e06ee4a6cb)"><path fill="#000000" d="M 78.417969 288.203125 C 81.894531 287.28125 84.324219 285.035156 85.703125 281.472656 C 86.273438 280.019531 87 278.757812 87.882812 277.6875 C 89.9375 276.574219 91.390625 274.894531 92.238281 272.648438 C 92.371094 272.3125 92.488281 271.980469 92.589844 271.65625 L 92.699219 272.691406 C 92.628906 275.140625 91.46875 277.105469 89.222656 278.589844 C 88.269531 279.175781 87.464844 279.886719 86.804688 280.722656 L 85.859375 282.703125 C 85.753906 285.84375 84.300781 288.132812 81.5 289.566406 C 80.074219 290.300781 78.554688 290.484375 76.945312 290.117188 C 75.625 289.988281 74.683594 289.347656 74.125 288.203125 C 73.65625 287.28125 73.65625 286.847656 74.125 286.90625 C 75.007812 287.773438 76.113281 288.203125 77.449219 288.203125 C 77.773438 288.203125 78.09375 288.203125 78.417969 288.203125 Z M 121.820312 296.808594 C 126.414062 295.089844 131.152344 294.101562 136.035156 293.839844 C 138.546875 293.707031 140.527344 292.632812 141.980469 290.625 C 142.640625 289.757812 143.019531 288.71875 143.125 287.5 C 143.183594 286.78125 143.226562 286.070312 143.257812 285.367188 L 143.410156 287.851562 C 143.25 292.371094 140.820312 294.945312 136.125 295.574219 C 133.71875 295.738281 131.3125 295.988281 128.90625 296.324219 C 128.042969 296.515625 127.183594 296.726562 126.332031 296.960938 L 126.175781 299.230469 C 123.082031 300.386719 119.875 301.003906 116.558594 301.078125 C 115.003906 301.105469 113.851562 300.460938 113.105469 299.140625 C 112.972656 298.90625 112.855469 298.65625 112.75 298.390625 C 114.277344 298.628906 115.820312 298.546875 117.375 298.152344 C 117.929688 297.988281 118.488281 297.820312 119.046875 297.644531 L 121.820312 296.808594 " fill-opacity="1" fill-rule="evenodd"/></g><path fill="#2a53bc" d="M 93.800781 109.492188 C 97.542969 110.550781 101.476562 111.109375 105.597656 111.167969 C 105.613281 111.167969 105.636719 111.167969 105.664062 111.167969 L 104.875 109.691406 L 106.457031 110.285156 L 117.726562 119.085938 L 119.332031 120.339844 C 118.277344 120.046875 117.242188 119.761719 116.226562 119.484375 C 100.792969 115.289062 90.960938 112.132812 86.738281 110.023438 C 82.246094 107.824219 80.355469 106.367188 81.058594 105.664062 C 81.746094 104.945312 82.226562 104.257812 82.488281 103.597656 L 86.738281 102.847656 L 86.316406 104.101562 L 85.746094 105.753906 L 85.65625 105.972656 C 85.703125 106.019531 85.753906 106.0625 85.8125 106.105469 C 86.0625 106.324219 86.3125 106.53125 86.5625 106.722656 C 88.894531 107.867188 91.308594 108.789062 93.800781 109.492188 " fill-opacity="1" fill-rule="evenodd"/><path fill="#ffa886" d="M 176.003906 124.71875 C 175.652344 125.070312 175.234375 125.417969 174.753906 125.753906 C 174.429688 125.976562 174.070312 126.1875 173.671875 126.390625 C 173.542969 126.496094 173.378906 126.582031 173.1875 126.65625 C 172.835938 126.832031 172.433594 127.039062 171.980469 127.269531 C 171.699219 127.417969 171.398438 127.582031 171.074219 127.757812 C 170.621094 127.992188 170.246094 128.210938 169.953125 128.417969 L 169.867188 128.460938 C 169.25 127.523438 167.519531 127.472656 164.671875 128.304688 L 166.058594 127.644531 C 167.171875 127.074219 168.171875 126.554688 169.050781 126.085938 C 170.210938 125.496094 171.179688 125.003906 171.957031 124.609375 C 172.339844 124.417969 172.667969 124.257812 172.945312 124.125 C 173.976562 123.582031 174.804688 123.140625 175.433594 122.804688 C 176.109375 122.453125 176.566406 122.21875 176.796875 122.101562 L 177.261719 122.367188 C 177.113281 123.199219 176.695312 123.988281 176.003906 124.71875 " fill-opacity="1" fill-rule="evenodd"/><path fill="#419335" d="M 203.914062 186.855469 L 203.914062 218.367188 L 200.613281 216.429688 L 200.613281 188.773438 Z M 175.257812 197.992188 L 175.257812 210.117188 L 172.222656 211.589844 L 172.441406 199.621094 Z M 189.519531 217.792969 L 186.195312 219.710938 L 186.195312 195.261719 L 189.519531 193.128906 Z M 257.703125 248.222656 L 268.644531 241.800781 L 268.644531 253.988281 L 257.703125 260.347656 L 257.703125 248.222656 " fill-opacity="1" fill-rule="evenodd"/><path fill="#85dc78" d="M 172.441406 199.621094 L 161.4375 193.347656 L 172 186.613281 L 172.285156 186.789062 L 175.476562 188.617188 L 186.042969 182.347656 L 189.519531 184.328125 L 189.519531 193.128906 L 186.195312 195.261719 L 175.257812 188.992188 L 175.257812 197.992188 Z M 268.644531 241.800781 L 257.703125 248.222656 L 246.699219 241.953125 L 254.160156 237.378906 L 257.484375 235.308594 Z M 200.613281 188.773438 L 189.519531 182.480469 L 195.394531 178.78125 L 200.304688 175.679688 L 204.441406 178.078125 L 207.105469 179.597656 L 203.914062 181.445312 L 203.914062 186.855469 L 200.613281 188.773438 " fill-opacity="1" fill-rule="evenodd"/><path fill="#ff8a79" d="M 254.160156 221.335938 L 243.15625 227.761719 L 232 221.425781 L 240.273438 216.539062 L 242.9375 214.910156 Z M 229.421875 207.519531 L 218.636719 201.183594 L 225.660156 197.046875 L 229.421875 194.757812 L 240.273438 201.3125 Z M 214.851562 187.648438 L 203.914062 181.445312 L 207.105469 179.597656 L 214.632812 175.109375 L 225.660156 181.378906 L 214.851562 187.648438 " fill-opacity="1" fill-rule="evenodd"/><path fill="#fd3d22" d="M 243.15625 240.898438 L 232 234.515625 L 232 221.425781 L 243.15625 227.761719 Z M 229.269531 232.933594 L 218.636719 226.839844 L 218.636719 201.183594 L 229.421875 207.519531 Z M 214.851562 187.648438 L 214.851562 224.660156 L 203.914062 218.367188 L 203.914062 181.445312 L 214.851562 187.648438 " fill-opacity="1" fill-rule="evenodd"/><path fill="#c9c29d" d="M 239.4375 245.410156 L 245.203125 242.0625 L 245.203125 247.035156 C 245.128906 246.976562 245.054688 246.925781 244.984375 246.882812 C 244.425781 246.558594 243.816406 246.289062 243.15625 246.070312 C 242.042969 245.6875 240.800781 245.46875 239.4375 245.410156 Z M 217.734375 257.839844 L 229.421875 251.175781 C 229.496094 251.523438 229.628906 251.839844 229.816406 252.121094 C 229.527344 252.648438 229.378906 253.175781 229.378906 253.703125 C 229.378906 254.027344 229.414062 254.328125 229.488281 254.605469 C 229.414062 254.929688 229.378906 255.230469 229.378906 255.507812 C 229.378906 256.035156 229.503906 256.527344 229.753906 256.984375 C 229.503906 257.453125 229.378906 257.964844 229.378906 258.523438 C 229.378906 258.800781 229.429688 259.117188 229.53125 259.46875 C 229.457031 259.644531 229.40625 259.84375 229.378906 260.0625 C 229.378906 260.164062 229.378906 260.28125 229.378906 260.414062 C 229.378906 260.957031 229.503906 261.457031 229.753906 261.910156 C 229.503906 262.363281 229.378906 262.855469 229.378906 263.382812 C 229.378906 263.765625 229.453125 264.152344 229.597656 264.550781 L 217.78125 271.371094 L 217.734375 271.371094 L 217.734375 257.839844 " fill-opacity="1" fill-rule="evenodd"/><path fill="#ffcc00" d="M 247.273438 252.183594 C 247.125 252.480469 246.933594 252.757812 246.699219 253.023438 C 246.316406 253.445312 245.820312 253.835938 245.203125 254.1875 C 245.128906 254.214844 245.054688 254.253906 244.984375 254.296875 C 244.085938 254.8125 243.097656 255.191406 242.011719 255.441406 C 240.941406 255.691406 239.78125 255.816406 238.535156 255.816406 C 236.023438 255.816406 233.890625 255.308594 232.128906 254.296875 C 231.042969 253.652344 230.273438 252.925781 229.816406 252.121094 C 229.628906 251.839844 229.496094 251.523438 229.421875 251.175781 C 229.394531 250.953125 229.378906 250.753906 229.378906 250.578125 C 229.378906 249.859375 229.613281 249.183594 230.082031 248.554688 C 230.523438 247.953125 231.191406 247.394531 232.085938 246.882812 C 232.363281 246.722656 232.660156 246.574219 232.964844 246.441406 C 234.550781 245.722656 236.40625 245.363281 238.535156 245.363281 C 238.855469 245.363281 239.15625 245.378906 239.4375 245.410156 C 240.800781 245.46875 242.042969 245.6875 243.15625 246.070312 C 243.816406 246.289062 244.425781 246.558594 244.984375 246.882812 C 245.054688 246.925781 245.128906 246.976562 245.203125 247.035156 C 245.820312 247.402344 246.316406 247.800781 246.699219 248.222656 C 247.359375 248.941406 247.691406 249.726562 247.691406 250.578125 C 247.691406 251.152344 247.550781 251.6875 247.273438 252.183594 Z M 216.261719 225.472656 C 216.261719 225.195312 216.5625 225.371094 217.164062 226 Z M 171.097656 224.085938 C 170.699219 224.863281 169.953125 225.554688 168.851562 226.15625 C 167.0625 227.210938 164.914062 227.742188 162.40625 227.742188 C 159.910156 227.742188 157.761719 227.210938 155.953125 226.15625 C 154.871094 225.523438 154.113281 224.820312 153.6875 224.042969 C 153.410156 223.542969 153.269531 223.039062 153.269531 222.523438 C 153.269531 221.074219 154.152344 219.832031 155.910156 218.808594 C 157.703125 217.777344 159.867188 217.265625 162.40625 217.265625 C 164.914062 217.265625 167.0625 217.777344 168.851562 218.808594 C 170.628906 219.832031 171.515625 221.074219 171.515625 222.523438 C 171.515625 223.039062 171.375 223.558594 171.097656 224.085938 Z M 153.359375 226.484375 C 153.683594 227.542969 154.546875 228.488281 155.953125 229.324219 C 157.761719 230.351562 159.910156 230.863281 162.40625 230.863281 C 164.914062 230.863281 167.0625 230.351562 168.851562 229.324219 C 170.277344 228.488281 171.105469 227.542969 171.339844 226.484375 C 171.457031 226.765625 171.515625 227.066406 171.515625 227.386719 C 171.515625 227.898438 171.375 228.421875 171.097656 228.949219 C 170.953125 229.300781 170.699219 229.636719 170.351562 229.960938 C 170.203125 230.066406 170.039062 230.1875 169.867188 230.335938 C 169.835938 230.410156 169.785156 230.460938 169.710938 230.492188 C 169.464844 230.710938 169.175781 230.910156 168.851562 231.085938 C 167.0625 232.097656 164.914062 232.601562 162.40625 232.601562 C 159.910156 232.601562 157.761719 232.097656 155.953125 231.085938 C 154.871094 230.410156 154.113281 229.683594 153.6875 228.90625 C 153.410156 228.40625 153.269531 227.898438 153.269531 227.386719 C 153.269531 227.066406 153.300781 226.765625 153.359375 226.484375 Z M 153.425781 231.390625 C 153.734375 232.449219 154.574219 233.378906 155.953125 234.1875 C 157.761719 235.214844 159.910156 235.726562 162.40625 235.726562 C 164.914062 235.726562 167.0625 235.214844 168.851562 234.1875 C 169.175781 234.023438 169.464844 233.835938 169.710938 233.613281 C 170.589844 232.984375 171.132812 232.265625 171.339844 231.457031 C 171.457031 231.722656 171.515625 232.039062 171.515625 232.402344 C 171.515625 232.890625 171.390625 233.378906 171.140625 233.878906 C 170.863281 234.453125 170.386719 234.992188 169.710938 235.507812 C 169.464844 235.726562 169.175781 235.925781 168.851562 236.101562 C 167.0625 237.128906 164.914062 237.640625 162.40625 237.640625 C 159.910156 237.640625 157.761719 237.128906 155.953125 236.101562 C 154.828125 235.441406 154.058594 234.699219 153.644531 233.878906 C 153.394531 233.378906 153.269531 232.890625 153.269531 232.402344 C 153.269531 232.039062 153.324219 231.699219 153.425781 231.390625 Z M 153.578125 236.738281 C 153.960938 237.621094 154.753906 238.390625 155.953125 239.050781 C 157.761719 240.074219 159.910156 240.589844 162.40625 240.589844 C 164.914062 240.589844 167.0625 240.074219 168.851562 239.050781 C 169.175781 238.886719 169.464844 238.699219 169.710938 238.476562 C 170.414062 237.949219 170.90625 237.371094 171.1875 236.738281 C 171.40625 237.191406 171.515625 237.648438 171.515625 238.101562 C 171.515625 238.632812 171.390625 239.144531 171.140625 239.644531 C 170.863281 240.199219 170.386719 240.75 169.710938 241.292969 C 169.464844 241.453125 169.175781 241.625 168.851562 241.800781 C 168.121094 242.226562 167.3125 242.585938 166.433594 242.878906 C 165.230469 243.1875 163.886719 243.339844 162.40625 243.339844 C 160.921875 243.339844 159.566406 243.1875 158.332031 242.878906 C 157.480469 242.585938 156.6875 242.226562 155.953125 241.800781 C 154.796875 241.140625 154.027344 240.398438 153.644531 239.578125 C 153.394531 239.121094 153.269531 238.632812 153.269531 238.101562 C 153.269531 237.621094 153.375 237.164062 153.578125 236.738281 Z M 153.425781 242.019531 C 153.675781 242.796875 154.179688 243.488281 154.945312 244.089844 C 155.265625 244.320312 155.605469 244.550781 155.953125 244.769531 C 157.761719 245.796875 159.910156 246.3125 162.40625 246.3125 C 164.914062 246.3125 167.0625 245.796875 168.851562 244.769531 C 169.320312 244.492188 169.734375 244.191406 170.085938 243.867188 C 170.714844 243.339844 171.132812 242.722656 171.339844 242.019531 C 171.457031 242.339844 171.515625 242.679688 171.515625 243.03125 C 171.515625 243.515625 171.390625 244.007812 171.140625 244.507812 C 170.761719 245.3125 169.996094 246.03125 168.851562 246.664062 C 167.0625 247.734375 164.914062 248.269531 162.40625 248.269531 C 159.910156 248.269531 157.761719 247.734375 155.953125 246.664062 C 154.972656 246.105469 154.269531 245.496094 153.84375 244.835938 C 153.769531 244.691406 153.703125 244.558594 153.644531 244.441406 C 153.394531 243.984375 153.269531 243.515625 153.269531 243.03125 C 153.269531 242.679688 153.324219 242.339844 153.425781 242.019531 Z M 153.6875 249.433594 C 153.410156 248.9375 153.269531 248.421875 153.269531 247.894531 C 153.269531 247.542969 153.324219 247.203125 153.425781 246.882812 C 153.777344 247.910156 154.621094 248.824219 155.953125 249.632812 C 157.761719 250.660156 159.910156 251.175781 162.40625 251.175781 C 164.914062 251.175781 167.0625 250.660156 168.851562 249.632812 C 170.246094 248.824219 171.074219 247.910156 171.339844 246.882812 C 171.414062 247.101562 171.449219 247.335938 171.449219 247.585938 C 171.949219 246.972656 172.601562 246.433594 173.410156 245.980469 C 173.484375 245.953125 173.535156 245.914062 173.5625 245.871094 C 175.296875 244.917969 177.398438 244.441406 179.878906 244.441406 C 182.402344 244.441406 184.566406 244.953125 186.371094 245.980469 C 188.132812 247.007812 189.011719 248.246094 189.011719 249.699219 C 189.011719 250.226562 188.875 250.753906 188.59375 251.285156 C 188.214844 252.015625 187.496094 252.699219 186.4375 253.328125 L 186.371094 253.394531 C 184.757812 254.304688 182.820312 254.816406 180.5625 254.933594 C 180.34375 254.933594 180.113281 254.933594 179.878906 254.933594 C 177.398438 254.933594 175.265625 254.421875 173.472656 253.394531 C 173.402344 253.351562 173.351562 253.3125 173.320312 253.285156 C 172.5 252.785156 171.863281 252.257812 171.40625 251.703125 C 171.332031 251.523438 171.246094 251.371094 171.140625 251.238281 C 170.964844 250.84375 170.84375 250.429688 170.769531 250.007812 C 170.34375 250.5625 169.703125 251.089844 168.851562 251.589844 C 167.0625 252.617188 164.914062 253.132812 162.40625 253.132812 C 159.910156 253.132812 157.761719 252.617188 155.953125 251.589844 C 154.871094 250.917969 154.113281 250.199219 153.6875 249.433594 Z M 170.945312 258.566406 C 171.25 259.5625 172.09375 260.453125 173.472656 261.226562 C 175.265625 262.242188 177.398438 262.746094 179.878906 262.746094 C 182.402344 262.746094 184.566406 262.242188 186.371094 261.226562 C 187.679688 260.453125 188.507812 259.5625 188.859375 258.566406 C 188.960938 258.890625 189.011719 259.226562 189.011719 259.578125 C 189.011719 260.035156 188.910156 260.511719 188.707031 261.007812 C 188.324219 261.816406 187.546875 262.570312 186.371094 263.273438 C 184.566406 264.300781 182.402344 264.8125 179.878906 264.8125 C 177.398438 264.8125 175.265625 264.300781 173.472656 263.273438 C 172.945312 262.953125 172.46875 262.601562 172.042969 262.21875 C 172.074219 262.394531 172.089844 262.570312 172.089844 262.746094 C 172.089844 263.347656 171.949219 263.898438 171.671875 264.398438 C 171.640625 264.453125 171.605469 264.507812 171.5625 264.550781 C 171.148438 265.226562 170.429688 265.855469 169.402344 266.445312 C 167.640625 267.46875 165.492188 267.984375 162.953125 267.984375 C 160.445312 267.984375 158.3125 267.46875 156.550781 266.445312 C 155.449219 265.8125 154.671875 265.109375 154.214844 264.332031 C 153.96875 263.847656 153.84375 263.320312 153.84375 262.746094 C 153.84375 261.835938 154.210938 261.007812 154.945312 260.261719 C 155.382812 259.804688 155.894531 259.402344 156.484375 259.050781 C 157.480469 258.476562 158.597656 258.074219 159.828125 257.839844 C 160.8125 257.621094 161.855469 257.511719 162.953125 257.511719 C 163.863281 257.511719 164.746094 257.582031 165.597656 257.730469 C 166.300781 257.832031 166.96875 258.007812 167.597656 258.257812 C 168.230469 258.460938 168.832031 258.726562 169.402344 259.050781 C 169.960938 259.375 170.414062 259.710938 170.769531 260.0625 C 170.769531 259.914062 170.769531 259.753906 170.769531 259.578125 C 170.769531 259.195312 170.828125 258.859375 170.945312 258.566406 Z M 170.945312 253.769531 C 171.046875 254.222656 171.289062 254.679688 171.671875 255.132812 C 172.125 255.589844 172.726562 256.050781 173.472656 256.519531 C 173.679688 256.625 173.871094 256.726562 174.046875 256.828125 C 175.703125 257.632812 177.648438 258.039062 179.878906 258.039062 C 182.402344 258.039062 184.566406 257.53125 186.371094 256.519531 C 187.402344 255.917969 188.105469 255.265625 188.484375 254.5625 C 188.660156 254.28125 188.785156 254.019531 188.859375 253.769531 C 188.960938 254.078125 189.011719 254.40625 189.011719 254.761719 L 189.011719 254.824219 C 189.011719 255.25 188.910156 255.691406 188.707031 256.144531 C 188.324219 256.996094 187.546875 257.773438 186.371094 258.476562 C 184.566406 259.492188 182.402344 259.996094 179.878906 259.996094 C 177.398438 259.996094 175.265625 259.492188 173.472656 258.476562 C 173.003906 258.183594 172.617188 257.921875 172.308594 257.6875 C 171.707031 257.1875 171.28125 256.675781 171.03125 256.144531 C 171.003906 256 170.953125 255.835938 170.878906 255.664062 C 170.804688 255.339844 170.769531 255.039062 170.769531 254.761719 C 170.769531 254.40625 170.828125 254.078125 170.945312 253.769531 Z M 229.753906 261.910156 C 229.503906 261.457031 229.378906 260.957031 229.378906 260.414062 C 229.378906 260.28125 229.378906 260.164062 229.378906 260.0625 C 229.40625 259.84375 229.457031 259.644531 229.53125 259.46875 C 229.886719 260.496094 230.75 261.398438 232.128906 262.175781 C 232.40625 262.351562 232.6875 262.503906 232.964844 262.636719 C 234.566406 263.355469 236.421875 263.714844 238.535156 263.714844 C 239.269531 263.714844 239.972656 263.679688 240.648438 263.605469 C 242.304688 263.382812 243.75 262.90625 244.984375 262.175781 C 245.9375 261.644531 246.640625 261.042969 247.09375 260.371094 C 247.273438 260.09375 247.410156 259.792969 247.515625 259.46875 C 247.632812 259.792969 247.691406 260.105469 247.691406 260.414062 C 247.691406 260.488281 247.691406 260.574219 247.691406 260.679688 L 247.316406 261.953125 C 246.890625 262.761719 246.113281 263.480469 244.984375 264.109375 C 244.277344 264.507812 243.523438 264.828125 242.714844 265.078125 C 241.484375 265.460938 240.089844 265.652344 238.535156 265.652344 C 236.023438 265.652344 233.890625 265.136719 232.128906 264.109375 C 231.984375 264.054688 231.84375 263.984375 231.710938 263.914062 C 231.566406 263.808594 231.425781 263.722656 231.292969 263.648438 C 230.574219 263.078125 230.058594 262.496094 229.753906 261.910156 Z M 247.316406 256.984375 C 247.125 257.363281 246.867188 257.722656 246.546875 258.058594 C 246.132812 258.472656 245.613281 258.851562 244.984375 259.203125 C 244.632812 259.421875 244.261719 259.621094 243.882812 259.796875 C 242.855469 260.210938 241.6875 260.488281 240.382812 260.632812 C 239.78125 260.707031 239.164062 260.742188 238.535156 260.742188 C 237.832031 260.742188 237.140625 260.707031 236.464844 260.632812 C 234.851562 260.382812 233.40625 259.910156 232.128906 259.203125 C 231 258.574219 230.207031 257.832031 229.753906 256.984375 C 229.503906 256.527344 229.378906 256.035156 229.378906 255.507812 C 229.378906 255.230469 229.414062 254.929688 229.488281 254.605469 C 229.839844 255.664062 230.722656 256.601562 232.128906 257.421875 C 233.890625 258.433594 236.023438 258.941406 238.535156 258.941406 C 238.855469 258.941406 239.136719 258.941406 239.371094 258.941406 C 241.558594 258.792969 243.425781 258.289062 244.984375 257.421875 C 245.054688 257.378906 245.128906 257.332031 245.203125 257.289062 C 246.480469 256.496094 247.25 255.617188 247.515625 254.648438 C 247.632812 254.941406 247.691406 255.230469 247.691406 255.507812 C 247.691406 256.035156 247.566406 256.527344 247.316406 256.984375 " fill-opacity="1" fill-rule="evenodd"/><path fill="#eee6bc" d="M 225.109375 246.355469 C 224.152344 246.78125 223.148438 246.992188 222.09375 246.992188 C 220.816406 246.992188 219.789062 246.730469 219.011719 246.199219 C 218.160156 245.773438 217.683594 245.1875 217.582031 244.441406 C 217.582031 243.78125 218.058594 243.257812 219.011719 242.878906 C 219.203125 242.746094 219.410156 242.628906 219.628906 242.527344 C 220.273438 242.21875 221.035156 242.0625 221.917969 242.0625 C 223.195312 242.0625 224.257812 242.277344 225.109375 242.703125 C 225.84375 243.203125 226.207031 243.78125 226.207031 244.441406 C 226.207031 245.011719 225.996094 245.519531 225.570312 245.957031 C 225.4375 246.089844 225.285156 246.222656 225.109375 246.355469 Z M 198.34375 219.289062 L 177.546875 231.085938 L 216.480469 253.394531 L 237.058594 241.449219 Z M 195.417969 233.195312 C 196.125 232.417969 197.023438 231.714844 198.125 231.085938 C 198.402344 230.921875 198.699219 230.769531 199.003906 230.621094 C 200.488281 229.917969 202.125 229.441406 203.914062 229.191406 C 204.96875 229.03125 206.070312 228.949219 207.214844 228.949219 C 210.089844 228.949219 212.636719 229.40625 214.851562 230.3125 C 215.410156 230.535156 215.953125 230.789062 216.480469 231.085938 C 217.332031 231.570312 218.050781 232.097656 218.636719 232.667969 C 219.769531 233.796875 220.332031 235.066406 220.332031 236.476562 C 220.332031 237.25 220.148438 237.992188 219.785156 238.699219 C 219.28125 239.605469 218.460938 240.441406 217.316406 241.207031 C 217.050781 241.367188 216.773438 241.535156 216.480469 241.710938 C 215.175781 242.519531 213.707031 243.097656 212.078125 243.449219 C 210.597656 243.804688 208.976562 243.976562 207.214844 243.976562 C 203.695312 243.976562 200.664062 243.222656 198.125 241.710938 C 195.585938 240.363281 194.257812 238.582031 194.140625 236.363281 C 194.214844 235.234375 194.640625 234.179688 195.417969 233.195312 Z M 189.71875 226.265625 C 189.996094 226.058594 190.304688 225.898438 190.640625 225.78125 C 191.199219 225.578125 191.839844 225.472656 192.558594 225.472656 C 193.832031 225.472656 194.898438 225.6875 195.75 226.109375 C 196.484375 226.640625 196.847656 227.269531 196.847656 228.003906 C 196.847656 228.402344 196.710938 228.773438 196.429688 229.125 C 196.253906 229.347656 196.027344 229.558594 195.75 229.765625 C 194.792969 230.1875 193.78125 230.402344 192.710938 230.402344 C 191.449219 230.402344 190.449219 230.128906 189.71875 229.589844 C 188.839844 229.164062 188.339844 228.632812 188.222656 228.003906 C 188.222656 227.269531 188.71875 226.691406 189.71875 226.265625 Z M 217.734375 257.839844 L 171.40625 231.238281 C 171.480469 230.988281 171.515625 230.738281 171.515625 230.492188 C 171.515625 230.109375 171.445312 229.757812 171.296875 229.433594 L 189.519531 218.828125 L 197.113281 214.429688 L 200.613281 216.429688 L 203.914062 218.367188 L 214.851562 224.660156 L 216.261719 225.472656 L 217.164062 226 L 218.636719 226.839844 L 229.269531 232.933594 L 232 234.515625 L 243.15625 240.898438 L 245.203125 242.0625 L 239.4375 245.410156 C 239.15625 245.378906 238.855469 245.363281 238.535156 245.363281 C 236.40625 245.363281 234.550781 245.722656 232.964844 246.441406 C 232.660156 246.574219 232.363281 246.722656 232.085938 246.882812 C 231.191406 247.394531 230.523438 247.953125 230.082031 248.554688 C 229.613281 249.183594 229.378906 249.859375 229.378906 250.578125 C 229.378906 250.753906 229.394531 250.953125 229.421875 251.175781 L 217.734375 257.839844 " fill-opacity="1" fill-rule="evenodd"/><path fill="#7dbf5c" d="M 225.109375 246.355469 C 225.285156 246.222656 225.4375 246.089844 225.570312 245.957031 C 225.996094 245.519531 226.207031 245.011719 226.207031 244.441406 C 226.207031 243.78125 225.84375 243.203125 225.109375 242.703125 C 224.257812 242.277344 223.195312 242.0625 221.917969 242.0625 C 221.035156 242.0625 220.273438 242.21875 219.628906 242.527344 C 219.410156 242.628906 219.203125 242.746094 219.011719 242.878906 C 218.058594 243.257812 217.582031 243.78125 217.582031 244.441406 C 217.683594 245.1875 218.160156 245.773438 219.011719 246.199219 C 219.789062 246.730469 220.816406 246.992188 222.09375 246.992188 C 223.148438 246.992188 224.152344 246.78125 225.109375 246.355469 Z M 198.34375 219.289062 L 237.058594 241.449219 L 216.480469 253.394531 L 177.546875 231.085938 Z M 195.417969 233.195312 C 194.640625 234.179688 194.214844 235.234375 194.140625 236.363281 C 194.257812 238.582031 195.585938 240.363281 198.125 241.710938 C 200.664062 243.222656 203.695312 243.976562 207.214844 243.976562 C 208.976562 243.976562 210.597656 243.804688 212.078125 243.449219 C 213.707031 243.097656 215.175781 242.519531 216.480469 241.710938 C 216.773438 241.535156 217.050781 241.367188 217.316406 241.207031 C 218.460938 240.441406 219.28125 239.605469 219.785156 238.699219 C 220.148438 237.992188 220.332031 237.25 220.332031 236.476562 C 220.332031 235.066406 219.769531 233.796875 218.636719 232.667969 C 218.050781 232.097656 217.332031 231.570312 216.480469 231.085938 C 215.953125 230.789062 215.410156 230.535156 214.851562 230.3125 C 212.636719 229.40625 210.089844 228.949219 207.214844 228.949219 C 206.070312 228.949219 204.96875 229.03125 203.914062 229.191406 C 202.125 229.441406 200.488281 229.917969 199.003906 230.621094 C 198.699219 230.769531 198.402344 230.921875 198.125 231.085938 C 197.023438 231.714844 196.125 232.417969 195.417969 233.195312 Z M 189.71875 226.265625 C 188.71875 226.691406 188.222656 227.269531 188.222656 228.003906 C 188.339844 228.632812 188.839844 229.164062 189.71875 229.589844 C 190.449219 230.128906 191.449219 230.402344 192.710938 230.402344 C 193.78125 230.402344 194.792969 230.1875 195.75 229.765625 C 196.027344 229.558594 196.253906 229.347656 196.429688 229.125 C 196.710938 228.773438 196.847656 228.402344 196.847656 228.003906 C 196.847656 227.269531 196.484375 226.640625 195.75 226.109375 C 194.898438 225.6875 193.832031 225.472656 192.558594 225.472656 C 191.839844 225.472656 191.199219 225.578125 190.640625 225.78125 C 190.304688 225.898438 189.996094 226.058594 189.71875 226.265625 " fill-opacity="1" fill-rule="evenodd"/><path fill="#d68d00" d="M 171.339844 226.484375 C 171.105469 227.542969 170.277344 228.488281 168.851562 229.324219 C 167.0625 230.351562 164.914062 230.863281 162.40625 230.863281 C 159.910156 230.863281 157.761719 230.351562 155.953125 229.324219 C 154.546875 228.488281 153.683594 227.542969 153.359375 226.484375 C 153.300781 226.191406 153.269531 225.90625 153.269531 225.628906 C 153.269531 225.070312 153.410156 224.542969 153.6875 224.042969 C 154.113281 224.820312 154.871094 225.523438 155.953125 226.15625 C 157.761719 227.210938 159.910156 227.742188 162.40625 227.742188 C 164.914062 227.742188 167.0625 227.210938 168.851562 226.15625 C 169.953125 225.554688 170.699219 224.863281 171.097656 224.085938 C 171.375 224.558594 171.515625 225.070312 171.515625 225.628906 C 171.515625 225.949219 171.457031 226.238281 171.339844 226.484375 Z M 171.339844 231.457031 C 171.132812 232.265625 170.589844 232.984375 169.710938 233.613281 C 169.464844 233.835938 169.175781 234.023438 168.851562 234.1875 C 167.0625 235.214844 164.914062 235.726562 162.40625 235.726562 C 159.910156 235.726562 157.761719 235.214844 155.953125 234.1875 C 154.574219 233.378906 153.734375 232.449219 153.425781 231.390625 C 153.324219 231.113281 153.269531 230.8125 153.269531 230.492188 C 153.269531 229.933594 153.410156 229.40625 153.6875 228.90625 C 154.113281 229.683594 154.871094 230.410156 155.953125 231.085938 C 157.761719 232.097656 159.910156 232.601562 162.40625 232.601562 C 164.914062 232.601562 167.0625 232.097656 168.851562 231.085938 C 169.175781 230.910156 169.464844 230.710938 169.710938 230.492188 C 169.785156 230.460938 169.835938 230.410156 169.867188 230.335938 C 170.039062 230.1875 170.203125 230.066406 170.351562 229.960938 C 170.699219 229.636719 170.953125 229.300781 171.097656 228.949219 C 171.15625 229.097656 171.222656 229.257812 171.296875 229.433594 C 171.445312 229.757812 171.515625 230.109375 171.515625 230.492188 C 171.515625 230.738281 171.480469 230.988281 171.40625 231.238281 C 171.40625 231.3125 171.382812 231.386719 171.339844 231.457031 Z M 171.1875 236.738281 C 170.90625 237.371094 170.414062 237.949219 169.710938 238.476562 C 169.464844 238.699219 169.175781 238.886719 168.851562 239.050781 C 167.0625 240.074219 164.914062 240.589844 162.40625 240.589844 C 159.910156 240.589844 157.761719 240.074219 155.953125 239.050781 C 154.753906 238.390625 153.960938 237.621094 153.578125 236.738281 C 153.375 236.3125 153.269531 235.851562 153.269531 235.351562 C 153.269531 234.824219 153.394531 234.332031 153.644531 233.878906 C 154.058594 234.699219 154.828125 235.441406 155.953125 236.101562 C 157.761719 237.128906 159.910156 237.640625 162.40625 237.640625 C 164.914062 237.640625 167.0625 237.128906 168.851562 236.101562 C 169.175781 235.925781 169.464844 235.726562 169.710938 235.507812 C 170.386719 234.992188 170.863281 234.453125 171.140625 233.878906 C 171.390625 234.378906 171.515625 234.871094 171.515625 235.351562 C 171.515625 235.851562 171.40625 236.3125 171.1875 236.738281 Z M 171.339844 242.019531 C 171.132812 242.722656 170.714844 243.339844 170.085938 243.867188 C 169.734375 244.191406 169.320312 244.492188 168.851562 244.769531 C 167.0625 245.796875 164.914062 246.3125 162.40625 246.3125 C 159.910156 246.3125 157.761719 245.796875 155.953125 244.769531 C 155.605469 244.550781 155.265625 244.320312 154.945312 244.089844 C 154.179688 243.488281 153.675781 242.796875 153.425781 242.019531 C 153.324219 241.667969 153.269531 241.351562 153.269531 241.074219 C 153.269531 240.546875 153.394531 240.046875 153.644531 239.578125 C 154.027344 240.398438 154.796875 241.140625 155.953125 241.800781 C 156.6875 242.226562 157.480469 242.585938 158.332031 242.878906 C 159.566406 243.1875 160.921875 243.339844 162.40625 243.339844 C 163.886719 243.339844 165.230469 243.1875 166.433594 242.878906 C 167.3125 242.585938 168.121094 242.226562 168.851562 241.800781 C 169.175781 241.625 169.464844 241.453125 169.710938 241.292969 C 170.386719 240.75 170.863281 240.199219 171.140625 239.644531 C 171.390625 240.070312 171.515625 240.546875 171.515625 241.074219 C 171.515625 241.382812 171.457031 241.695312 171.339844 242.019531 Z M 153.6875 249.433594 C 154.113281 250.199219 154.871094 250.917969 155.953125 251.589844 C 157.761719 252.617188 159.910156 253.132812 162.40625 253.132812 C 164.914062 253.132812 167.0625 252.617188 168.851562 251.589844 C 169.703125 251.089844 170.34375 250.5625 170.769531 250.007812 C 170.84375 250.429688 170.964844 250.84375 171.140625 251.238281 C 171.246094 251.371094 171.332031 251.523438 171.40625 251.703125 C 171.863281 252.257812 172.5 252.785156 173.320312 253.285156 C 173.351562 253.3125 173.402344 253.351562 173.472656 253.394531 C 175.265625 254.421875 177.398438 254.933594 179.878906 254.933594 C 180.113281 254.933594 180.34375 254.933594 180.5625 254.933594 C 182.820312 254.816406 184.757812 254.304688 186.371094 253.394531 L 186.4375 253.328125 C 187.496094 252.699219 188.214844 252.015625 188.59375 251.285156 C 188.875 251.738281 189.011719 252.242188 189.011719 252.800781 C 189.011719 253.15625 188.960938 253.476562 188.859375 253.769531 C 188.785156 254.019531 188.660156 254.28125 188.484375 254.5625 C 188.105469 255.265625 187.402344 255.917969 186.371094 256.519531 C 184.566406 257.53125 182.402344 258.039062 179.878906 258.039062 C 177.648438 258.039062 175.703125 257.632812 174.046875 256.828125 C 173.871094 256.726562 173.679688 256.625 173.472656 256.519531 C 172.726562 256.050781 172.125 255.589844 171.671875 255.132812 C 171.289062 254.679688 171.046875 254.222656 170.945312 253.769531 C 170.855469 253.550781 170.796875 253.335938 170.769531 253.132812 C 170.3125 253.6875 169.675781 254.214844 168.851562 254.714844 C 167.0625 255.742188 164.914062 256.253906 162.40625 256.253906 C 159.910156 256.253906 157.761719 255.742188 155.953125 254.714844 C 154.195312 253.6875 153.300781 252.457031 153.269531 251.019531 C 153.269531 250.445312 153.410156 249.917969 153.6875 249.433594 Z M 153.425781 246.882812 C 153.324219 246.574219 153.269531 246.257812 153.269531 245.9375 C 153.269531 245.65625 153.300781 245.371094 153.359375 245.078125 C 153.433594 244.917969 153.527344 244.703125 153.644531 244.441406 C 153.703125 244.558594 153.769531 244.691406 153.84375 244.835938 C 154.269531 245.496094 154.972656 246.105469 155.953125 246.664062 C 157.761719 247.734375 159.910156 248.269531 162.40625 248.269531 C 164.914062 248.269531 167.0625 247.734375 168.851562 246.664062 C 169.996094 246.03125 170.761719 245.3125 171.140625 244.507812 C 171.390625 244.929688 171.515625 245.410156 171.515625 245.9375 C 171.515625 246.289062 171.457031 246.601562 171.339844 246.882812 C 171.074219 247.910156 170.246094 248.824219 168.851562 249.632812 C 167.0625 250.660156 164.914062 251.175781 162.40625 251.175781 C 159.910156 251.175781 157.761719 250.660156 155.953125 249.632812 C 154.621094 248.824219 153.777344 247.910156 153.425781 246.882812 Z M 154.214844 264.332031 C 154.671875 265.109375 155.449219 265.8125 156.550781 266.445312 C 158.3125 267.46875 160.445312 267.984375 162.953125 267.984375 C 165.492188 267.984375 167.640625 267.46875 169.402344 266.445312 C 170.429688 265.855469 171.148438 265.226562 171.5625 264.550781 C 171.605469 264.507812 171.640625 264.453125 171.671875 264.398438 C 171.949219 263.898438 172.089844 263.347656 172.089844 262.746094 C 172.089844 262.570312 172.074219 262.394531 172.042969 262.21875 C 172.46875 262.601562 172.945312 262.953125 173.472656 263.273438 C 175.265625 264.300781 177.398438 264.8125 179.878906 264.8125 C 182.402344 264.8125 184.566406 264.300781 186.371094 263.273438 C 187.546875 262.570312 188.324219 261.816406 188.707031 261.007812 C 188.910156 261.464844 189.011719 261.925781 189.011719 262.394531 C 189.011719 263.832031 188.132812 265.0625 186.371094 266.089844 C 184.566406 267.105469 182.402344 267.609375 179.878906 267.609375 C 177.398438 267.609375 175.265625 267.105469 173.472656 266.089844 C 172.875 265.695312 172.34375 265.320312 171.890625 264.96875 C 172.023438 265.246094 172.089844 265.585938 172.089844 265.980469 C 172.089844 267.417969 171.191406 268.652344 169.402344 269.675781 C 167.640625 270.707031 165.492188 271.21875 162.953125 271.21875 C 160.445312 271.21875 158.3125 270.707031 156.550781 269.675781 C 154.773438 268.652344 153.871094 267.417969 153.84375 265.980469 C 153.84375 265.410156 153.96875 264.859375 154.214844 264.332031 Z M 188.859375 258.566406 C 188.507812 259.5625 187.679688 260.453125 186.371094 261.226562 C 184.566406 262.242188 182.402344 262.746094 179.878906 262.746094 C 177.398438 262.746094 175.265625 262.242188 173.472656 261.226562 C 172.09375 260.453125 171.25 259.5625 170.945312 258.566406 C 170.828125 258.214844 170.769531 257.863281 170.769531 257.511719 C 170.769531 257.011719 170.855469 256.554688 171.03125 256.144531 C 171.28125 256.675781 171.707031 257.1875 172.308594 257.6875 C 172.617188 257.921875 173.003906 258.183594 173.472656 258.476562 C 175.265625 259.492188 177.398438 259.996094 179.878906 259.996094 C 182.402344 259.996094 184.566406 259.492188 186.371094 258.476562 C 187.546875 257.773438 188.324219 256.996094 188.707031 256.144531 C 188.910156 256.601562 189.011719 257.054688 189.011719 257.511719 C 189.011719 257.863281 188.960938 258.214844 188.859375 258.566406 Z M 229.597656 264.550781 C 229.453125 264.152344 229.378906 263.765625 229.378906 263.382812 C 229.378906 262.855469 229.503906 262.363281 229.753906 261.910156 C 230.058594 262.496094 230.574219 263.078125 231.292969 263.648438 C 231.425781 263.722656 231.566406 263.808594 231.710938 263.914062 C 231.84375 263.984375 231.984375 264.054688 232.128906 264.109375 C 233.890625 265.136719 236.023438 265.652344 238.535156 265.652344 C 240.089844 265.652344 241.484375 265.460938 242.714844 265.078125 C 243.523438 264.828125 244.277344 264.507812 244.984375 264.109375 C 246.113281 263.480469 246.890625 262.761719 247.316406 261.953125 C 247.992188 263.714844 247.601562 265.183594 246.148438 266.355469 C 244.417969 267.691406 242.472656 268.429688 240.316406 268.578125 C 237.324219 268.988281 234.578125 268.527344 232.085938 267.191406 C 230.910156 266.53125 230.082031 265.652344 229.597656 264.550781 Z M 229.488281 254.605469 C 229.414062 254.328125 229.378906 254.027344 229.378906 253.703125 C 229.378906 253.175781 229.527344 252.648438 229.816406 252.121094 C 230.273438 252.925781 231.042969 253.652344 232.128906 254.296875 C 233.890625 255.308594 236.023438 255.816406 238.535156 255.816406 C 239.78125 255.816406 240.941406 255.691406 242.011719 255.441406 C 243.097656 255.191406 244.085938 254.8125 244.984375 254.296875 C 245.054688 254.253906 245.128906 254.214844 245.203125 254.1875 C 245.820312 253.835938 246.316406 253.445312 246.699219 253.023438 C 246.933594 252.757812 247.125 252.480469 247.273438 252.183594 C 247.550781 252.667969 247.691406 253.175781 247.691406 253.703125 C 247.691406 253.984375 247.644531 254.261719 247.558594 254.539062 C 247.542969 254.585938 247.527344 254.621094 247.515625 254.648438 C 247.25 255.617188 246.480469 256.496094 245.203125 257.289062 C 245.128906 257.332031 245.054688 257.378906 244.984375 257.421875 C 243.425781 258.289062 241.558594 258.792969 239.371094 258.941406 C 239.136719 258.941406 238.855469 258.941406 238.535156 258.941406 C 236.023438 258.941406 233.890625 258.433594 232.128906 257.421875 C 230.722656 256.601562 229.839844 255.664062 229.488281 254.605469 Z M 229.753906 256.984375 C 230.207031 257.832031 231 258.574219 232.128906 259.203125 C 233.40625 259.910156 234.851562 260.382812 236.464844 260.632812 C 237.140625 260.707031 237.832031 260.742188 238.535156 260.742188 C 239.164062 260.742188 239.78125 260.707031 240.382812 260.632812 C 241.6875 260.488281 242.855469 260.210938 243.882812 259.796875 C 244.261719 259.621094 244.632812 259.421875 244.984375 259.203125 C 245.613281 258.851562 246.132812 258.472656 246.546875 258.058594 C 246.867188 257.722656 247.125 257.363281 247.316406 256.984375 C 247.566406 257.480469 247.691406 257.992188 247.691406 258.523438 C 247.691406 258.582031 247.683594 258.648438 247.667969 258.71875 C 247.652344 258.96875 247.601562 259.21875 247.515625 259.46875 C 247.410156 259.792969 247.273438 260.09375 247.09375 260.371094 C 246.640625 261.042969 245.9375 261.644531 244.984375 262.175781 C 243.75 262.90625 242.304688 263.382812 240.648438 263.605469 C 239.972656 263.679688 239.269531 263.714844 238.535156 263.714844 C 236.421875 263.714844 234.566406 263.355469 232.964844 262.636719 C 232.6875 262.503906 232.40625 262.351562 232.128906 262.175781 C 230.75 261.398438 229.886719 260.496094 229.53125 259.46875 C 229.429688 259.117188 229.378906 258.800781 229.378906 258.523438 C 229.378906 257.964844 229.503906 257.453125 229.753906 256.984375 " fill-opacity="1" fill-rule="evenodd"/><path fill="#908a6d" d="M 171.40625 231.238281 L 217.734375 257.839844 L 217.734375 271.371094 L 189.011719 254.824219 L 189.011719 254.761719 C 189.011719 254.40625 188.960938 254.078125 188.859375 253.769531 C 188.960938 253.476562 189.011719 253.15625 189.011719 252.800781 C 189.011719 252.242188 188.875 251.738281 188.59375 251.285156 C 188.875 250.753906 189.011719 250.226562 189.011719 249.699219 C 189.011719 248.246094 188.132812 247.007812 186.371094 245.980469 C 184.566406 244.953125 182.402344 244.441406 179.878906 244.441406 C 177.398438 244.441406 175.296875 244.917969 173.5625 245.871094 L 171.140625 244.507812 C 171.390625 244.007812 171.515625 243.515625 171.515625 243.03125 C 171.515625 242.679688 171.457031 242.339844 171.339844 242.019531 C 171.457031 241.695312 171.515625 241.382812 171.515625 241.074219 C 171.515625 240.546875 171.390625 240.070312 171.140625 239.644531 C 171.390625 239.144531 171.515625 238.632812 171.515625 238.101562 C 171.515625 237.648438 171.40625 237.191406 171.1875 236.738281 C 171.40625 236.3125 171.515625 235.851562 171.515625 235.351562 C 171.515625 234.871094 171.390625 234.378906 171.140625 233.878906 C 171.390625 233.378906 171.515625 232.890625 171.515625 232.402344 C 171.515625 232.039062 171.457031 231.722656 171.339844 231.457031 C 171.382812 231.386719 171.40625 231.3125 171.40625 231.238281 " fill-opacity="1" fill-rule="evenodd"/><path fill="#003592" d="M 124.878906 131.5625 L 137.644531 141.421875 L 153.820312 133.851562 C 155.066406 133.265625 156.335938 133.023438 157.628906 133.125 C 158.316406 133.167969 159.015625 133.324219 159.71875 133.585938 C 161.257812 134.144531 162.480469 135.070312 163.371094 136.359375 L 137.136719 148.640625 L 111.386719 128.746094 C 112.472656 127.820312 113.78125 127.257812 115.304688 127.050781 C 117.417969 126.773438 119.324219 127.285156 121.027344 128.589844 L 124.351562 131.167969 L 124.878906 131.5625 " fill-opacity="1" fill-rule="evenodd"/><path fill="#ff65a7" d="M 259.070312 172.378906 L 254.359375 179.925781 L 212.496094 122.785156 L 219.695312 118.648438 L 259.070312 172.378906 " fill-opacity="1" fill-rule="evenodd"/><path fill="#ed428b" d="M 300.796875 155.984375 L 294.019531 152.246094 L 290.609375 150.332031 L 256.207031 205.582031 L 218.96875 154.753906 L 214.300781 148.394531 L 195.394531 178.78125 L 189.519531 182.480469 L 189.519531 184.328125 L 186.042969 182.347656 L 175.476562 188.617188 L 172.285156 186.789062 L 176.710938 179.792969 L 176.578125 179.730469 L 212.496094 122.785156 L 254.359375 179.925781 L 259.070312 172.378906 L 277.335938 143.027344 L 265.34375 136.382812 L 300.796875 111.078125 L 300.796875 155.984375 " fill-opacity="1" fill-rule="evenodd"/><g clip-path="url(#dcbde36650)"><path fill="#cb2069" d="M 294.019531 152.246094 L 263.230469 201.730469 L 256.207031 205.582031 L 290.609375 150.332031 Z M 195.394531 178.78125 L 214.300781 148.394531 L 218.96875 154.753906 L 204.441406 178.078125 L 200.304688 175.679688 Z M 300.796875 155.984375 L 300.796875 111.078125 L 307.972656 106.941406 L 307.996094 151.851562 L 300.796875 155.984375 " fill-opacity="1" fill-rule="evenodd"/></g><path fill="#999999" d="M 169.050781 126.085938 L 154.371094 120.164062 L 148.648438 117.855469 C 145.449219 116.5625 144.070312 115.046875 144.511719 113.300781 L 145.128906 110.792969 C 145.421875 110.542969 145.730469 110.277344 146.050781 110 C 146.976562 109.164062 147.753906 108.445312 148.382812 107.84375 L 146.753906 114.445312 L 171.957031 124.609375 C 171.179688 125.003906 170.210938 125.496094 169.050781 126.085938 Z M 149.113281 104.960938 C 148.363281 104.699219 147.503906 104.757812 146.535156 105.136719 L 150.695312 88.324219 C 151.136719 86.582031 152.949219 86.355469 156.132812 87.644531 L 184.480469 99.085938 C 187.679688 100.363281 189.058594 101.882812 188.617188 103.640625 L 182.457031 128.617188 C 182.015625 130.359375 180.195312 130.585938 176.996094 129.296875 L 171.980469 127.269531 C 172.433594 127.039062 172.835938 126.832031 173.1875 126.65625 C 173.378906 126.582031 173.542969 126.496094 173.671875 126.390625 C 174.070312 126.1875 174.429688 125.976562 174.753906 125.753906 L 180.429688 128.042969 L 186.128906 105.046875 L 186.152344 105.046875 L 186.636719 103.023438 L 186.636719 103.003906 L 152.964844 89.40625 L 152.894531 89.679688 L 152.457031 91.449219 L 149.113281 104.960938 " fill-opacity="1" fill-rule="evenodd"/></svg>