<svg xmlns="http://www.w3.org/2000/svg" xmlns:xlink="http://www.w3.org/1999/xlink" width="500" zoomAndPan="magnify" viewBox="0 0 375 374.999991" height="500" preserveAspectRatio="xMidYMid meet" version="1.0"><defs><clipPath id="348abf8855"><path d="M 164 232 L 211 232 L 211 278.402344 L 164 278.402344 Z M 164 232 " clip-rule="nonzero"/></clipPath><clipPath id="673339688e"><path d="M 72.453125 96.902344 L 302.703125 96.902344 L 302.703125 246 L 72.453125 246 Z M 72.453125 96.902344 " clip-rule="nonzero"/></clipPath><clipPath id="3c46388737"><path d="M 155 265 L 220 265 L 220 278.402344 L 155 278.402344 Z M 155 265 " clip-rule="nonzero"/></clipPath></defs><g clip-path="url(#348abf8855)"><path fill="#b7b7b7" d="M 164.53125 232.265625 L 210.636719 232.265625 L 210.636719 278.417969 L 164.53125 278.417969 Z M 164.53125 232.265625 " fill-opacity="1" fill-rule="nonzero"/></g><g clip-path="url(#673339688e)"><path fill="#e5e5e5" d="M 302.703125 117.117188 L 302.703125 224.941406 C 302.703125 225.605469 302.671875 226.265625 302.605469 226.921875 C 302.542969 227.582031 302.445312 228.234375 302.316406 228.882812 C 302.1875 229.53125 302.027344 230.171875 301.835938 230.804688 C 301.644531 231.4375 301.421875 232.058594 301.167969 232.667969 C 300.914062 233.28125 300.632812 233.878906 300.324219 234.460938 C 300.011719 235.042969 299.671875 235.609375 299.304688 236.160156 C 298.9375 236.710938 298.542969 237.242188 298.125 237.75 C 297.707031 238.261719 297.261719 238.753906 296.796875 239.21875 C 296.328125 239.6875 295.839844 240.128906 295.328125 240.550781 C 294.820312 240.96875 294.289062 241.363281 293.738281 241.730469 C 293.191406 242.097656 292.625 242.4375 292.042969 242.75 C 291.460938 243.0625 290.863281 243.34375 290.253906 243.597656 C 289.640625 243.847656 289.019531 244.070312 288.390625 244.261719 C 287.757812 244.457031 287.117188 244.617188 286.46875 244.746094 C 285.820312 244.875 285.167969 244.972656 284.511719 245.035156 C 283.855469 245.101562 283.195312 245.132812 282.535156 245.132812 L 92.625 245.132812 C 91.964844 245.132812 91.304688 245.101562 90.648438 245.035156 C 89.988281 244.972656 89.335938 244.875 88.6875 244.746094 C 88.042969 244.617188 87.402344 244.457031 86.769531 244.261719 C 86.136719 244.070312 85.515625 243.847656 84.90625 243.597656 C 84.296875 243.34375 83.699219 243.0625 83.117188 242.75 C 82.535156 242.4375 81.96875 242.097656 81.417969 241.730469 C 80.867188 241.363281 80.339844 240.96875 79.828125 240.550781 C 79.316406 240.128906 78.828125 239.6875 78.363281 239.21875 C 77.894531 238.753906 77.453125 238.261719 77.03125 237.75 C 76.613281 237.242188 76.21875 236.710938 75.851562 236.160156 C 75.488281 235.609375 75.148438 235.042969 74.835938 234.460938 C 74.523438 233.878906 74.242188 233.28125 73.988281 232.667969 C 73.738281 232.058594 73.515625 231.4375 73.324219 230.804688 C 73.132812 230.171875 72.96875 229.53125 72.839844 228.882812 C 72.710938 228.234375 72.617188 227.582031 72.550781 226.921875 C 72.488281 226.265625 72.453125 225.605469 72.453125 224.941406 L 72.453125 117.117188 C 72.453125 116.457031 72.488281 115.796875 72.550781 115.140625 C 72.617188 114.480469 72.710938 113.828125 72.839844 113.179688 C 72.96875 112.53125 73.132812 111.890625 73.324219 111.257812 C 73.515625 110.625 73.738281 110.003906 73.988281 109.390625 C 74.242188 108.78125 74.523438 108.183594 74.835938 107.601562 C 75.148438 107.015625 75.488281 106.449219 75.851562 105.902344 C 76.21875 105.351562 76.613281 104.820312 77.03125 104.308594 C 77.453125 103.796875 77.894531 103.308594 78.363281 102.839844 C 78.828125 102.375 79.316406 101.929688 79.828125 101.511719 C 80.339844 101.089844 80.867188 100.699219 81.417969 100.332031 C 81.96875 99.964844 82.535156 99.625 83.117188 99.3125 C 83.699219 99 84.296875 98.71875 84.90625 98.464844 C 85.515625 98.210938 86.136719 97.988281 86.769531 97.796875 C 87.402344 97.605469 88.042969 97.445312 88.6875 97.316406 C 89.335938 97.1875 89.988281 97.089844 90.648438 97.027344 C 91.304688 96.960938 91.964844 96.929688 92.625 96.929688 L 282.535156 96.929688 C 283.195312 96.929688 283.855469 96.960938 284.511719 97.027344 C 285.167969 97.089844 285.820312 97.1875 286.46875 97.316406 C 287.117188 97.445312 287.757812 97.605469 288.390625 97.796875 C 289.019531 97.988281 289.640625 98.210938 290.253906 98.464844 C 290.863281 98.71875 291.460938 99 292.042969 99.3125 C 292.625 99.625 293.191406 99.964844 293.738281 100.332031 C 294.289062 100.699219 294.820312 101.089844 295.328125 101.511719 C 295.839844 101.929688 296.328125 102.375 296.796875 102.839844 C 297.261719 103.308594 297.707031 103.796875 298.125 104.308594 C 298.542969 104.820312 298.9375 105.351562 299.304688 105.902344 C 299.671875 106.449219 300.011719 107.015625 300.324219 107.601562 C 300.632812 108.183594 300.914062 108.78125 301.167969 109.390625 C 301.421875 110.003906 301.644531 110.625 301.835938 111.257812 C 302.027344 111.890625 302.1875 112.53125 302.316406 113.179688 C 302.445312 113.828125 302.542969 114.480469 302.605469 115.140625 C 302.671875 115.796875 302.703125 116.457031 302.703125 117.117188 Z M 302.703125 117.117188 " fill-opacity="1" fill-rule="nonzero"/></g><path fill="#122f3d" d="M 92.625 103.140625 L 282.535156 103.140625 C 283.449219 103.140625 284.359375 103.230469 285.257812 103.410156 C 286.15625 103.589844 287.03125 103.851562 287.878906 104.203125 C 288.726562 104.554688 289.53125 104.984375 290.292969 105.496094 C 291.054688 106.007812 291.757812 106.585938 292.40625 107.234375 C 293.054688 107.882812 293.636719 108.589844 294.144531 109.351562 C 294.652344 110.117188 295.085938 110.921875 295.433594 111.769531 C 295.785156 112.617188 296.050781 113.492188 296.230469 114.390625 C 296.410156 115.292969 296.496094 116.199219 296.496094 117.117188 L 296.496094 224.941406 C 296.496094 225.859375 296.410156 226.769531 296.230469 227.671875 C 296.050781 228.570312 295.785156 229.445312 295.433594 230.292969 C 295.085938 231.140625 294.652344 231.945312 294.144531 232.707031 C 293.636719 233.472656 293.054688 234.179688 292.40625 234.828125 C 291.757812 235.476562 291.054688 236.054688 290.292969 236.566406 C 289.53125 237.074219 288.726562 237.503906 287.878906 237.855469 C 287.03125 238.207031 286.15625 238.472656 285.257812 238.652344 C 284.359375 238.832031 283.449219 238.921875 282.535156 238.921875 L 92.625 238.921875 C 91.707031 238.921875 90.800781 238.832031 89.898438 238.652344 C 89 238.472656 88.128906 238.207031 87.28125 237.855469 C 86.433594 237.503906 85.628906 237.074219 84.867188 236.566406 C 84.105469 236.054688 83.398438 235.476562 82.75 234.828125 C 82.101562 234.179688 81.523438 233.472656 81.015625 232.707031 C 80.503906 231.945312 80.074219 231.140625 79.722656 230.292969 C 79.371094 229.445312 79.109375 228.570312 78.929688 227.671875 C 78.75 226.769531 78.660156 225.859375 78.660156 224.941406 L 78.660156 117.117188 C 78.660156 116.199219 78.75 115.292969 78.929688 114.390625 C 79.109375 113.492188 79.371094 112.617188 79.722656 111.769531 C 80.074219 110.921875 80.503906 110.117188 81.015625 109.351562 C 81.523438 108.589844 82.101562 107.882812 82.75 107.234375 C 83.398438 106.585938 84.105469 106.007812 84.867188 105.496094 C 85.628906 104.984375 86.433594 104.554688 87.28125 104.203125 C 88.128906 103.851562 89 103.589844 89.898438 103.410156 C 90.800781 103.230469 91.707031 103.140625 92.625 103.140625 Z M 92.625 103.140625 " fill-opacity="1" fill-rule="nonzero"/><g clip-path="url(#3c46388737)"><path fill="#e5e5e5" d="M 162.21875 265.277344 L 212.9375 265.277344 C 213.367188 265.277344 213.796875 265.320312 214.21875 265.40625 C 214.640625 265.488281 215.050781 265.613281 215.449219 265.777344 C 215.847656 265.945312 216.222656 266.144531 216.582031 266.386719 C 216.941406 266.625 217.273438 266.898438 217.578125 267.203125 C 217.878906 267.507812 218.152344 267.839844 218.390625 268.199219 C 218.632812 268.554688 218.832031 268.933594 219 269.332031 C 219.164062 269.730469 219.289062 270.140625 219.371094 270.5625 C 219.457031 270.988281 219.496094 271.414062 219.496094 271.84375 C 219.496094 272.277344 219.457031 272.703125 219.371094 273.125 C 219.289062 273.550781 219.164062 273.960938 219 274.359375 C 218.832031 274.757812 218.632812 275.136719 218.390625 275.492188 C 218.152344 275.851562 217.878906 276.183594 217.578125 276.488281 C 217.273438 276.792969 216.941406 277.066406 216.582031 277.304688 C 216.222656 277.542969 215.847656 277.746094 215.449219 277.910156 C 215.050781 278.078125 214.640625 278.203125 214.21875 278.285156 C 213.796875 278.371094 213.367188 278.410156 212.9375 278.410156 L 162.21875 278.410156 C 161.789062 278.410156 161.363281 278.371094 160.941406 278.285156 C 160.519531 278.203125 160.109375 278.078125 159.710938 277.910156 C 159.3125 277.746094 158.933594 277.542969 158.574219 277.304688 C 158.21875 277.066406 157.886719 276.792969 157.582031 276.488281 C 157.277344 276.183594 157.003906 275.851562 156.765625 275.492188 C 156.527344 275.136719 156.324219 274.757812 156.160156 274.359375 C 155.996094 273.960938 155.871094 273.550781 155.785156 273.125 C 155.703125 272.703125 155.660156 272.277344 155.660156 271.84375 C 155.660156 271.414062 155.703125 270.988281 155.785156 270.5625 C 155.871094 270.140625 155.996094 269.730469 156.160156 269.332031 C 156.324219 268.933594 156.527344 268.554688 156.765625 268.199219 C 157.003906 267.839844 157.277344 267.507812 157.582031 267.203125 C 157.886719 266.898438 158.21875 266.625 158.574219 266.386719 C 158.933594 266.144531 159.3125 265.945312 159.710938 265.777344 C 160.109375 265.613281 160.519531 265.488281 160.941406 265.40625 C 161.363281 265.320312 161.789062 265.277344 162.21875 265.277344 Z M 162.21875 265.277344 " fill-opacity="1" fill-rule="nonzero"/></g><path fill="#2cb737" d="M 115.234375 126.226562 L 126.359375 126.226562 L 126.359375 172.765625 L 115.234375 172.765625 Z M 115.234375 126.226562 " fill-opacity="1" fill-rule="nonzero"/><path fill="#2cb737" d="M 137.496094 118.796875 L 148.621094 118.796875 L 148.621094 165.335938 L 137.496094 165.335938 Z M 137.496094 118.796875 " fill-opacity="1" fill-rule="nonzero"/><path fill="#ce3030" d="M 159.75 153.453125 L 170.878906 153.453125 L 170.878906 199.996094 L 159.75 199.996094 Z M 159.75 153.453125 " fill-opacity="1" fill-rule="nonzero"/><path fill="#2cb737" d="M 182.011719 130.683594 L 193.140625 130.683594 L 193.140625 177.226562 L 182.011719 177.226562 Z M 182.011719 130.683594 " fill-opacity="1" fill-rule="nonzero"/><path fill="#ce3030" d="M 204.273438 159.945312 L 215.402344 159.945312 L 215.402344 206.488281 L 204.273438 206.488281 Z M 204.273438 159.945312 " fill-opacity="1" fill-rule="nonzero"/><path fill="#ce3030" d="M 226.535156 176.730469 L 237.664062 176.730469 L 237.664062 223.273438 L 226.535156 223.273438 Z M 226.535156 176.730469 " fill-opacity="1" fill-rule="nonzero"/><path fill="#2cb737" d="M 248.796875 152.082031 L 259.925781 152.082031 L 259.925781 198.621094 L 248.796875 198.621094 Z M 248.796875 152.082031 " fill-opacity="1" fill-rule="nonzero"/><path fill="#ffffff" d="M 233.152344 209.5625 L 187.566406 163.121094 L 164.566406 186.285156 L 142.316406 148.9375 L 122.859375 166.25 L 118.734375 161.605469 L 143.800781 139.300781 L 165.800781 176.226562 L 187.589844 154.28125 L 233.027344 200.578125 L 253.605469 178.445312 L 258.148438 182.679688 Z M 233.152344 209.5625 " fill-opacity="1" fill-rule="nonzero"/></svg>